<svg width="1534px" height="1055px" viewBox="0 0 1534 1055" xmlns="http://www.w3.org/2000/svg" xmlns:xlink="http://www.w3.org/1999/xlink" style="width: 1534px; height: 1055px;"><g transform="matrix(1, 0, 0, 1, 0, 0)" clip-path="url(#mainClip2603)"><rect x="0" y="0" width="1534" height="1055" fill="#787878" stroke="none" transform="matrix(1, 0, 0, 1, 0, 0)"/><g transform="matrix(1, 0, 0, 1, 329.46099853515625, -344)"><g transform="matrix(1, 0, 0, 1, -322, 345)"><path d="M 0,0 L 100,0 L 100,100 L 0,100 z" fill="#787878" stroke="none" transform="matrix(1, 0, 0, 1, 0, 0)"/><image x="0" y="0" width="41" height="48" xlink:href="http://localhost/monitoring//assets/topology/logo1.svg" preserveAspectRatio="none" transform="matrix(1, 0, 0, 1, 15, 15) scale(1.7073170731707317, 1.4583333333333333)"/><path d="M 0,0 L 100,0 L 100,8 L 0,8 z" fill="transparent" stroke="none" transform="matrix(1, 0, 0, 1, 0, 0)"/><path d="M 0,0 L 8,0 L 8,100 L 0,100 z" fill="transparent" stroke="none" transform="matrix(1, 0, 0, 1, 0, 0)"/><path d="M 0,0 L 8,0 L 8,100 L 0,100 z" fill="transparent" stroke="none" transform="matrix(1, 0, 0, 1, 92, 0)"/><path d="M 0,0 L 100,0 L 100,8 L 0,8 z" fill="transparent" stroke="none" transform="matrix(1, 0, 0, 1, 0, 92)"/></g><g transform="matrix(1, 0, 0, 1, -322, 345)"><path d="M 0,0 L 100,0 L 100,100 L 0,100 z" fill="#787878" stroke="none" transform="matrix(1, 0, 0, 1, 0, 0)"/><image x="0" y="0" width="41" height="48" xlink:href="http://localhost/monitoring//assets/topology/logo1.svg" preserveAspectRatio="none" transform="matrix(1, 0, 0, 1, 15, 15) scale(1.7073170731707317, 1.4583333333333333)"/><path d="M 0,0 L 100,0 L 100,8 L 0,8 z" fill="transparent" stroke="none" transform="matrix(1, 0, 0, 1, 0, 0)"/><path d="M 0,0 L 8,0 L 8,100 L 0,100 z" fill="transparent" stroke="none" transform="matrix(1, 0, 0, 1, 0, 0)"/><path d="M 0,0 L 8,0 L 8,100 L 0,100 z" fill="transparent" stroke="none" transform="matrix(1, 0, 0, 1, 92, 0)"/><path d="M 0,0 L 100,0 L 100,8 L 0,8 z" fill="transparent" stroke="none" transform="matrix(1, 0, 0, 1, 0, 92)"/></g><g transform="matrix(1, 0, 0, 1, -328.46099853515625, 431.0622756958008)"><g transform="matrix(1, 0, 0, 1, 0, 0)"><path d="M 0,0 L 112.9219970703125,0 L 112.9219970703125,31.875448608398436 L 0,31.875448608398436 z" fill="#282c34" stroke="none" transform="matrix(1, 0, 0, 1, 2, 2)"/><path d="M 0,0 L 112.9219970703125,0 L 112.9219970703125,31.875448608398436 L 0,31.875448608398436 z" fill="none" stroke="#fdfe03" stroke-width="4" stroke-linecap="butt" stroke-linejoin="miter" stroke-miterlimit="10" transform="matrix(1, 0, 0, 1, 2, 2)"/><text x="0" y="11.906586456298829" style="font: bold 11pt Lato, Helvetica, Arial, sans-serif" text-anchor="start" fill="#F8F8F8" stroke="none" transform="matrix(1, 0, 0, 1, 10, 10)">Indosat Radio</text></g><path d="M 0,0 L 116.9219970703125,0 L 116.9219970703125,8 L 0,8 z" fill="transparent" stroke="none" transform="matrix(1, 0, 0, 1, 0, 0)"/><path d="M 0,0 L 8,0 L 8,35.875448608398436 L 0,35.875448608398436 z" fill="transparent" stroke="none" transform="matrix(1, 0, 0, 1, 0, 0)"/><path d="M 0,0 L 8,0 L 8,35.875448608398436 L 0,35.875448608398436 z" fill="transparent" stroke="none" transform="matrix(1, 0, 0, 1, 108.9219970703125, 0)"/><path d="M 0,0 L 116.9219970703125,0 L 116.9219970703125,8 L 0,8 z" fill="transparent" stroke="none" transform="matrix(1, 0, 0, 1, 0, 27.875448608398436)"/></g><g transform="matrix(1, 0, 0, 1, -125, 345)"><path d="M 0,0 L 100,0 L 100,100 L 0,100 z" fill="#787878" stroke="none" transform="matrix(1, 0, 0, 1, 0, 0)"/><image x="0" y="0" width="96" height="97" xlink:href="http://localhost/monitoring//assets/topology/router.svg" preserveAspectRatio="none" transform="matrix(1, 0, 0, 1, 15, 15) scale(0.7291666666666666, 0.7216494845360825)"/><path d="M 0,0 L 100,0 L 100,8 L 0,8 z" fill="transparent" stroke="none" transform="matrix(1, 0, 0, 1, 0, 0)"/><path d="M 0,0 L 8,0 L 8,100 L 0,100 z" fill="transparent" stroke="none" transform="matrix(1, 0, 0, 1, 0, 0)"/><path d="M 0,0 L 8,0 L 8,100 L 0,100 z" fill="transparent" stroke="none" transform="matrix(1, 0, 0, 1, 92, 0)"/><path d="M 0,0 L 100,0 L 100,8 L 0,8 z" fill="transparent" stroke="none" transform="matrix(1, 0, 0, 1, 0, 92)"/></g><g transform="matrix(1, 0, 0, 1, -321, 484)"><path d="M 0,0 L 100,0 L 100,100 L 0,100 z" fill="#787878" stroke="none" transform="matrix(1, 0, 0, 1, 0, 0)"/><image x="0" y="0" width="74" height="67" xlink:href="http://localhost/monitoring//assets/topology/logo2.svg" preserveAspectRatio="none" transform="matrix(1, 0, 0, 1, 15, 15) scale(0.9459459459459459, 1.044776119402985)"/><path d="M 0,0 L 100,0 L 100,8 L 0,8 z" fill="transparent" stroke="none" transform="matrix(1, 0, 0, 1, 0, 0)"/><path d="M 0,0 L 8,0 L 8,100 L 0,100 z" fill="transparent" stroke="none" transform="matrix(1, 0, 0, 1, 0, 0)"/><path d="M 0,0 L 8,0 L 8,100 L 0,100 z" fill="transparent" stroke="none" transform="matrix(1, 0, 0, 1, 92, 0)"/><path d="M 0,0 L 100,0 L 100,8 L 0,8 z" fill="transparent" stroke="none" transform="matrix(1, 0, 0, 1, 0, 92)"/></g><g transform="matrix(1, 0, 0, 1, -320.2784652709961, 551.0622756958007)"><g transform="matrix(1, 0, 0, 1, 0, 0)"><path d="M 0,0 L 92.55693054199219,0 L 92.55693054199219,31.875448608398436 L 0,31.875448608398436 z" fill="#282c34" stroke="none" transform="matrix(1, 0, 0, 1, 2, 2)"/><path d="M 0,0 L 92.55693054199219,0 L 92.55693054199219,31.875448608398436 L 0,31.875448608398436 z" fill="none" stroke="#fdfe03" stroke-width="4" stroke-linecap="butt" stroke-linejoin="miter" stroke-miterlimit="10" transform="matrix(1, 0, 0, 1, 2, 2)"/><text x="0" y="11.906586456298829" style="font: bold 11pt Lato, Helvetica, Arial, sans-serif" text-anchor="start" fill="#F8F8F8" stroke="none" transform="matrix(1, 0, 0, 1, 10, 10)">Indosat FO</text></g><path d="M 0,0 L 96.55693054199219,0 L 96.55693054199219,8 L 0,8 z" fill="transparent" stroke="none" transform="matrix(1, 0, 0, 1, 0, 0)"/><path d="M 0,0 L 8,0 L 8,35.875448608398436 L 0,35.875448608398436 z" fill="transparent" stroke="none" transform="matrix(1, 0, 0, 1, 0, 0)"/><path d="M 0,0 L 8,0 L 8,35.875448608398436 L 0,35.875448608398436 z" fill="transparent" stroke="none" transform="matrix(1, 0, 0, 1, 88.55693054199219, 0)"/><path d="M 0,0 L 96.55693054199219,0 L 96.55693054199219,8 L 0,8 z" fill="transparent" stroke="none" transform="matrix(1, 0, 0, 1, 0, 27.875448608398436)"/></g><g transform="matrix(1, 0, 0, 1, -123, 484)"><path d="M 0,0 L 100,0 L 100,100 L 0,100 z" fill="#787878" stroke="none" transform="matrix(1, 0, 0, 1, 0, 0)"/><image x="0" y="0" width="96" height="97" xlink:href="http://localhost/monitoring//assets/topology/router.svg" preserveAspectRatio="none" transform="matrix(1, 0, 0, 1, 15, 15) scale(0.7291666666666666, 0.7216494845360825)"/><path d="M 0,0 L 100,0 L 100,8 L 0,8 z" fill="transparent" stroke="none" transform="matrix(1, 0, 0, 1, 0, 0)"/><path d="M 0,0 L 8,0 L 8,100 L 0,100 z" fill="transparent" stroke="none" transform="matrix(1, 0, 0, 1, 0, 0)"/><path d="M 0,0 L 8,0 L 8,100 L 0,100 z" fill="transparent" stroke="none" transform="matrix(1, 0, 0, 1, 92, 0)"/><path d="M 0,0 L 100,0 L 100,8 L 0,8 z" fill="transparent" stroke="none" transform="matrix(1, 0, 0, 1, 0, 92)"/></g><g transform="matrix(1, 0, 0, 1, 72, 345)"><path d="M 0,0 L 100,0 L 100,100 L 0,100 z" fill="#787878" stroke="none" transform="matrix(1, 0, 0, 1, 0, 0)"/><image x="0" y="0" width="96" height="96" xlink:href="http://localhost/monitoring//assets/topology/coreswitch.svg" preserveAspectRatio="none" transform="matrix(1, 0, 0, 1, 15, 15) scale(0.7291666666666666, 0.7291666666666666)"/><path d="M 0,0 L 100,0 L 100,8 L 0,8 z" fill="transparent" stroke="none" transform="matrix(1, 0, 0, 1, 0, 0)"/><path d="M 0,0 L 8,0 L 8,100 L 0,100 z" fill="transparent" stroke="none" transform="matrix(1, 0, 0, 1, 0, 0)"/><path d="M 0,0 L 8,0 L 8,100 L 0,100 z" fill="transparent" stroke="none" transform="matrix(1, 0, 0, 1, 92, 0)"/><path d="M 0,0 L 100,0 L 100,8 L 0,8 z" fill="transparent" stroke="none" transform="matrix(1, 0, 0, 1, 0, 92)"/></g><g transform="matrix(1, 0, 0, 1, 72.64137268066406, 362.0622756958008)"><g transform="matrix(1, 0, 0, 1, 0, 0)"><path d="M 0,0 L 86.71725463867188,0 L 86.71725463867188,17.875448608398436 L 0,17.875448608398436 z" fill="#787878" stroke="none" transform="matrix(1, 0, 0, 1, 0, 0)"/><text x="0" y="11.906586456298829" style="font: bold 11pt Lato, Helvetica, Arial, sans-serif" text-anchor="start" fill="#F8F8F8" stroke="none" transform="matrix(1, 0, 0, 1, 1, 1)">Core Switch</text></g></g><g transform="matrix(1, 0, 0, 1, 72, 506)"><path d="M 0,0 L 100,0 L 100,100 L 0,100 z" fill="#787878" stroke="none" transform="matrix(1, 0, 0, 1, 0, 0)"/><image x="0" y="0" width="96" height="97" xlink:href="http://localhost/monitoring//assets/topology/router.svg" preserveAspectRatio="none" transform="matrix(1, 0, 0, 1, 15, 15) scale(0.7291666666666666, 0.7216494845360825)"/><path d="M 0,0 L 100,0 L 100,8 L 0,8 z" fill="transparent" stroke="none" transform="matrix(1, 0, 0, 1, 0, 0)"/><path d="M 0,0 L 8,0 L 8,100 L 0,100 z" fill="transparent" stroke="none" transform="matrix(1, 0, 0, 1, 0, 0)"/><path d="M 0,0 L 8,0 L 8,100 L 0,100 z" fill="transparent" stroke="none" transform="matrix(1, 0, 0, 1, 92, 0)"/><path d="M 0,0 L 100,0 L 100,8 L 0,8 z" fill="transparent" stroke="none" transform="matrix(1, 0, 0, 1, 0, 92)"/></g><g transform="matrix(1, 0, 0, 1, 37.069435119628906, 521.0622756958007)"><g transform="matrix(1, 0, 0, 1, 0, 0)"><path d="M 0,0 L 173.8611297607422,0 L 173.8611297607422,17.875448608398436 L 0,17.875448608398436 z" fill="#787878" stroke="none" transform="matrix(1, 0, 0, 1, 0, 0)"/><text x="0" y="11.906586456298829" style="font: bold 11pt Lato, Helvetica, Arial, sans-serif" text-anchor="start" fill="#F8F8F8" stroke="none" transform="matrix(1, 0, 0, 1, 1, 1)">XIDTIVPLCTRP-ACSW01</text></g></g><g transform="matrix(1, 0, 0, 1, 36.069435119628906, 413.0622756958008)"><g transform="matrix(1, 0, 0, 1, 0, 0)"><path d="M 0,0 L 173.8611297607422,0 L 173.8611297607422,17.875448608398436 L 0,17.875448608398436 z" fill="#787878" stroke="none" transform="matrix(1, 0, 0, 1, 0, 0)"/><text x="0" y="11.906586456298829" style="font: bold 11pt Lato, Helvetica, Arial, sans-serif" text-anchor="start" fill="#F8F8F8" stroke="none" transform="matrix(1, 0, 0, 1, 1, 1)">XIDTIVPLCTRP-ACSW01</text></g></g><g transform="matrix(1, 0, 0, 1, 100, 601)"><path d="M 0,0 L 100,0 L 100,100 L 0,100 z" fill="#787878" stroke="none" transform="matrix(1, 0, 0, 1, 0, 0)"/><image x="0" y="0" width="96" height="97" xlink:href="http://localhost/monitoring//assets/topology/router.svg" preserveAspectRatio="none" transform="matrix(1, 0, 0, 1, 15, 15) scale(0.7291666666666666, 0.7216494845360825)"/><path d="M 0,0 L 100,0 L 100,8 L 0,8 z" fill="transparent" stroke="none" transform="matrix(1, 0, 0, 1, 0, 0)"/><path d="M 0,0 L 8,0 L 8,100 L 0,100 z" fill="transparent" stroke="none" transform="matrix(1, 0, 0, 1, 0, 0)"/><path d="M 0,0 L 8,0 L 8,100 L 0,100 z" fill="transparent" stroke="none" transform="matrix(1, 0, 0, 1, 92, 0)"/><path d="M 0,0 L 100,0 L 100,8 L 0,8 z" fill="transparent" stroke="none" transform="matrix(1, 0, 0, 1, 0, 92)"/></g><g transform="matrix(1, 0, 0, 1, 98, 688)"><path d="M 0,0 L 100,0 L 100,100 L 0,100 z" fill="#787878" stroke="none" transform="matrix(1, 0, 0, 1, 0, 0)"/><image x="0" y="0" width="96" height="97" xlink:href="http://localhost/monitoring//assets/topology/router.svg" preserveAspectRatio="none" transform="matrix(1, 0, 0, 1, 15, 15) scale(0.7291666666666666, 0.7216494845360825)"/><path d="M 0,0 L 100,0 L 100,8 L 0,8 z" fill="transparent" stroke="none" transform="matrix(1, 0, 0, 1, 0, 0)"/><path d="M 0,0 L 8,0 L 8,100 L 0,100 z" fill="transparent" stroke="none" transform="matrix(1, 0, 0, 1, 0, 0)"/><path d="M 0,0 L 8,0 L 8,100 L 0,100 z" fill="transparent" stroke="none" transform="matrix(1, 0, 0, 1, 92, 0)"/><path d="M 0,0 L 100,0 L 100,8 L 0,8 z" fill="transparent" stroke="none" transform="matrix(1, 0, 0, 1, 0, 92)"/></g><g transform="matrix(1, 0, 0, 1, 103, 785)"><path d="M 0,0 L 100,0 L 100,100 L 0,100 z" fill="#787878" stroke="none" transform="matrix(1, 0, 0, 1, 0, 0)"/><image x="0" y="0" width="96" height="97" xlink:href="http://localhost/monitoring//assets/topology/router.svg" preserveAspectRatio="none" transform="matrix(1, 0, 0, 1, 15, 15) scale(0.7291666666666666, 0.7216494845360825)"/><path d="M 0,0 L 100,0 L 100,8 L 0,8 z" fill="transparent" stroke="none" transform="matrix(1, 0, 0, 1, 0, 0)"/><path d="M 0,0 L 8,0 L 8,100 L 0,100 z" fill="transparent" stroke="none" transform="matrix(1, 0, 0, 1, 0, 0)"/><path d="M 0,0 L 8,0 L 8,100 L 0,100 z" fill="transparent" stroke="none" transform="matrix(1, 0, 0, 1, 92, 0)"/><path d="M 0,0 L 100,0 L 100,8 L 0,8 z" fill="transparent" stroke="none" transform="matrix(1, 0, 0, 1, 0, 92)"/></g><g transform="matrix(1, 0, 0, 1, 293, 506)"><path d="M 0,0 L 100,0 L 100,100 L 0,100 z" fill="#787878" stroke="none" transform="matrix(1, 0, 0, 1, 0, 0)"/><image x="0" y="0" width="40" height="40" xlink:href="http://localhost/monitoring//assets/topology/ap.svg" preserveAspectRatio="none" transform="matrix(1, 0, 0, 1, 25, 25) scale(1.25, 1.25)"/><path d="M 0,0 L 100,0 L 100,8 L 0,8 z" fill="transparent" stroke="none" transform="matrix(1, 0, 0, 1, 0, 0)"/><path d="M 0,0 L 8,0 L 8,100 L 0,100 z" fill="transparent" stroke="none" transform="matrix(1, 0, 0, 1, 0, 0)"/><path d="M 0,0 L 8,0 L 8,100 L 0,100 z" fill="transparent" stroke="none" transform="matrix(1, 0, 0, 1, 92, 0)"/><path d="M 0,0 L 100,0 L 100,8 L 0,8 z" fill="transparent" stroke="none" transform="matrix(1, 0, 0, 1, 0, 92)"/></g><g transform="matrix(1, 0, 0, 1, 297, 601)"><path d="M 0,0 L 100,0 L 100,100 L 0,100 z" fill="#787878" stroke="none" transform="matrix(1, 0, 0, 1, 0, 0)"/><image x="0" y="0" width="40" height="40" xlink:href="http://localhost/monitoring//assets/topology/ap.svg" preserveAspectRatio="none" transform="matrix(1, 0, 0, 1, 25, 25) scale(1.25, 1.25)"/><path d="M 0,0 L 100,0 L 100,8 L 0,8 z" fill="transparent" stroke="none" transform="matrix(1, 0, 0, 1, 0, 0)"/><path d="M 0,0 L 8,0 L 8,100 L 0,100 z" fill="transparent" stroke="none" transform="matrix(1, 0, 0, 1, 0, 0)"/><path d="M 0,0 L 8,0 L 8,100 L 0,100 z" fill="transparent" stroke="none" transform="matrix(1, 0, 0, 1, 92, 0)"/><path d="M 0,0 L 100,0 L 100,8 L 0,8 z" fill="transparent" stroke="none" transform="matrix(1, 0, 0, 1, 0, 92)"/></g><g transform="matrix(1, 0, 0, 1, 298, 699)"><path d="M 0,0 L 100,0 L 100,100 L 0,100 z" fill="#787878" stroke="none" transform="matrix(1, 0, 0, 1, 0, 0)"/><image x="0" y="0" width="40" height="40" xlink:href="http://localhost/monitoring//assets/topology/ap.svg" preserveAspectRatio="none" transform="matrix(1, 0, 0, 1, 25, 25) scale(1.25, 1.25)"/><path d="M 0,0 L 100,0 L 100,8 L 0,8 z" fill="transparent" stroke="none" transform="matrix(1, 0, 0, 1, 0, 0)"/><path d="M 0,0 L 8,0 L 8,100 L 0,100 z" fill="transparent" stroke="none" transform="matrix(1, 0, 0, 1, 0, 0)"/><path d="M 0,0 L 8,0 L 8,100 L 0,100 z" fill="transparent" stroke="none" transform="matrix(1, 0, 0, 1, 92, 0)"/><path d="M 0,0 L 100,0 L 100,8 L 0,8 z" fill="transparent" stroke="none" transform="matrix(1, 0, 0, 1, 0, 92)"/></g><g transform="matrix(1, 0, 0, 1, 297, 785)"><path d="M 0,0 L 100,0 L 100,100 L 0,100 z" fill="#787878" stroke="none" transform="matrix(1, 0, 0, 1, 0, 0)"/><image x="0" y="0" width="40" height="40" xlink:href="http://localhost/monitoring//assets/topology/ap.svg" preserveAspectRatio="none" transform="matrix(1, 0, 0, 1, 25, 25) scale(1.25, 1.25)"/><path d="M 0,0 L 100,0 L 100,8 L 0,8 z" fill="transparent" stroke="none" transform="matrix(1, 0, 0, 1, 0, 0)"/><path d="M 0,0 L 8,0 L 8,100 L 0,100 z" fill="transparent" stroke="none" transform="matrix(1, 0, 0, 1, 0, 0)"/><path d="M 0,0 L 8,0 L 8,100 L 0,100 z" fill="transparent" stroke="none" transform="matrix(1, 0, 0, 1, 92, 0)"/><path d="M 0,0 L 100,0 L 100,8 L 0,8 z" fill="transparent" stroke="none" transform="matrix(1, 0, 0, 1, 0, 92)"/></g><g transform="matrix(1, 0, 0, 1, 292, 417)"><path d="M 0,0 L 100,0 L 100,100 L 0,100 z" fill="#787878" stroke="none" transform="matrix(1, 0, 0, 1, 0, 0)"/><image x="0" y="0" width="40" height="40" xlink:href="http://localhost/monitoring//assets/topology/ap.svg" preserveAspectRatio="none" transform="matrix(1, 0, 0, 1, 25, 25) scale(1.25, 1.25)"/><path d="M 0,0 L 100,0 L 100,8 L 0,8 z" fill="transparent" stroke="none" transform="matrix(1, 0, 0, 1, 0, 0)"/><path d="M 0,0 L 8,0 L 8,100 L 0,100 z" fill="transparent" stroke="none" transform="matrix(1, 0, 0, 1, 0, 0)"/><path d="M 0,0 L 8,0 L 8,100 L 0,100 z" fill="transparent" stroke="none" transform="matrix(1, 0, 0, 1, 92, 0)"/><path d="M 0,0 L 100,0 L 100,8 L 0,8 z" fill="transparent" stroke="none" transform="matrix(1, 0, 0, 1, 0, 92)"/></g><g transform="matrix(1, 0, 0, 1, 300.9763870239258, 772.0622756958007)"><g transform="matrix(1, 0, 0, 1, 0, 0)"><path d="M 0,0 L 94.04722595214844,0 L 94.04722595214844,17.875448608398436 L 0,17.875448608398436 z" fill="#787878" stroke="none" transform="matrix(1, 0, 0, 1, 0, 0)"/><text x="0" y="11.906586456298829" style="font: bold 11pt Lato, Helvetica, Arial, sans-serif" text-anchor="start" fill="#F8F8F8" stroke="none" transform="matrix(1, 0, 0, 1, 1, 1)">AP Office Lt2</text></g></g><g transform="matrix(1, 0, 0, 1, 293.60630798339844, 859.0622756958007)"><g transform="matrix(1, 0, 0, 1, 0, 0)"><path d="M 0,0 L 112.78738403320312,0 L 112.78738403320312,17.875448608398436 L 0,17.875448608398436 z" fill="#787878" stroke="none" transform="matrix(1, 0, 0, 1, 0, 0)"/><text x="0" y="11.906586456298829" style="font: bold 11pt Lato, Helvetica, Arial, sans-serif" text-anchor="start" fill="#F8F8F8" stroke="none" transform="matrix(1, 0, 0, 1, 1, 1)">AP Parkir Motor</text></g></g><g transform="matrix(1, 0, 0, 1, 287.6614227294922, 490.0622756958008)"><g transform="matrix(1, 0, 0, 1, 0, 0)"><path d="M 0,0 L 104.67715454101562,0 L 104.67715454101562,17.875448608398436 L 0,17.875448608398436 z" fill="#787878" stroke="none" transform="matrix(1, 0, 0, 1, 0, 0)"/><text x="0" y="11.906586456298829" style="font: bold 11pt Lato, Helvetica, Arial, sans-serif" text-anchor="start" fill="#F8F8F8" stroke="none" transform="matrix(1, 0, 0, 1, 1, 1)">AP Area 220ml</text></g></g><g transform="matrix(1, 0, 0, 1, 299.9763870239258, 674.0622756958007)"><g transform="matrix(1, 0, 0, 1, 0, 0)"><path d="M 0,0 L 94.04722595214844,0 L 94.04722595214844,17.875448608398436 L 0,17.875448608398436 z" fill="#787878" stroke="none" transform="matrix(1, 0, 0, 1, 0, 0)"/><text x="0" y="11.906586456298829" style="font: bold 11pt Lato, Helvetica, Arial, sans-serif" text-anchor="start" fill="#F8F8F8" stroke="none" transform="matrix(1, 0, 0, 1, 1, 1)">AP Office Lt1</text></g></g><g transform="matrix(1, 0, 0, 1, 295.9763870239258, 580.0622756958007)"><g transform="matrix(1, 0, 0, 1, 0, 0)"><path d="M 0,0 L 94.04722595214844,0 L 94.04722595214844,17.875448608398436 L 0,17.875448608398436 z" fill="#787878" stroke="none" transform="matrix(1, 0, 0, 1, 0, 0)"/><text x="0" y="11.906586456298829" style="font: bold 11pt Lato, Helvetica, Arial, sans-serif" text-anchor="start" fill="#F8F8F8" stroke="none" transform="matrix(1, 0, 0, 1, 1, 1)">AP Office Lt1</text></g></g><g transform="matrix(1, 0, 0, 1, 84.20115661621094, 575.0622756958007)"><g transform="matrix(1, 0, 0, 1, 0, 0)"><path d="M 0,0 L 87.59768676757812,0 L 87.59768676757812,17.875448608398436 L 0,17.875448608398436 z" fill="#787878" stroke="none" transform="matrix(1, 0, 0, 1, 0, 0)"/><text x="0" y="11.906586456298829" style="font: bold 11pt Lato, Helvetica, Arial, sans-serif" text-anchor="start" fill="#F8F8F8" stroke="none" transform="matrix(1, 0, 0, 1, 1, 1)">10.203.105.5</text></g></g><g transform="matrix(1, 0, 0, 1, 104.12456512451172, 667.0622756958007)"><g transform="matrix(1, 0, 0, 1, 0, 0)"><path d="M 0,0 L 95.75086975097656,0 L 95.75086975097656,17.875448608398436 L 0,17.875448608398436 z" fill="#787878" stroke="none" transform="matrix(1, 0, 0, 1, 0, 0)"/><text x="0" y="11.906586456298829" style="font: bold 11pt Lato, Helvetica, Arial, sans-serif" text-anchor="start" fill="#F8F8F8" stroke="none" transform="matrix(1, 0, 0, 1, 1, 1)">10.203.105.13</text></g></g><g transform="matrix(1, 0, 0, 1, 66.0694351196289, 705.0622756958007)"><g transform="matrix(1, 0, 0, 1, 0, 0)"><path d="M 0,0 L 173.8611297607422,0 L 173.8611297607422,17.875448608398436 L 0,17.875448608398436 z" fill="#787878" stroke="none" transform="matrix(1, 0, 0, 1, 0, 0)"/><text x="0" y="11.906586456298829" style="font: bold 11pt Lato, Helvetica, Arial, sans-serif" text-anchor="start" fill="#F8F8F8" stroke="none" transform="matrix(1, 0, 0, 1, 1, 1)">XIDTIVPLCTRP-ACSW01</text></g></g><g transform="matrix(1, 0, 0, 1, 100.12456512451172, 755.0622756958007)"><g transform="matrix(1, 0, 0, 1, 0, 0)"><path d="M 0,0 L 95.75086975097656,0 L 95.75086975097656,17.875448608398436 L 0,17.875448608398436 z" fill="#787878" stroke="none" transform="matrix(1, 0, 0, 1, 0, 0)"/><text x="0" y="11.906586456298829" style="font: bold 11pt Lato, Helvetica, Arial, sans-serif" text-anchor="start" fill="#F8F8F8" stroke="none" transform="matrix(1, 0, 0, 1, 1, 1)">10.203.105.14</text></g></g><g transform="matrix(1, 0, 0, 1, 67.0694351196289, 619.0622756958007)"><g transform="matrix(1, 0, 0, 1, 0, 0)"><path d="M 0,0 L 173.8611297607422,0 L 173.8611297607422,17.875448608398436 L 0,17.875448608398436 z" fill="#787878" stroke="none" transform="matrix(1, 0, 0, 1, 0, 0)"/><text x="0" y="11.906586456298829" style="font: bold 11pt Lato, Helvetica, Arial, sans-serif" text-anchor="start" fill="#F8F8F8" stroke="none" transform="matrix(1, 0, 0, 1, 1, 1)">XIDTIVPLCTRP-ACSW01</text></g></g><g transform="matrix(1, 0, 0, 1, 106.12456512451172, 852.0622756958007)"><g transform="matrix(1, 0, 0, 1, 0, 0)"><path d="M 0,0 L 95.75086975097656,0 L 95.75086975097656,17.875448608398436 L 0,17.875448608398436 z" fill="#787878" stroke="none" transform="matrix(1, 0, 0, 1, 0, 0)"/><text x="0" y="11.906586456298829" style="font: bold 11pt Lato, Helvetica, Arial, sans-serif" text-anchor="start" fill="#F8F8F8" stroke="none" transform="matrix(1, 0, 0, 1, 1, 1)">10.203.105.17</text></g></g><g transform="matrix(1, 0, 0, 1, 72.0694351196289, 803.0622756958007)"><g transform="matrix(1, 0, 0, 1, 0, 0)"><path d="M 0,0 L 173.8611297607422,0 L 173.8611297607422,17.875448608398436 L 0,17.875448608398436 z" fill="#787878" stroke="none" transform="matrix(1, 0, 0, 1, 0, 0)"/><text x="0" y="11.906586456298829" style="font: bold 11pt Lato, Helvetica, Arial, sans-serif" text-anchor="start" fill="#F8F8F8" stroke="none" transform="matrix(1, 0, 0, 1, 1, 1)">XIDTIVPLCTRP-ACSW01</text></g></g><g transform="matrix(1, 0, 0, 1, -98.61846923828125, 500.0622756958008)"><g transform="matrix(1, 0, 0, 1, 0, 0)"><path d="M 0,0 L 49.2369384765625,0 L 49.2369384765625,17.875448608398436 L 0,17.875448608398436 z" fill="#787878" stroke="none" transform="matrix(1, 0, 0, 1, 0, 0)"/><text x="0" y="11.906586456298829" style="font: bold 11pt Lato, Helvetica, Arial, sans-serif" text-anchor="start" fill="#F8F8F8" stroke="none" transform="matrix(1, 0, 0, 1, 1, 1)">Router</text></g></g><g transform="matrix(1, 0, 0, 1, -119.87543487548828, 551.0622756958007)"><g transform="matrix(1, 0, 0, 1, 0, 0)"><path d="M 0,0 L 95.75086975097656,0 L 95.75086975097656,17.875448608398436 L 0,17.875448608398436 z" fill="#787878" stroke="none" transform="matrix(1, 0, 0, 1, 0, 0)"/><text x="0" y="11.906586456298829" style="font: bold 11pt Lato, Helvetica, Arial, sans-serif" text-anchor="start" fill="#F8F8F8" stroke="none" transform="matrix(1, 0, 0, 1, 1, 1)">10.203.22.218</text></g></g><g transform="matrix(1, 0, 0, 1, -160.9305648803711, 363.0622756958008)"><g transform="matrix(1, 0, 0, 1, 0, 0)"><path d="M 0,0 L 173.8611297607422,0 L 173.8611297607422,17.875448608398436 L 0,17.875448608398436 z" fill="#787878" stroke="none" transform="matrix(1, 0, 0, 1, 0, 0)"/><text x="0" y="11.906586456298829" style="font: bold 11pt Lato, Helvetica, Arial, sans-serif" text-anchor="start" fill="#F8F8F8" stroke="none" transform="matrix(1, 0, 0, 1, 1, 1)">XIDTIVPLCTRP-ACSW01</text></g></g><g transform="matrix(1, 0, 0, 1, -116.79884338378906, 410.0622756958008)"><g transform="matrix(1, 0, 0, 1, 0, 0)"><path d="M 0,0 L 87.59768676757812,0 L 87.59768676757812,17.875448608398436 L 0,17.875448608398436 z" fill="#787878" stroke="none" transform="matrix(1, 0, 0, 1, 0, 0)"/><text x="0" y="11.906586456298829" style="font: bold 11pt Lato, Helvetica, Arial, sans-serif" text-anchor="start" fill="#F8F8F8" stroke="none" transform="matrix(1, 0, 0, 1, 1, 1)">10.203.105.3</text></g></g><g transform="matrix(1, 0, 0, 1, -123.35646057128906, 568.0622756958007)"><g transform="matrix(1, 0, 0, 1, 0, 0)"><path d="M 0,0 L 104.71292114257812,0 L 104.71292114257812,17.875448608398436 L 0,17.875448608398436 z" fill="#787878" stroke="none" transform="matrix(1, 0, 0, 1, 0, 0)"/><text x="0" y="11.906586456298829" style="font: bold 11pt Lato, Helvetica, Arial, sans-serif" text-anchor="start" fill="#F8F8F8" stroke="none" transform="matrix(1, 0, 0, 1, 1, 1)">28ac 9ef2 79e0</text></g></g><g transform="matrix(1, 0, 0, 1, 484, 347)"><path d="M 0,0 L 100,0 L 100,100 L 0,100 z" fill="#787878" stroke="none" transform="matrix(1, 0, 0, 1, 0, 0)"/><image x="0" y="0" width="96" height="97" xlink:href="http://localhost/monitoring//assets/topology/router.svg" preserveAspectRatio="none" transform="matrix(1, 0, 0, 1, 15, 15) scale(0.7291666666666666, 0.7216494845360825)"/><path d="M 0,0 L 100,0 L 100,8 L 0,8 z" fill="transparent" stroke="none" transform="matrix(1, 0, 0, 1, 0, 0)"/><path d="M 0,0 L 8,0 L 8,100 L 0,100 z" fill="transparent" stroke="none" transform="matrix(1, 0, 0, 1, 0, 0)"/><path d="M 0,0 L 8,0 L 8,100 L 0,100 z" fill="transparent" stroke="none" transform="matrix(1, 0, 0, 1, 92, 0)"/><path d="M 0,0 L 100,0 L 100,8 L 0,8 z" fill="transparent" stroke="none" transform="matrix(1, 0, 0, 1, 0, 92)"/></g><g transform="matrix(1, 0, 0, 1, 481, 1198)"><path d="M 0,0 L 100,0 L 100,100 L 0,100 z" fill="#787878" stroke="none" transform="matrix(1, 0, 0, 1, 0, 0)"/><image x="0" y="0" width="96" height="97" xlink:href="http://localhost/monitoring//assets/topology/router.svg" preserveAspectRatio="none" transform="matrix(1, 0, 0, 1, 15, 15) scale(0.7291666666666666, 0.7216494845360825)"/><path d="M 0,0 L 100,0 L 100,8 L 0,8 z" fill="transparent" stroke="none" transform="matrix(1, 0, 0, 1, 0, 0)"/><path d="M 0,0 L 8,0 L 8,100 L 0,100 z" fill="transparent" stroke="none" transform="matrix(1, 0, 0, 1, 0, 0)"/><path d="M 0,0 L 8,0 L 8,100 L 0,100 z" fill="transparent" stroke="none" transform="matrix(1, 0, 0, 1, 92, 0)"/><path d="M 0,0 L 100,0 L 100,8 L 0,8 z" fill="transparent" stroke="none" transform="matrix(1, 0, 0, 1, 0, 92)"/></g><g transform="matrix(1, 0, 0, 1, 481, 1058)"><path d="M 0,0 L 100,0 L 100,100 L 0,100 z" fill="#787878" stroke="none" transform="matrix(1, 0, 0, 1, 0, 0)"/><image x="0" y="0" width="96" height="97" xlink:href="http://localhost/monitoring//assets/topology/router.svg" preserveAspectRatio="none" transform="matrix(1, 0, 0, 1, 15, 15) scale(0.7291666666666666, 0.7216494845360825)"/><path d="M 0,0 L 100,0 L 100,8 L 0,8 z" fill="transparent" stroke="none" transform="matrix(1, 0, 0, 1, 0, 0)"/><path d="M 0,0 L 8,0 L 8,100 L 0,100 z" fill="transparent" stroke="none" transform="matrix(1, 0, 0, 1, 0, 0)"/><path d="M 0,0 L 8,0 L 8,100 L 0,100 z" fill="transparent" stroke="none" transform="matrix(1, 0, 0, 1, 92, 0)"/><path d="M 0,0 L 100,0 L 100,8 L 0,8 z" fill="transparent" stroke="none" transform="matrix(1, 0, 0, 1, 0, 92)"/></g><g transform="matrix(1, 0, 0, 1, 481, 924)"><path d="M 0,0 L 100,0 L 100,100 L 0,100 z" fill="#787878" stroke="none" transform="matrix(1, 0, 0, 1, 0, 0)"/><image x="0" y="0" width="96" height="97" xlink:href="http://localhost/monitoring//assets/topology/router.svg" preserveAspectRatio="none" transform="matrix(1, 0, 0, 1, 15, 15) scale(0.7291666666666666, 0.7216494845360825)"/><path d="M 0,0 L 100,0 L 100,8 L 0,8 z" fill="transparent" stroke="none" transform="matrix(1, 0, 0, 1, 0, 0)"/><path d="M 0,0 L 8,0 L 8,100 L 0,100 z" fill="transparent" stroke="none" transform="matrix(1, 0, 0, 1, 0, 0)"/><path d="M 0,0 L 8,0 L 8,100 L 0,100 z" fill="transparent" stroke="none" transform="matrix(1, 0, 0, 1, 92, 0)"/><path d="M 0,0 L 100,0 L 100,8 L 0,8 z" fill="transparent" stroke="none" transform="matrix(1, 0, 0, 1, 0, 92)"/></g><g transform="matrix(1, 0, 0, 1, 484, 498)"><path d="M 0,0 L 100,0 L 100,100 L 0,100 z" fill="#787878" stroke="none" transform="matrix(1, 0, 0, 1, 0, 0)"/><image x="0" y="0" width="96" height="97" xlink:href="http://localhost/monitoring//assets/topology/router.svg" preserveAspectRatio="none" transform="matrix(1, 0, 0, 1, 15, 15) scale(0.7291666666666666, 0.7216494845360825)"/><path d="M 0,0 L 100,0 L 100,8 L 0,8 z" fill="transparent" stroke="none" transform="matrix(1, 0, 0, 1, 0, 0)"/><path d="M 0,0 L 8,0 L 8,100 L 0,100 z" fill="transparent" stroke="none" transform="matrix(1, 0, 0, 1, 0, 0)"/><path d="M 0,0 L 8,0 L 8,100 L 0,100 z" fill="transparent" stroke="none" transform="matrix(1, 0, 0, 1, 92, 0)"/><path d="M 0,0 L 100,0 L 100,8 L 0,8 z" fill="transparent" stroke="none" transform="matrix(1, 0, 0, 1, 0, 92)"/></g><g transform="matrix(1, 0, 0, 1, 484, 644)"><path d="M 0,0 L 100,0 L 100,100 L 0,100 z" fill="#787878" stroke="none" transform="matrix(1, 0, 0, 1, 0, 0)"/><image x="0" y="0" width="85" height="59" xlink:href="http://localhost/monitoring//assets/topology/unswitch.svg" preserveAspectRatio="none" transform="matrix(1, 0, 0, 1, 15, 15) scale(0.8235294117647058, 1.1864406779661016)"/><path d="M 0,0 L 100,0 L 100,8 L 0,8 z" fill="transparent" stroke="none" transform="matrix(1, 0, 0, 1, 0, 0)"/><path d="M 0,0 L 8,0 L 8,100 L 0,100 z" fill="transparent" stroke="none" transform="matrix(1, 0, 0, 1, 0, 0)"/><path d="M 0,0 L 8,0 L 8,100 L 0,100 z" fill="transparent" stroke="none" transform="matrix(1, 0, 0, 1, 92, 0)"/><path d="M 0,0 L 100,0 L 100,8 L 0,8 z" fill="transparent" stroke="none" transform="matrix(1, 0, 0, 1, 0, 92)"/></g><g transform="matrix(1, 0, 0, 1, 728, 347)"><path d="M 0,0 L 100,0 L 100,100 L 0,100 z" fill="#787878" stroke="none" transform="matrix(1, 0, 0, 1, 0, 0)"/><image x="0" y="0" width="96" height="97" xlink:href="http://localhost/monitoring//assets/topology/router.svg" preserveAspectRatio="none" transform="matrix(1, 0, 0, 1, 15, 15) scale(0.7291666666666666, 0.7216494845360825)"/><path d="M 0,0 L 100,0 L 100,8 L 0,8 z" fill="transparent" stroke="none" transform="matrix(1, 0, 0, 1, 0, 0)"/><path d="M 0,0 L 8,0 L 8,100 L 0,100 z" fill="transparent" stroke="none" transform="matrix(1, 0, 0, 1, 0, 0)"/><path d="M 0,0 L 8,0 L 8,100 L 0,100 z" fill="transparent" stroke="none" transform="matrix(1, 0, 0, 1, 92, 0)"/><path d="M 0,0 L 100,0 L 100,8 L 0,8 z" fill="transparent" stroke="none" transform="matrix(1, 0, 0, 1, 0, 92)"/></g><g transform="matrix(1, 0, 0, 1, 625, 407)"><path d="M 0,0 L 100,0 L 100,100 L 0,100 z" fill="#787878" stroke="none" transform="matrix(1, 0, 0, 1, 0, 0)"/><image x="0" y="0" width="40" height="40" xlink:href="http://localhost/monitoring//assets/topology/ap.svg" preserveAspectRatio="none" transform="matrix(1, 0, 0, 1, 25, 25) scale(1.25, 1.25)"/><path d="M 0,0 L 100,0 L 100,8 L 0,8 z" fill="transparent" stroke="none" transform="matrix(1, 0, 0, 1, 0, 0)"/><path d="M 0,0 L 8,0 L 8,100 L 0,100 z" fill="transparent" stroke="none" transform="matrix(1, 0, 0, 1, 0, 0)"/><path d="M 0,0 L 8,0 L 8,100 L 0,100 z" fill="transparent" stroke="none" transform="matrix(1, 0, 0, 1, 92, 0)"/><path d="M 0,0 L 100,0 L 100,8 L 0,8 z" fill="transparent" stroke="none" transform="matrix(1, 0, 0, 1, 0, 92)"/></g><g transform="matrix(1, 0, 0, 1, 624, 481)"><path d="M 0,0 L 100,0 L 100,100 L 0,100 z" fill="#787878" stroke="none" transform="matrix(1, 0, 0, 1, 0, 0)"/><image x="0" y="0" width="40" height="40" xlink:href="http://localhost/monitoring//assets/topology/ap.svg" preserveAspectRatio="none" transform="matrix(1, 0, 0, 1, 25, 25) scale(1.25, 1.25)"/><path d="M 0,0 L 100,0 L 100,8 L 0,8 z" fill="transparent" stroke="none" transform="matrix(1, 0, 0, 1, 0, 0)"/><path d="M 0,0 L 8,0 L 8,100 L 0,100 z" fill="transparent" stroke="none" transform="matrix(1, 0, 0, 1, 0, 0)"/><path d="M 0,0 L 8,0 L 8,100 L 0,100 z" fill="transparent" stroke="none" transform="matrix(1, 0, 0, 1, 92, 0)"/><path d="M 0,0 L 100,0 L 100,8 L 0,8 z" fill="transparent" stroke="none" transform="matrix(1, 0, 0, 1, 0, 92)"/></g><g transform="matrix(1, 0, 0, 1, 625, 553)"><path d="M 0,0 L 100,0 L 100,100 L 0,100 z" fill="#787878" stroke="none" transform="matrix(1, 0, 0, 1, 0, 0)"/><image x="0" y="0" width="40" height="40" xlink:href="http://localhost/monitoring//assets/topology/ap.svg" preserveAspectRatio="none" transform="matrix(1, 0, 0, 1, 25, 25) scale(1.25, 1.25)"/><path d="M 0,0 L 100,0 L 100,8 L 0,8 z" fill="transparent" stroke="none" transform="matrix(1, 0, 0, 1, 0, 0)"/><path d="M 0,0 L 8,0 L 8,100 L 0,100 z" fill="transparent" stroke="none" transform="matrix(1, 0, 0, 1, 0, 0)"/><path d="M 0,0 L 8,0 L 8,100 L 0,100 z" fill="transparent" stroke="none" transform="matrix(1, 0, 0, 1, 92, 0)"/><path d="M 0,0 L 100,0 L 100,8 L 0,8 z" fill="transparent" stroke="none" transform="matrix(1, 0, 0, 1, 0, 92)"/></g><g transform="matrix(1, 0, 0, 1, 624, 626)"><path d="M 0,0 L 100,0 L 100,100 L 0,100 z" fill="#787878" stroke="none" transform="matrix(1, 0, 0, 1, 0, 0)"/><image x="0" y="0" width="40" height="40" xlink:href="http://localhost/monitoring//assets/topology/ap.svg" preserveAspectRatio="none" transform="matrix(1, 0, 0, 1, 25, 25) scale(1.25, 1.25)"/><path d="M 0,0 L 100,0 L 100,8 L 0,8 z" fill="transparent" stroke="none" transform="matrix(1, 0, 0, 1, 0, 0)"/><path d="M 0,0 L 8,0 L 8,100 L 0,100 z" fill="transparent" stroke="none" transform="matrix(1, 0, 0, 1, 0, 0)"/><path d="M 0,0 L 8,0 L 8,100 L 0,100 z" fill="transparent" stroke="none" transform="matrix(1, 0, 0, 1, 92, 0)"/><path d="M 0,0 L 100,0 L 100,8 L 0,8 z" fill="transparent" stroke="none" transform="matrix(1, 0, 0, 1, 0, 92)"/></g><g transform="matrix(1, 0, 0, 1, 622, 699)"><path d="M 0,0 L 100,0 L 100,100 L 0,100 z" fill="#787878" stroke="none" transform="matrix(1, 0, 0, 1, 0, 0)"/><image x="0" y="0" width="40" height="40" xlink:href="http://localhost/monitoring//assets/topology/ap.svg" preserveAspectRatio="none" transform="matrix(1, 0, 0, 1, 25, 25) scale(1.25, 1.25)"/><path d="M 0,0 L 100,0 L 100,8 L 0,8 z" fill="transparent" stroke="none" transform="matrix(1, 0, 0, 1, 0, 0)"/><path d="M 0,0 L 8,0 L 8,100 L 0,100 z" fill="transparent" stroke="none" transform="matrix(1, 0, 0, 1, 0, 0)"/><path d="M 0,0 L 8,0 L 8,100 L 0,100 z" fill="transparent" stroke="none" transform="matrix(1, 0, 0, 1, 92, 0)"/><path d="M 0,0 L 100,0 L 100,8 L 0,8 z" fill="transparent" stroke="none" transform="matrix(1, 0, 0, 1, 0, 92)"/></g><g transform="matrix(1, 0, 0, 1, 631, 976)"><path d="M 0,0 L 100,0 L 100,100 L 0,100 z" fill="#787878" stroke="none" transform="matrix(1, 0, 0, 1, 0, 0)"/><image x="0" y="0" width="40" height="40" xlink:href="http://localhost/monitoring//assets/topology/ap.svg" preserveAspectRatio="none" transform="matrix(1, 0, 0, 1, 25, 25) scale(1.25, 1.25)"/><path d="M 0,0 L 100,0 L 100,8 L 0,8 z" fill="transparent" stroke="none" transform="matrix(1, 0, 0, 1, 0, 0)"/><path d="M 0,0 L 8,0 L 8,100 L 0,100 z" fill="transparent" stroke="none" transform="matrix(1, 0, 0, 1, 0, 0)"/><path d="M 0,0 L 8,0 L 8,100 L 0,100 z" fill="transparent" stroke="none" transform="matrix(1, 0, 0, 1, 92, 0)"/><path d="M 0,0 L 100,0 L 100,8 L 0,8 z" fill="transparent" stroke="none" transform="matrix(1, 0, 0, 1, 0, 92)"/></g><g transform="matrix(1, 0, 0, 1, 765, 922)"><path d="M 0,0 L 100,0 L 100,100 L 0,100 z" fill="#787878" stroke="none" transform="matrix(1, 0, 0, 1, 0, 0)"/><image x="0" y="0" width="96" height="97" xlink:href="http://localhost/monitoring//assets/topology/router.svg" preserveAspectRatio="none" transform="matrix(1, 0, 0, 1, 15, 15) scale(0.7291666666666666, 0.7216494845360825)"/><path d="M 0,0 L 100,0 L 100,8 L 0,8 z" fill="transparent" stroke="none" transform="matrix(1, 0, 0, 1, 0, 0)"/><path d="M 0,0 L 8,0 L 8,100 L 0,100 z" fill="transparent" stroke="none" transform="matrix(1, 0, 0, 1, 0, 0)"/><path d="M 0,0 L 8,0 L 8,100 L 0,100 z" fill="transparent" stroke="none" transform="matrix(1, 0, 0, 1, 92, 0)"/><path d="M 0,0 L 100,0 L 100,8 L 0,8 z" fill="transparent" stroke="none" transform="matrix(1, 0, 0, 1, 0, 92)"/></g><g transform="matrix(1, 0, 0, 1, 765, 1068)"><path d="M 0,0 L 100,0 L 100,100 L 0,100 z" fill="#787878" stroke="none" transform="matrix(1, 0, 0, 1, 0, 0)"/><image x="0" y="0" width="85" height="59" xlink:href="http://localhost/monitoring//assets/topology/unswitch.svg" preserveAspectRatio="none" transform="matrix(1, 0, 0, 1, 15, 15) scale(0.8235294117647058, 1.1864406779661016)"/><path d="M 0,0 L 100,0 L 100,8 L 0,8 z" fill="transparent" stroke="none" transform="matrix(1, 0, 0, 1, 0, 0)"/><path d="M 0,0 L 8,0 L 8,100 L 0,100 z" fill="transparent" stroke="none" transform="matrix(1, 0, 0, 1, 0, 0)"/><path d="M 0,0 L 8,0 L 8,100 L 0,100 z" fill="transparent" stroke="none" transform="matrix(1, 0, 0, 1, 92, 0)"/><path d="M 0,0 L 100,0 L 100,8 L 0,8 z" fill="transparent" stroke="none" transform="matrix(1, 0, 0, 1, 0, 92)"/></g><g transform="matrix(1, 0, 0, 1, 1099, 922)"><path d="M 0,0 L 100,0 L 100,100 L 0,100 z" fill="#787878" stroke="none" transform="matrix(1, 0, 0, 1, 0, 0)"/><image x="0" y="0" width="96" height="97" xlink:href="http://localhost/monitoring//assets/topology/router.svg" preserveAspectRatio="none" transform="matrix(1, 0, 0, 1, 15, 15) scale(0.7291666666666666, 0.7216494845360825)"/><path d="M 0,0 L 100,0 L 100,8 L 0,8 z" fill="transparent" stroke="none" transform="matrix(1, 0, 0, 1, 0, 0)"/><path d="M 0,0 L 8,0 L 8,100 L 0,100 z" fill="transparent" stroke="none" transform="matrix(1, 0, 0, 1, 0, 0)"/><path d="M 0,0 L 8,0 L 8,100 L 0,100 z" fill="transparent" stroke="none" transform="matrix(1, 0, 0, 1, 92, 0)"/><path d="M 0,0 L 100,0 L 100,8 L 0,8 z" fill="transparent" stroke="none" transform="matrix(1, 0, 0, 1, 0, 92)"/></g><g transform="matrix(1, 0, 0, 1, 968, 1057)"><path d="M 0,0 L 100,0 L 100,100 L 0,100 z" fill="#787878" stroke="none" transform="matrix(1, 0, 0, 1, 0, 0)"/><image x="0" y="0" width="40" height="40" xlink:href="http://localhost/monitoring//assets/topology/ap.svg" preserveAspectRatio="none" transform="matrix(1, 0, 0, 1, 25, 25) scale(1.25, 1.25)"/><path d="M 0,0 L 100,0 L 100,8 L 0,8 z" fill="transparent" stroke="none" transform="matrix(1, 0, 0, 1, 0, 0)"/><path d="M 0,0 L 8,0 L 8,100 L 0,100 z" fill="transparent" stroke="none" transform="matrix(1, 0, 0, 1, 0, 0)"/><path d="M 0,0 L 8,0 L 8,100 L 0,100 z" fill="transparent" stroke="none" transform="matrix(1, 0, 0, 1, 92, 0)"/><path d="M 0,0 L 100,0 L 100,8 L 0,8 z" fill="transparent" stroke="none" transform="matrix(1, 0, 0, 1, 0, 92)"/></g><g transform="matrix(1, 0, 0, 1, 273, 1177)"><path d="M 0,0 L 100,0 L 100,100 L 0,100 z" fill="#787878" stroke="none" transform="matrix(1, 0, 0, 1, 0, 0)"/><image x="0" y="0" width="96" height="97" xlink:href="http://localhost/monitoring//assets/topology/router.svg" preserveAspectRatio="none" transform="matrix(1, 0, 0, 1, 15, 15) scale(0.7291666666666666, 0.7216494845360825)"/><path d="M 0,0 L 100,0 L 100,8 L 0,8 z" fill="transparent" stroke="none" transform="matrix(1, 0, 0, 1, 0, 0)"/><path d="M 0,0 L 8,0 L 8,100 L 0,100 z" fill="transparent" stroke="none" transform="matrix(1, 0, 0, 1, 0, 0)"/><path d="M 0,0 L 8,0 L 8,100 L 0,100 z" fill="transparent" stroke="none" transform="matrix(1, 0, 0, 1, 92, 0)"/><path d="M 0,0 L 100,0 L 100,8 L 0,8 z" fill="transparent" stroke="none" transform="matrix(1, 0, 0, 1, 0, 92)"/></g><g transform="matrix(1, 0, 0, 1, 271, 1022)"><path d="M 0,0 L 100,0 L 100,100 L 0,100 z" fill="#787878" stroke="none" transform="matrix(1, 0, 0, 1, 0, 0)"/><image x="0" y="0" width="96" height="97" xlink:href="http://localhost/monitoring//assets/topology/router.svg" preserveAspectRatio="none" transform="matrix(1, 0, 0, 1, 15, 15) scale(0.7291666666666666, 0.7216494845360825)"/><path d="M 0,0 L 100,0 L 100,8 L 0,8 z" fill="transparent" stroke="none" transform="matrix(1, 0, 0, 1, 0, 0)"/><path d="M 0,0 L 8,0 L 8,100 L 0,100 z" fill="transparent" stroke="none" transform="matrix(1, 0, 0, 1, 0, 0)"/><path d="M 0,0 L 8,0 L 8,100 L 0,100 z" fill="transparent" stroke="none" transform="matrix(1, 0, 0, 1, 92, 0)"/><path d="M 0,0 L 100,0 L 100,8 L 0,8 z" fill="transparent" stroke="none" transform="matrix(1, 0, 0, 1, 0, 92)"/></g><g transform="matrix(1, 0, 0, 1, 658, 1160)"><path d="M 0,0 L 100,0 L 100,100 L 0,100 z" fill="#787878" stroke="none" transform="matrix(1, 0, 0, 1, 0, 0)"/><image x="0" y="0" width="40" height="40" xlink:href="http://localhost/monitoring//assets/topology/ap.svg" preserveAspectRatio="none" transform="matrix(1, 0, 0, 1, 25, 25) scale(1.25, 1.25)"/><path d="M 0,0 L 100,0 L 100,8 L 0,8 z" fill="transparent" stroke="none" transform="matrix(1, 0, 0, 1, 0, 0)"/><path d="M 0,0 L 8,0 L 8,100 L 0,100 z" fill="transparent" stroke="none" transform="matrix(1, 0, 0, 1, 0, 0)"/><path d="M 0,0 L 8,0 L 8,100 L 0,100 z" fill="transparent" stroke="none" transform="matrix(1, 0, 0, 1, 92, 0)"/><path d="M 0,0 L 100,0 L 100,8 L 0,8 z" fill="transparent" stroke="none" transform="matrix(1, 0, 0, 1, 0, 92)"/></g><g transform="matrix(1, 0, 0, 1, 73, 1023)"><path d="M 0,0 L 100,0 L 100,100 L 0,100 z" fill="#787878" stroke="none" transform="matrix(1, 0, 0, 1, 0, 0)"/><image x="0" y="0" width="96" height="97" xlink:href="http://localhost/monitoring//assets/topology/router.svg" preserveAspectRatio="none" transform="matrix(1, 0, 0, 1, 15, 15) scale(0.7291666666666666, 0.7216494845360825)"/><path d="M 0,0 L 100,0 L 100,8 L 0,8 z" fill="transparent" stroke="none" transform="matrix(1, 0, 0, 1, 0, 0)"/><path d="M 0,0 L 8,0 L 8,100 L 0,100 z" fill="transparent" stroke="none" transform="matrix(1, 0, 0, 1, 0, 0)"/><path d="M 0,0 L 8,0 L 8,100 L 0,100 z" fill="transparent" stroke="none" transform="matrix(1, 0, 0, 1, 92, 0)"/><path d="M 0,0 L 100,0 L 100,8 L 0,8 z" fill="transparent" stroke="none" transform="matrix(1, 0, 0, 1, 0, 92)"/></g><g transform="matrix(1, 0, 0, 1, -167, 1020)"><path d="M 0,0 L 100,0 L 100,100 L 0,100 z" fill="#787878" stroke="none" transform="matrix(1, 0, 0, 1, 0, 0)"/><image x="0" y="0" width="96" height="97" xlink:href="http://localhost/monitoring//assets/topology/router.svg" preserveAspectRatio="none" transform="matrix(1, 0, 0, 1, 15, 15) scale(0.7291666666666666, 0.7216494845360825)"/><path d="M 0,0 L 100,0 L 100,8 L 0,8 z" fill="transparent" stroke="none" transform="matrix(1, 0, 0, 1, 0, 0)"/><path d="M 0,0 L 8,0 L 8,100 L 0,100 z" fill="transparent" stroke="none" transform="matrix(1, 0, 0, 1, 0, 0)"/><path d="M 0,0 L 8,0 L 8,100 L 0,100 z" fill="transparent" stroke="none" transform="matrix(1, 0, 0, 1, 92, 0)"/><path d="M 0,0 L 100,0 L 100,8 L 0,8 z" fill="transparent" stroke="none" transform="matrix(1, 0, 0, 1, 0, 92)"/></g><g transform="matrix(1, 0, 0, 1, -167, 1160)"><path d="M 0,0 L 100,0 L 100,100 L 0,100 z" fill="#787878" stroke="none" transform="matrix(1, 0, 0, 1, 0, 0)"/><image x="0" y="0" width="96" height="97" xlink:href="http://localhost/monitoring//assets/topology/router.svg" preserveAspectRatio="none" transform="matrix(1, 0, 0, 1, 15, 15) scale(0.7291666666666666, 0.7216494845360825)"/><path d="M 0,0 L 100,0 L 100,8 L 0,8 z" fill="transparent" stroke="none" transform="matrix(1, 0, 0, 1, 0, 0)"/><path d="M 0,0 L 8,0 L 8,100 L 0,100 z" fill="transparent" stroke="none" transform="matrix(1, 0, 0, 1, 0, 0)"/><path d="M 0,0 L 8,0 L 8,100 L 0,100 z" fill="transparent" stroke="none" transform="matrix(1, 0, 0, 1, 92, 0)"/><path d="M 0,0 L 100,0 L 100,8 L 0,8 z" fill="transparent" stroke="none" transform="matrix(1, 0, 0, 1, 0, 92)"/></g><g transform="matrix(1, 0, 0, 1, -167, 1294)"><path d="M 0,0 L 100,0 L 100,100 L 0,100 z" fill="#787878" stroke="none" transform="matrix(1, 0, 0, 1, 0, 0)"/><image x="0" y="0" width="85" height="59" xlink:href="http://localhost/monitoring//assets/topology/unswitch.svg" preserveAspectRatio="none" transform="matrix(1, 0, 0, 1, 15, 15) scale(0.8235294117647058, 1.1864406779661016)"/><path d="M 0,0 L 100,0 L 100,8 L 0,8 z" fill="transparent" stroke="none" transform="matrix(1, 0, 0, 1, 0, 0)"/><path d="M 0,0 L 8,0 L 8,100 L 0,100 z" fill="transparent" stroke="none" transform="matrix(1, 0, 0, 1, 0, 0)"/><path d="M 0,0 L 8,0 L 8,100 L 0,100 z" fill="transparent" stroke="none" transform="matrix(1, 0, 0, 1, 92, 0)"/><path d="M 0,0 L 100,0 L 100,8 L 0,8 z" fill="transparent" stroke="none" transform="matrix(1, 0, 0, 1, 0, 92)"/></g><g transform="matrix(1, 0, 0, 1, -35, 1205)"><path d="M 0,0 L 100,0 L 100,100 L 0,100 z" fill="#787878" stroke="none" transform="matrix(1, 0, 0, 1, 0, 0)"/><image x="0" y="0" width="40" height="40" xlink:href="http://localhost/monitoring//assets/topology/ap.svg" preserveAspectRatio="none" transform="matrix(1, 0, 0, 1, 25, 25) scale(1.25, 1.25)"/><path d="M 0,0 L 100,0 L 100,8 L 0,8 z" fill="transparent" stroke="none" transform="matrix(1, 0, 0, 1, 0, 0)"/><path d="M 0,0 L 8,0 L 8,100 L 0,100 z" fill="transparent" stroke="none" transform="matrix(1, 0, 0, 1, 0, 0)"/><path d="M 0,0 L 8,0 L 8,100 L 0,100 z" fill="transparent" stroke="none" transform="matrix(1, 0, 0, 1, 92, 0)"/><path d="M 0,0 L 100,0 L 100,8 L 0,8 z" fill="transparent" stroke="none" transform="matrix(1, 0, 0, 1, 0, 92)"/></g><g transform="matrix(1, 0, 0, 1, -33, 1296)"><path d="M 0,0 L 100,0 L 100,100 L 0,100 z" fill="#787878" stroke="none" transform="matrix(1, 0, 0, 1, 0, 0)"/><image x="0" y="0" width="40" height="40" xlink:href="http://localhost/monitoring//assets/topology/ap.svg" preserveAspectRatio="none" transform="matrix(1, 0, 0, 1, 25, 25) scale(1.25, 1.25)"/><path d="M 0,0 L 100,0 L 100,8 L 0,8 z" fill="transparent" stroke="none" transform="matrix(1, 0, 0, 1, 0, 0)"/><path d="M 0,0 L 8,0 L 8,100 L 0,100 z" fill="transparent" stroke="none" transform="matrix(1, 0, 0, 1, 0, 0)"/><path d="M 0,0 L 8,0 L 8,100 L 0,100 z" fill="transparent" stroke="none" transform="matrix(1, 0, 0, 1, 92, 0)"/><path d="M 0,0 L 100,0 L 100,8 L 0,8 z" fill="transparent" stroke="none" transform="matrix(1, 0, 0, 1, 0, 92)"/></g><g transform="matrix(1, 0, 0, 1, -33, 1114)"><path d="M 0,0 L 100,0 L 100,100 L 0,100 z" fill="#787878" stroke="none" transform="matrix(1, 0, 0, 1, 0, 0)"/><image x="0" y="0" width="40" height="40" xlink:href="http://localhost/monitoring//assets/topology/ap.svg" preserveAspectRatio="none" transform="matrix(1, 0, 0, 1, 25, 25) scale(1.25, 1.25)"/><path d="M 0,0 L 100,0 L 100,8 L 0,8 z" fill="transparent" stroke="none" transform="matrix(1, 0, 0, 1, 0, 0)"/><path d="M 0,0 L 8,0 L 8,100 L 0,100 z" fill="transparent" stroke="none" transform="matrix(1, 0, 0, 1, 0, 0)"/><path d="M 0,0 L 8,0 L 8,100 L 0,100 z" fill="transparent" stroke="none" transform="matrix(1, 0, 0, 1, 92, 0)"/><path d="M 0,0 L 100,0 L 100,8 L 0,8 z" fill="transparent" stroke="none" transform="matrix(1, 0, 0, 1, 0, 92)"/></g><g transform="matrix(1, 0, 0, 1, -207.45240020751953, 1020.0622756958007)"><g transform="matrix(1, 0, 0, 1, 0, 0)"><path d="M 0,0 L 170.90480041503906,0 L 170.90480041503906,17.875448608398436 L 0,17.875448608398436 z" fill="#787878" stroke="none" transform="matrix(1, 0, 0, 1, 0, 0)"/><text x="0" y="11.906586456298829" style="font: bold 11pt Lato, Helvetica, Arial, sans-serif" text-anchor="start" fill="#F8F8F8" stroke="none" transform="matrix(1, 0, 0, 1, 1, 1)">Rack Wallmount Evian 3</text></g></g><g transform="matrix(1, 0, 0, 1, 33.414451599121094, 1021.0622756958007)"><g transform="matrix(1, 0, 0, 1, 0, 0)"><path d="M 0,0 L 165.1710968017578,0 L 165.1710968017578,17.875448608398436 L 0,17.875448608398436 z" fill="#787878" stroke="none" transform="matrix(1, 0, 0, 1, 0, 0)"/><text x="0" y="11.906586456298829" style="font: bold 11pt Lato, Helvetica, Arial, sans-serif" text-anchor="start" fill="#F8F8F8" stroke="none" transform="matrix(1, 0, 0, 1, 1, 1)">Rack Wallmount Kantin</text></g></g><g transform="matrix(1, 0, 0, 1, 266.2533950805664, 993.0622756958007)"><g transform="matrix(1, 0, 0, 1, 0, 0)"><path d="M 0,0 L 115.49320983886719,0 L 115.49320983886719,17.875448608398436 L 0,17.875448608398436 z" fill="#787878" stroke="none" transform="matrix(1, 0, 0, 1, 0, 0)"/><text x="0" y="11.906586456298829" style="font: bold 11pt Lato, Helvetica, Arial, sans-serif" text-anchor="start" fill="#F8F8F8" stroke="none" transform="matrix(1, 0, 0, 1, 1, 1)">Rack Wallmount</text></g></g><g transform="matrix(1, 0, 0, 1, 255.4237518310547, 1014.0622756958007)"><g transform="matrix(1, 0, 0, 1, 0, 0)"><path d="M 0,0 L 133.15249633789062,0 L 133.15249633789062,17.875448608398436 L 0,17.875448608398436 z" fill="#787878" stroke="none" transform="matrix(1, 0, 0, 1, 0, 0)"/><text x="0" y="11.906586456298829" style="font: bold 11pt Lato, Helvetica, Arial, sans-serif" text-anchor="start" fill="#F8F8F8" stroke="none" transform="matrix(1, 0, 0, 1, 1, 1)">Rumah Sumber 1A</text></g></g><g transform="matrix(1, 0, 0, 1, 259.2533950805664, 1148.0622756958007)"><g transform="matrix(1, 0, 0, 1, 0, 0)"><path d="M 0,0 L 115.49320983886719,0 L 115.49320983886719,17.875448608398436 L 0,17.875448608398436 z" fill="#787878" stroke="none" transform="matrix(1, 0, 0, 1, 0, 0)"/><text x="0" y="11.906586456298829" style="font: bold 11pt Lato, Helvetica, Arial, sans-serif" text-anchor="start" fill="#F8F8F8" stroke="none" transform="matrix(1, 0, 0, 1, 1, 1)">Rack Wallmount</text></g></g><g transform="matrix(1, 0, 0, 1, 253.4237518310547, 1166.0622756958007)"><g transform="matrix(1, 0, 0, 1, 0, 0)"><path d="M 0,0 L 133.15249633789062,0 L 133.15249633789062,17.875448608398436 L 0,17.875448608398436 z" fill="#787878" stroke="none" transform="matrix(1, 0, 0, 1, 0, 0)"/><text x="0" y="11.906586456298829" style="font: bold 11pt Lato, Helvetica, Arial, sans-serif" text-anchor="start" fill="#F8F8F8" stroke="none" transform="matrix(1, 0, 0, 1, 1, 1)">Rumah Sumber 1B</text></g></g><g transform="matrix(1, 0, 0, 1, 478.1503143310547, 907.0622756958007)"><g transform="matrix(1, 0, 0, 1, 0, 0)"><path d="M 0,0 L 111.69937133789062,0 L 111.69937133789062,17.875448608398436 L 0,17.875448608398436 z" fill="#787878" stroke="none" transform="matrix(1, 0, 0, 1, 0, 0)"/><text x="0" y="11.906586456298829" style="font: bold 11pt Lato, Helvetica, Arial, sans-serif" text-anchor="start" fill="#F8F8F8" stroke="none" transform="matrix(1, 0, 0, 1, 1, 1)">SERVER ROOM</text></g></g><g transform="matrix(1, 0, 0, 1, 504.11739349365234, 924.0622756958007)"><g transform="matrix(1, 0, 0, 1, 0, 0)"><path d="M 0,0 L 55.76521301269531,0 L 55.76521301269531,17.875448608398436 L 0,17.875448608398436 z" fill="#787878" stroke="none" transform="matrix(1, 0, 0, 1, 0, 0)"/><text x="0" y="11.906586456298829" style="font: bold 11pt Lato, Helvetica, Arial, sans-serif" text-anchor="start" fill="#F8F8F8" stroke="none" transform="matrix(1, 0, 0, 1, 1, 1)">AREA 2</text></g></g><g transform="matrix(1, 0, 0, 1, 752.2533950805664, 900.0622756958007)"><g transform="matrix(1, 0, 0, 1, 0, 0)"><path d="M 0,0 L 115.49320983886719,0 L 115.49320983886719,17.875448608398436 L 0,17.875448608398436 z" fill="#787878" stroke="none" transform="matrix(1, 0, 0, 1, 0, 0)"/><text x="0" y="11.906586456298829" style="font: bold 11pt Lato, Helvetica, Arial, sans-serif" text-anchor="start" fill="#F8F8F8" stroke="none" transform="matrix(1, 0, 0, 1, 1, 1)">Rack Wallmount</text></g></g><g transform="matrix(1, 0, 0, 1, 735.594856262207, 919.0622756958007)"><g transform="matrix(1, 0, 0, 1, 0, 0)"><path d="M 0,0 L 156.81028747558594,0 L 156.81028747558594,17.875448608398436 L 0,17.875448608398436 z" fill="#787878" stroke="none" transform="matrix(1, 0, 0, 1, 0, 0)"/><text x="0" y="11.906586456298829" style="font: bold 11pt Lato, Helvetica, Arial, sans-serif" text-anchor="start" fill="#F8F8F8" stroke="none" transform="matrix(1, 0, 0, 1, 1, 1)">Data entry HOD area 2</text></g></g><g transform="matrix(1, 0, 0, 1, 1084.2533950805664, 895.0622756958007)"><g transform="matrix(1, 0, 0, 1, 0, 0)"><path d="M 0,0 L 115.49320983886719,0 L 115.49320983886719,17.875448608398436 L 0,17.875448608398436 z" fill="#787878" stroke="none" transform="matrix(1, 0, 0, 1, 0, 0)"/><text x="0" y="11.906586456298829" style="font: bold 11pt Lato, Helvetica, Arial, sans-serif" text-anchor="start" fill="#F8F8F8" stroke="none" transform="matrix(1, 0, 0, 1, 1, 1)">Rack Wallmount</text></g></g><g transform="matrix(1, 0, 0, 1, 1080.7172393798828, 920.0622756958007)"><g transform="matrix(1, 0, 0, 1, 0, 0)"><path d="M 0,0 L 122.56552124023438,0 L 122.56552124023438,17.875448608398436 L 0,17.875448608398436 z" fill="#787878" stroke="none" transform="matrix(1, 0, 0, 1, 0, 0)"/><text x="0" y="11.906586456298829" style="font: bold 11pt Lato, Helvetica, Arial, sans-serif" text-anchor="start" fill="#F8F8F8" stroke="none" transform="matrix(1, 0, 0, 1, 1, 1)">Rumah Sumber 2</text></g></g><g transform="matrix(1, 0, 0, 1, -226, 391)"><path d="M 0,0 L 93,0" fill="none" stroke="transparent" stroke-width="8" stroke-linecap="butt" stroke-linejoin="miter" stroke-miterlimit="10" transform="matrix(1, 0, 0, 1, 4, 4)"/><path d="M 0,0 L 93,0" fill="none" stroke="#0F52BA" stroke-width="2" stroke-linecap="butt" stroke-linejoin="miter" stroke-miterlimit="10" transform="matrix(1, 0, 0, 1, 4, 4)"/><path d="M 0,0 L 8,4 L 0,8 L 2,4 z" fill="#0F52BA" stroke="none" transform="matrix(1, 0, 0, 1, 93, 0)"/></g><g transform="matrix(1, 0, 0, 1, -225, 530)"><path d="M 0,0 L 94,0" fill="none" stroke="transparent" stroke-width="8" stroke-linecap="butt" stroke-linejoin="miter" stroke-miterlimit="10" transform="matrix(1, 0, 0, 1, 4, 4)"/><path d="M 0,0 L 94,0" fill="none" stroke="#0F52BA" stroke-width="2" stroke-linecap="butt" stroke-linejoin="miter" stroke-miterlimit="10" transform="matrix(1, 0, 0, 1, 4, 4)"/><path d="M 0,0 L 8,4 L 0,8 L 2,4 z" fill="#0F52BA" stroke="none" transform="matrix(1, 0, 0, 1, 94, 0)"/></g><g transform="matrix(1, 0, 0, 1, -27, 391)"><path d="M 0,139 L 42.5,139 Q 47.5,139 47.5,134 L 47.5,5 Q 47.5,0 52.5,0 L 91,0" fill="none" stroke="transparent" stroke-width="8" stroke-linecap="butt" stroke-linejoin="miter" stroke-miterlimit="10" transform="matrix(1, 0, 0, 1, 4, 4)"/><path d="M 0,139 L 42.5,139 Q 47.5,139 47.5,134 L 47.5,5 Q 47.5,0 52.5,0 L 91,0" fill="none" stroke="#0F52BA" stroke-width="2" stroke-linecap="butt" stroke-linejoin="miter" stroke-miterlimit="10" transform="matrix(1, 0, 0, 1, 4, 4)"/><path d="M 0,0 L 8,4 L 0,8 L 2,4 z" fill="#0F52BA" stroke="none" transform="matrix(1, 0, 0, 1, 91, 0)"/></g><g transform="matrix(1, 0, 0, 1, -29, 391)"><path d="M 0,0 L 93,0" fill="none" stroke="transparent" stroke-width="8" stroke-linecap="butt" stroke-linejoin="miter" stroke-miterlimit="10" transform="matrix(1, 0, 0, 1, 4, 4)"/><path d="M 0,0 L 93,0" fill="none" stroke="#0F52BA" stroke-width="2" stroke-linecap="butt" stroke-linejoin="miter" stroke-miterlimit="10" transform="matrix(1, 0, 0, 1, 4, 4)"/><path d="M 0,0 L 8,4 L 0,8 L 2,4 z" fill="#0F52BA" stroke="none" transform="matrix(1, 0, 0, 1, 93, 0)"/></g><g transform="matrix(1, 0, 0, 1, 118, 441)"><path d="M 0,0 L 0,57" fill="none" stroke="transparent" stroke-width="8" stroke-linecap="butt" stroke-linejoin="miter" stroke-miterlimit="10" transform="matrix(1, 0, 0, 1, 4, 4)"/><path d="M 0,0 L 0,57" fill="none" stroke="#0F52BA" stroke-width="2" stroke-linecap="butt" stroke-linejoin="miter" stroke-miterlimit="10" transform="matrix(1, 0, 0, 1, 4, 4)"/><path d="M 0,0 L 8,4 L 0,8 L 2,4 z" fill="#0F52BA" stroke="none" transform="matrix(0, 1, -1, 0, 8, 57)"/></g><g transform="matrix(1, 0, 0, 1, 58, 552)"><path d="M 10,0 L 5,0 Q 0,0 0,5 L 0,90 Q 0,95 5,95 L 34,95" fill="none" stroke="transparent" stroke-width="8" stroke-linecap="butt" stroke-linejoin="miter" stroke-miterlimit="10" transform="matrix(1, 0, 0, 1, 4, 4)"/><path d="M 10,0 L 5,0 Q 0,0 0,5 L 0,90 Q 0,95 5,95 L 34,95" fill="none" stroke="#0F52BA" stroke-width="2" stroke-linecap="butt" stroke-linejoin="miter" stroke-miterlimit="10" transform="matrix(1, 0, 0, 1, 4, 4)"/><path d="M 0,0 L 8,4 L 0,8 L 2,4 z" fill="#0F52BA" stroke="none" transform="matrix(1, 0, 0, 1, 34, 95)"/></g><g transform="matrix(1, 0, 0, 1, 58, 552)"><path d="M 10,0 L 5,0 Q 0,0 0,5 L 0,177 Q 0,182 5,182 L 32,182" fill="none" stroke="transparent" stroke-width="8" stroke-linecap="butt" stroke-linejoin="miter" stroke-miterlimit="10" transform="matrix(1, 0, 0, 1, 4, 4)"/><path d="M 10,0 L 5,0 Q 0,0 0,5 L 0,177 Q 0,182 5,182 L 32,182" fill="none" stroke="#0F52BA" stroke-width="2" stroke-linecap="butt" stroke-linejoin="miter" stroke-miterlimit="10" transform="matrix(1, 0, 0, 1, 4, 4)"/><path d="M 0,0 L 8,4 L 0,8 L 2,4 z" fill="#0F52BA" stroke="none" transform="matrix(1, 0, 0, 1, 32, 182)"/></g><g transform="matrix(1, 0, 0, 1, 58, 552)"><path d="M 10,0 L 5,0 Q 0,0 0,5 L 0,274 Q 0,279 5,279 L 37,279" fill="none" stroke="transparent" stroke-width="8" stroke-linecap="butt" stroke-linejoin="miter" stroke-miterlimit="10" transform="matrix(1, 0, 0, 1, 4, 4)"/><path d="M 10,0 L 5,0 Q 0,0 0,5 L 0,274 Q 0,279 5,279 L 37,279" fill="none" stroke="#0F52BA" stroke-width="2" stroke-linecap="butt" stroke-linejoin="miter" stroke-miterlimit="10" transform="matrix(1, 0, 0, 1, 4, 4)"/><path d="M 0,0 L 8,4 L 0,8 L 2,4 z" fill="#0F52BA" stroke="none" transform="matrix(1, 0, 0, 1, 37, 279)"/></g><g transform="matrix(1, 0, 0, 1, 168, 463)"><path d="M 0,89 L 55,89 Q 60,89 60,84 L 60,5 Q 60,0 65,0 L 116,0" fill="none" stroke="transparent" stroke-width="8" stroke-linecap="butt" stroke-linejoin="miter" stroke-miterlimit="10" transform="matrix(1, 0, 0, 1, 4, 4)"/><path d="M 0,89 L 55,89 Q 60,89 60,84 L 60,5 Q 60,0 65,0 L 116,0" fill="none" stroke="#0F52BA" stroke-width="2" stroke-linecap="butt" stroke-linejoin="miter" stroke-miterlimit="10" transform="matrix(1, 0, 0, 1, 4, 4)"/><path d="M 0,0 L 8,4 L 0,8 L 2,4 z" fill="#0F52BA" stroke="none" transform="matrix(1, 0, 0, 1, 116, 0)"/></g><g transform="matrix(1, 0, 0, 1, 168, 552)"><path d="M 0,0 L 117,0" fill="none" stroke="transparent" stroke-width="8" stroke-linecap="butt" stroke-linejoin="miter" stroke-miterlimit="10" transform="matrix(1, 0, 0, 1, 4, 4)"/><path d="M 0,0 L 117,0" fill="none" stroke="#0F52BA" stroke-width="2" stroke-linecap="butt" stroke-linejoin="miter" stroke-miterlimit="10" transform="matrix(1, 0, 0, 1, 4, 4)"/><path d="M 0,0 L 8,4 L 0,8 L 2,4 z" fill="#0F52BA" stroke="none" transform="matrix(1, 0, 0, 1, 117, 0)"/></g><g transform="matrix(1, 0, 0, 1, 196, 647)"><path d="M 0,0 L 93,0" fill="none" stroke="transparent" stroke-width="8" stroke-linecap="butt" stroke-linejoin="miter" stroke-miterlimit="10" transform="matrix(1, 0, 0, 1, 4, 4)"/><path d="M 0,0 L 93,0" fill="none" stroke="#0F52BA" stroke-width="2" stroke-linecap="butt" stroke-linejoin="miter" stroke-miterlimit="10" transform="matrix(1, 0, 0, 1, 4, 4)"/><path d="M 0,0 L 8,4 L 0,8 L 2,4 z" fill="#0F52BA" stroke="none" transform="matrix(1, 0, 0, 1, 93, 0)"/></g><g transform="matrix(1, 0, 0, 1, 199, 745)"><path d="M 0,86 L 42.5,86 Q 47.5,86 47.5,81 L 47.5,5 Q 47.5,0 52.5,0 L 91,0" fill="none" stroke="transparent" stroke-width="8" stroke-linecap="butt" stroke-linejoin="miter" stroke-miterlimit="10" transform="matrix(1, 0, 0, 1, 4, 4)"/><path d="M 0,86 L 42.5,86 Q 47.5,86 47.5,81 L 47.5,5 Q 47.5,0 52.5,0 L 91,0" fill="none" stroke="#0F52BA" stroke-width="2" stroke-linecap="butt" stroke-linejoin="miter" stroke-miterlimit="10" transform="matrix(1, 0, 0, 1, 4, 4)"/><path d="M 0,0 L 8,4 L 0,8 L 2,4 z" fill="#0F52BA" stroke="none" transform="matrix(1, 0, 0, 1, 91, 0)"/></g><g transform="matrix(1, 0, 0, 1, 199, 831)"><path d="M 0,0 L 90,0" fill="none" stroke="transparent" stroke-width="8" stroke-linecap="butt" stroke-linejoin="miter" stroke-miterlimit="10" transform="matrix(1, 0, 0, 1, 4, 4)"/><path d="M 0,0 L 90,0" fill="none" stroke="#0F52BA" stroke-width="2" stroke-linecap="butt" stroke-linejoin="miter" stroke-miterlimit="10" transform="matrix(1, 0, 0, 1, 4, 4)"/><path d="M 0,0 L 8,4 L 0,8 L 2,4 z" fill="#0F52BA" stroke="none" transform="matrix(1, 0, 0, 1, 90, 0)"/></g><g transform="matrix(1, 0, 0, 1, 168, 391)"><path d="M 0,0 L 268,0 Q 273,0 273,5 L 273,848 Q 273,853 278,853 L 305,853" fill="none" stroke="transparent" stroke-width="8" stroke-linecap="butt" stroke-linejoin="miter" stroke-miterlimit="10" transform="matrix(1, 0, 0, 1, 4, 4)"/><path d="M 0,0 L 268,0 Q 273,0 273,5 L 273,848 Q 273,853 278,853 L 305,853" fill="none" stroke="#0F52BA" stroke-width="2" stroke-linecap="butt" stroke-linejoin="miter" stroke-miterlimit="10" transform="matrix(1, 0, 0, 1, 4, 4)"/><path d="M 0,0 L 8,4 L 0,8 L 2,4 z" fill="#0F52BA" stroke="none" transform="matrix(1, 0, 0, 1, 305, 853)"/></g><g transform="matrix(1, 0, 0, 1, 456.5, 393)"><path d="M 63,901 L 63,906 Q 63,911 58,911 L 5,911 Q 0,911 0,906 L 0,856 C -10,856 -10,846 0,846 L 0,5 Q 0,0 5,0 L 12,0" fill="none" stroke="transparent" stroke-width="8" stroke-linecap="butt" stroke-linejoin="miter" stroke-miterlimit="10" transform="matrix(1, 0, 0, 1, 11.5, 4)"/><path d="M 63,901 L 63,906 Q 63,911 58,911 L 5,911 Q 0,911 0,906 L 0,856 C -10,856 -10,846 0,846 L 0,5 Q 0,0 5,0 L 12,0" fill="none" stroke="#0F52BA" stroke-width="2" stroke-linecap="butt" stroke-linejoin="miter" stroke-miterlimit="10" transform="matrix(1, 0, 0, 1, 11.5, 4)"/><path d="M 0,0 L 8,4 L 0,8 L 2,4 z" fill="#0F52BA" stroke="none" transform="matrix(1, 0, 0, 1, 19.5, 0)"/></g><g transform="matrix(1, 0, 0, 1, 530, 443)"><path d="M 0,0 L 0,47" fill="none" stroke="transparent" stroke-width="8" stroke-linecap="butt" stroke-linejoin="miter" stroke-miterlimit="10" transform="matrix(1, 0, 0, 1, 4, 4)"/><path d="M 0,0 L 0,47" fill="none" stroke="#0F52BA" stroke-width="2" stroke-linecap="butt" stroke-linejoin="miter" stroke-miterlimit="10" transform="matrix(1, 0, 0, 1, 4, 4)"/><path d="M 0,0 L 8,4 L 0,8 L 2,4 z" fill="#0F52BA" stroke="none" transform="matrix(0, 1, -1, 0, 8, 47)"/></g><g transform="matrix(1, 0, 0, 1, 530, 594)"><path d="M 0,0 L 0,42" fill="none" stroke="transparent" stroke-width="8" stroke-linecap="butt" stroke-linejoin="miter" stroke-miterlimit="10" transform="matrix(1, 0, 0, 1, 4, 4)"/><path d="M 0,0 L 0,42" fill="none" stroke="#0F52BA" stroke-width="2" stroke-linecap="butt" stroke-linejoin="miter" stroke-miterlimit="10" transform="matrix(1, 0, 0, 1, 4, 4)"/><path d="M 0,0 L 8,4 L 0,8 L 2,4 z" fill="#0F52BA" stroke="none" transform="matrix(0, 1, -1, 0, 8, 42)"/></g><g transform="matrix(1, 0, 0, 1, 580, 393)"><path d="M 0,0 L 140,0" fill="none" stroke="transparent" stroke-width="8" stroke-linecap="butt" stroke-linejoin="miter" stroke-miterlimit="10" transform="matrix(1, 0, 0, 1, 4, 4)"/><path d="M 0,0 L 140,0" fill="none" stroke="#0F52BA" stroke-width="2" stroke-linecap="butt" stroke-linejoin="miter" stroke-miterlimit="10" transform="matrix(1, 0, 0, 1, 4, 4)"/><path d="M 0,0 L 8,4 L 0,8 L 2,4 z" fill="#0F52BA" stroke="none" transform="matrix(1, 0, 0, 1, 140, 0)"/></g><g transform="matrix(1, 0, 0, 1, 580, 453)"><path d="M 0,91 L 15.5,91 Q 20.5,91 20.5,86 L 20.5,5 Q 20.5,0 25.5,0 L 37,0" fill="none" stroke="transparent" stroke-width="8" stroke-linecap="butt" stroke-linejoin="miter" stroke-miterlimit="10" transform="matrix(1, 0, 0, 1, 4, 4)"/><path d="M 0,91 L 15.5,91 Q 20.5,91 20.5,86 L 20.5,5 Q 20.5,0 25.5,0 L 37,0" fill="none" stroke="#0F52BA" stroke-width="2" stroke-linecap="butt" stroke-linejoin="miter" stroke-miterlimit="10" transform="matrix(1, 0, 0, 1, 4, 4)"/><path d="M 0,0 L 8,4 L 0,8 L 2,4 z" fill="#0F52BA" stroke="none" transform="matrix(1, 0, 0, 1, 37, 0)"/></g><g transform="matrix(1, 0, 0, 1, 580, 527)"><path d="M 0,17 L 15,17 Q 20,17 20,12 L 20,5 Q 20,0 25,0 L 36,0" fill="none" stroke="transparent" stroke-width="8" stroke-linecap="butt" stroke-linejoin="miter" stroke-miterlimit="10" transform="matrix(1, 0, 0, 1, 4, 4)"/><path d="M 0,17 L 15,17 Q 20,17 20,12 L 20,5 Q 20,0 25,0 L 36,0" fill="none" stroke="#0F52BA" stroke-width="2" stroke-linecap="butt" stroke-linejoin="miter" stroke-miterlimit="10" transform="matrix(1, 0, 0, 1, 4, 4)"/><path d="M 0,0 L 8,4 L 0,8 L 2,4 z" fill="#0F52BA" stroke="none" transform="matrix(1, 0, 0, 1, 36, 0)"/></g><g transform="matrix(1, 0, 0, 1, 580, 544)"><path d="M 0,0 L 15.5,0 Q 20.5,0 20.5,5 L 20.5,50 Q 20.5,55 25.5,55 L 37,55" fill="none" stroke="transparent" stroke-width="8" stroke-linecap="butt" stroke-linejoin="miter" stroke-miterlimit="10" transform="matrix(1, 0, 0, 1, 4, 4)"/><path d="M 0,0 L 15.5,0 Q 20.5,0 20.5,5 L 20.5,50 Q 20.5,55 25.5,55 L 37,55" fill="none" stroke="#0F52BA" stroke-width="2" stroke-linecap="butt" stroke-linejoin="miter" stroke-miterlimit="10" transform="matrix(1, 0, 0, 1, 4, 4)"/><path d="M 0,0 L 8,4 L 0,8 L 2,4 z" fill="#0F52BA" stroke="none" transform="matrix(1, 0, 0, 1, 37, 55)"/></g><g transform="matrix(1, 0, 0, 1, 580, 544)"><path d="M 0,0 L 15,0 Q 20,0 20,5 L 20,123 Q 20,128 25,128 L 36,128" fill="none" stroke="transparent" stroke-width="8" stroke-linecap="butt" stroke-linejoin="miter" stroke-miterlimit="10" transform="matrix(1, 0, 0, 1, 4, 4)"/><path d="M 0,0 L 15,0 Q 20,0 20,5 L 20,123 Q 20,128 25,128 L 36,128" fill="none" stroke="#0F52BA" stroke-width="2" stroke-linecap="butt" stroke-linejoin="miter" stroke-miterlimit="10" transform="matrix(1, 0, 0, 1, 4, 4)"/><path d="M 0,0 L 8,4 L 0,8 L 2,4 z" fill="#0F52BA" stroke="none" transform="matrix(1, 0, 0, 1, 36, 128)"/></g><g transform="matrix(1, 0, 0, 1, 580, 544)"><path d="M 0,0 L 14,0 Q 19,0 19,5 L 19,196 Q 19,201 24,201 L 34,201" fill="none" stroke="transparent" stroke-width="8" stroke-linecap="butt" stroke-linejoin="miter" stroke-miterlimit="10" transform="matrix(1, 0, 0, 1, 4, 4)"/><path d="M 0,0 L 14,0 Q 19,0 19,5 L 19,196 Q 19,201 24,201 L 34,201" fill="none" stroke="#0F52BA" stroke-width="2" stroke-linecap="butt" stroke-linejoin="miter" stroke-miterlimit="10" transform="matrix(1, 0, 0, 1, 4, 4)"/><path d="M 0,0 L 8,4 L 0,8 L 2,4 z" fill="#0F52BA" stroke="none" transform="matrix(1, 0, 0, 1, 34, 201)"/></g><g transform="matrix(1, 0, 0, 1, 577, 1022)"><path d="M 0,82 L 20,82 Q 25,82 25,77 L 25,5 Q 25,0 30,0 L 46,0" fill="none" stroke="transparent" stroke-width="8" stroke-linecap="butt" stroke-linejoin="miter" stroke-miterlimit="10" transform="matrix(1, 0, 0, 1, 4, 4)"/><path d="M 0,82 L 20,82 Q 25,82 25,77 L 25,5 Q 25,0 30,0 L 46,0" fill="none" stroke="#0F52BA" stroke-width="2" stroke-linecap="butt" stroke-linejoin="miter" stroke-miterlimit="10" transform="matrix(1, 0, 0, 1, 4, 4)"/><path d="M 0,0 L 8,4 L 0,8 L 2,4 z" fill="#0F52BA" stroke="none" transform="matrix(1, 0, 0, 1, 46, 0)"/></g><g transform="matrix(1, 0, 0, 1, 811, 1018)"><path d="M 0,0 L 0,42" fill="none" stroke="transparent" stroke-width="8" stroke-linecap="butt" stroke-linejoin="miter" stroke-miterlimit="10" transform="matrix(1, 0, 0, 1, 4, 4)"/><path d="M 0,0 L 0,42" fill="none" stroke="#0F52BA" stroke-width="2" stroke-linecap="butt" stroke-linejoin="miter" stroke-miterlimit="10" transform="matrix(1, 0, 0, 1, 4, 4)"/><path d="M 0,0 L 8,4 L 0,8 L 2,4 z" fill="#0F52BA" stroke="none" transform="matrix(0, 1, -1, 0, 8, 42)"/></g><g transform="matrix(1, 0, 0, 1, 577, 968)"><path d="M 0,136 L 154,136 Q 159,136 159,131 L 159,5 Q 159,0 164,0 L 180,0" fill="none" stroke="transparent" stroke-width="8" stroke-linecap="butt" stroke-linejoin="miter" stroke-miterlimit="10" transform="matrix(1, 0, 0, 1, 4, 4)"/><path d="M 0,136 L 154,136 Q 159,136 159,131 L 159,5 Q 159,0 164,0 L 180,0" fill="none" stroke="#0F52BA" stroke-width="2" stroke-linecap="butt" stroke-linejoin="miter" stroke-miterlimit="10" transform="matrix(1, 0, 0, 1, 4, 4)"/><path d="M 0,0 L 8,4 L 0,8 L 2,4 z" fill="#0F52BA" stroke="none" transform="matrix(1, 0, 0, 1, 180, 0)"/></g><g transform="matrix(1, 0, 0, 1, 577, 968)"><path d="M 0,2 L 9,2 Q 14,2 14,7 L 14,131 C 4,131 4,141 14,141 L 14,417 Q 14,422 19,422 L 339,422 Q 344,422 344,417 L 344,5 Q 344,0 349,0 L 514,0" fill="none" stroke="transparent" stroke-width="8" stroke-linecap="butt" stroke-linejoin="miter" stroke-miterlimit="10" transform="matrix(1, 0, 0, 1, 4, 4)"/><path d="M 0,2 L 9,2 Q 14,2 14,7 L 14,131 C 4,131 4,141 14,141 L 14,417 Q 14,422 19,422 L 339,422 Q 344,422 344,417 L 344,5 Q 344,0 349,0 L 514,0" fill="none" stroke="#0F52BA" stroke-width="2" stroke-linecap="butt" stroke-linejoin="miter" stroke-miterlimit="10" transform="matrix(1, 0, 0, 1, 4, 4)"/><path d="M 0,0 L 8,4 L 0,8 L 2,4 z" fill="#0F52BA" stroke="none" transform="matrix(1, 0, 0, 1, 514, 0)"/></g><g transform="matrix(1, 0, 0, 1, 527, 1154)"><path d="M 0,40 L 0,4" fill="none" stroke="transparent" stroke-width="8" stroke-linecap="butt" stroke-linejoin="miter" stroke-miterlimit="10" transform="matrix(1, 0, 0, 1, 4, 4)"/><path d="M 0,40 L 0,4" fill="none" stroke="#0F52BA" stroke-width="2" stroke-linecap="butt" stroke-linejoin="miter" stroke-miterlimit="10" transform="matrix(1, 0, 0, 1, 4, 4)"/><path d="M 0,0 L 8,4 L 0,8 L 2,4 z" fill="#0F52BA" stroke="none" transform="matrix(0, -1, 1, 0, 0, 12)"/></g><g transform="matrix(1, 0, 0, 1, 527, 1020)"><path d="M 0,34 L 0,4" fill="none" stroke="transparent" stroke-width="8" stroke-linecap="butt" stroke-linejoin="miter" stroke-miterlimit="10" transform="matrix(1, 0, 0, 1, 4, 4)"/><path d="M 0,34 L 0,4" fill="none" stroke="#0F52BA" stroke-width="2" stroke-linecap="butt" stroke-linejoin="miter" stroke-miterlimit="10" transform="matrix(1, 0, 0, 1, 4, 4)"/><path d="M 0,0 L 8,4 L 0,8 L 2,4 z" fill="#0F52BA" stroke="none" transform="matrix(0, -1, 1, 0, 0, 12)"/></g><g transform="matrix(1, 0, 0, 1, 367, 962.5)"><path d="M 110,0 L 102,0 C 102,-10 92,-10 92,0 L 79,0 C 79,-10 69,-10 69,0 L 60,0 Q 55,0 55,5 L 55,93 Q 55,98 50,98 L 4,98" fill="none" stroke="transparent" stroke-width="8" stroke-linecap="butt" stroke-linejoin="miter" stroke-miterlimit="10" transform="matrix(1, 0, 0, 1, 4, 11.5)"/><path d="M 110,0 L 102,0 C 102,-10 92,-10 92,0 L 79,0 C 79,-10 69,-10 69,0 L 60,0 Q 55,0 55,5 L 55,93 Q 55,98 50,98 L 4,98" fill="none" stroke="#0F52BA" stroke-width="2" stroke-linecap="butt" stroke-linejoin="miter" stroke-miterlimit="10" transform="matrix(1, 0, 0, 1, 4, 11.5)"/><path d="M 0,0 L 8,4 L 0,8 L 2,4 z" fill="#0F52BA" stroke="none" transform="matrix(-1, 0, 0, -1, 12, 113.5)"/></g><g transform="matrix(1, 0, 0, 1, 369, 962.5)"><path d="M 108,0 L 100,0 C 100,-10 90,-10 90,0 L 77,0 C 77,-10 67,-10 67,0 L 59,0 Q 54,0 54,5 L 54,248 Q 54,253 49,253 L 4,253" fill="none" stroke="transparent" stroke-width="8" stroke-linecap="butt" stroke-linejoin="miter" stroke-miterlimit="10" transform="matrix(1, 0, 0, 1, 4, 11.5)"/><path d="M 108,0 L 100,0 C 100,-10 90,-10 90,0 L 77,0 C 77,-10 67,-10 67,0 L 59,0 Q 54,0 54,5 L 54,248 Q 54,253 49,253 L 4,253" fill="none" stroke="#0F52BA" stroke-width="2" stroke-linecap="butt" stroke-linejoin="miter" stroke-miterlimit="10" transform="matrix(1, 0, 0, 1, 4, 11.5)"/><path d="M 0,0 L 8,4 L 0,8 L 2,4 z" fill="#0F52BA" stroke="none" transform="matrix(-1, 0, 0, -1, 12, 268.5)"/></g><g transform="matrix(1, 0, 0, 1, 577, 1206)"><path d="M 0,38 L 9,38 C 9,28 19,28 19,38 L 33.5,38 Q 38.5,38 38.5,33 L 38.5,5 Q 38.5,0 43.5,0 L 73,0" fill="none" stroke="transparent" stroke-width="8" stroke-linecap="butt" stroke-linejoin="miter" stroke-miterlimit="10" transform="matrix(1, 0, 0, 1, 4, 4)"/><path d="M 0,38 L 9,38 C 9,28 19,28 19,38 L 33.5,38 Q 38.5,38 38.5,33 L 38.5,5 Q 38.5,0 43.5,0 L 73,0" fill="none" stroke="#0F52BA" stroke-width="2" stroke-linecap="butt" stroke-linejoin="miter" stroke-miterlimit="10" transform="matrix(1, 0, 0, 1, 4, 4)"/><path d="M 0,0 L 8,4 L 0,8 L 2,4 z" fill="#0F52BA" stroke="none" transform="matrix(1, 0, 0, 1, 73, 0)"/></g><g transform="matrix(1, 0, 0, 1, -121, 1256)"><path d="M 0,0 L 0,30" fill="none" stroke="transparent" stroke-width="8" stroke-linecap="butt" stroke-linejoin="miter" stroke-miterlimit="10" transform="matrix(1, 0, 0, 1, 4, 4)"/><path d="M 0,0 L 0,30" fill="none" stroke="#0F52BA" stroke-width="2" stroke-linecap="butt" stroke-linejoin="miter" stroke-miterlimit="10" transform="matrix(1, 0, 0, 1, 4, 4)"/><path d="M 0,0 L 8,4 L 0,8 L 2,4 z" fill="#0F52BA" stroke="none" transform="matrix(0, 1, -1, 0, 8, 30)"/></g><g transform="matrix(1, 0, 0, 1, -121, 1116)"><path d="M 0,0 L 0,36" fill="none" stroke="transparent" stroke-width="8" stroke-linecap="butt" stroke-linejoin="miter" stroke-miterlimit="10" transform="matrix(1, 0, 0, 1, 4, 4)"/><path d="M 0,0 L 0,36" fill="none" stroke="#0F52BA" stroke-width="2" stroke-linecap="butt" stroke-linejoin="miter" stroke-miterlimit="10" transform="matrix(1, 0, 0, 1, 4, 4)"/><path d="M 0,0 L 8,4 L 0,8 L 2,4 z" fill="#0F52BA" stroke="none" transform="matrix(0, 1, -1, 0, 8, 36)"/></g><g transform="matrix(1, 0, 0, 1, 169, 1069)"><path d="M 408,175 L 417,175 C 417,165 427,165 427,175 L 444,175 Q 449,175 449,180 L 449,266 Q 449,271 444,271 L 427,271 C 427,261 417,261 417,271 L 58,271 Q 53,271 53,266 L 53,5 Q 53,0 48,0 L 4,0" fill="none" stroke="transparent" stroke-width="8" stroke-linecap="butt" stroke-linejoin="miter" stroke-miterlimit="10" transform="matrix(1, 0, 0, 1, 4, 4)"/><path d="M 408,175 L 417,175 C 417,165 427,165 427,175 L 444,175 Q 449,175 449,180 L 449,266 Q 449,271 444,271 L 427,271 C 427,261 417,261 417,271 L 58,271 Q 53,271 53,266 L 53,5 Q 53,0 48,0 L 4,0" fill="none" stroke="#0F52BA" stroke-width="2" stroke-linecap="butt" stroke-linejoin="miter" stroke-miterlimit="10" transform="matrix(1, 0, 0, 1, 4, 4)"/><path d="M 0,0 L 8,4 L 0,8 L 2,4 z" fill="#0F52BA" stroke="none" transform="matrix(-1, 0, 0, -1, 12, 8)"/></g><g transform="matrix(1, 0, 0, 1, -71, 1066)"><path d="M 648,178 L 657,178 C 657,168 667,168 667,178 L 683,178 Q 688,178 688,183 L 688,297 Q 688,302 683,302 L 667,302 C 667,292 657,292 657,302 L 145,302 Q 140,302 140,297 L 140,5 Q 140,0 135,0 L 4,0" fill="none" stroke="transparent" stroke-width="8" stroke-linecap="butt" stroke-linejoin="miter" stroke-miterlimit="10" transform="matrix(1, 0, 0, 1, 4, 4)"/><path d="M 648,178 L 657,178 C 657,168 667,168 667,178 L 683,178 Q 688,178 688,183 L 688,297 Q 688,302 683,302 L 667,302 C 667,292 657,292 657,302 L 145,302 Q 140,302 140,297 L 140,5 Q 140,0 135,0 L 4,0" fill="none" stroke="#0F52BA" stroke-width="2" stroke-linecap="butt" stroke-linejoin="miter" stroke-miterlimit="10" transform="matrix(1, 0, 0, 1, 4, 4)"/><path d="M 0,0 L 8,4 L 0,8 L 2,4 z" fill="#0F52BA" stroke="none" transform="matrix(-1, 0, 0, -1, 12, 8)"/></g><g transform="matrix(1, 0, 0, 1, -71, 1160)"><path d="M 0,46 L 12,46 Q 17,46 17,41 L 17,5 Q 17,0 22,0 L 30,0" fill="none" stroke="transparent" stroke-width="8" stroke-linecap="butt" stroke-linejoin="miter" stroke-miterlimit="10" transform="matrix(1, 0, 0, 1, 4, 4)"/><path d="M 0,46 L 12,46 Q 17,46 17,41 L 17,5 Q 17,0 22,0 L 30,0" fill="none" stroke="#0F52BA" stroke-width="2" stroke-linecap="butt" stroke-linejoin="miter" stroke-miterlimit="10" transform="matrix(1, 0, 0, 1, 4, 4)"/><path d="M 0,0 L 8,4 L 0,8 L 2,4 z" fill="#0F52BA" stroke="none" transform="matrix(1, 0, 0, 1, 30, 0)"/></g><g transform="matrix(1, 0, 0, 1, -71, 1206)"><path d="M 0,0 L 11,0 Q 16,0 16,5 L 16,40 Q 16,45 21,45 L 28,45" fill="none" stroke="transparent" stroke-width="8" stroke-linecap="butt" stroke-linejoin="miter" stroke-miterlimit="10" transform="matrix(1, 0, 0, 1, 4, 4)"/><path d="M 0,0 L 11,0 Q 16,0 16,5 L 16,40 Q 16,45 21,45 L 28,45" fill="none" stroke="#0F52BA" stroke-width="2" stroke-linecap="butt" stroke-linejoin="miter" stroke-miterlimit="10" transform="matrix(1, 0, 0, 1, 4, 4)"/><path d="M 0,0 L 8,4 L 0,8 L 2,4 z" fill="#0F52BA" stroke="none" transform="matrix(1, 0, 0, 1, 28, 45)"/></g><g transform="matrix(1, 0, 0, 1, -71, 1206)"><path d="M 0,0 L 12,0 Q 17,0 17,5 L 17,131 Q 17,136 22,136 L 30,136" fill="none" stroke="transparent" stroke-width="8" stroke-linecap="butt" stroke-linejoin="miter" stroke-miterlimit="10" transform="matrix(1, 0, 0, 1, 4, 4)"/><path d="M 0,0 L 12,0 Q 17,0 17,5 L 17,131 Q 17,136 22,136 L 30,136" fill="none" stroke="#0F52BA" stroke-width="2" stroke-linecap="butt" stroke-linejoin="miter" stroke-miterlimit="10" transform="matrix(1, 0, 0, 1, 4, 4)"/><path d="M 0,0 L 8,4 L 0,8 L 2,4 z" fill="#0F52BA" stroke="none" transform="matrix(1, 0, 0, 1, 30, 136)"/></g><g transform="matrix(1, 0, 0, 1, 861, 968)"><path d="M 0,0 L 30,0 Q 35,0 35,5 L 35,130 Q 35,135 40,135 L 55,135 C 55,125 65,125 65,135 L 99,135" fill="none" stroke="transparent" stroke-width="8" stroke-linecap="butt" stroke-linejoin="miter" stroke-miterlimit="10" transform="matrix(1, 0, 0, 1, 4, 4)"/><path d="M 0,0 L 30,0 Q 35,0 35,5 L 35,130 Q 35,135 40,135 L 55,135 C 55,125 65,125 65,135 L 99,135" fill="none" stroke="#0F52BA" stroke-width="2" stroke-linecap="butt" stroke-linejoin="miter" stroke-miterlimit="10" transform="matrix(1, 0, 0, 1, 4, 4)"/><path d="M 0,0 L 8,4 L 0,8 L 2,4 z" fill="#0F52BA" stroke="none" transform="matrix(1, 0, 0, 1, 99, 135)"/></g></g></g><clipPath id="mainClip2603"><rect x="0" y="0" width="1534px" height="1055px"/></clipPath></svg>