<svg width="1444px" height="841px" viewBox="0 0 1444 841" xmlns="http://www.w3.org/2000/svg" xmlns:xlink="http://www.w3.org/1999/xlink" style="width: 1444px; height: 841px;"><g transform="matrix(1, 0, 0, 1, 0, 0)" clip-path="url(#mainClip2120)"><rect x="0" y="0" width="1444" height="841" fill="#787878" stroke="none" transform="matrix(1, 0, 0, 1, 0, 0)"/><g transform="matrix(1, 0, 0, 1, 329.46099853515625, -344)"><g transform="matrix(1, 0, 0, 1, -322, 345)"><path d="M 0,0 L 100,0 L 100,100 L 0,100 z" fill="#787878" stroke="none" transform="matrix(1, 0, 0, 1, 0, 0)"/><image x="0" y="0" width="41" height="48" xlink:href="http://localhost/monitoring//assets/topology/logo1.svg" preserveAspectRatio="none" transform="matrix(1, 0, 0, 1, 15, 15) scale(1.7073170731707317, 1.4583333333333333)"/><path d="M 0,0 L 100,0 L 100,8 L 0,8 z" fill="transparent" stroke="none" transform="matrix(1, 0, 0, 1, 0, 0)"/><path d="M 0,0 L 8,0 L 8,100 L 0,100 z" fill="transparent" stroke="none" transform="matrix(1, 0, 0, 1, 0, 0)"/><path d="M 0,0 L 8,0 L 8,100 L 0,100 z" fill="transparent" stroke="none" transform="matrix(1, 0, 0, 1, 92, 0)"/><path d="M 0,0 L 100,0 L 100,8 L 0,8 z" fill="transparent" stroke="none" transform="matrix(1, 0, 0, 1, 0, 92)"/></g><g transform="matrix(1, 0, 0, 1, -328.46099853515625, 431.0622756958008)"><g transform="matrix(1, 0, 0, 1, 0, 0)"><path d="M 0,0 L 112.9219970703125,0 L 112.9219970703125,31.875448608398436 L 0,31.875448608398436 z" fill="#282c34" stroke="none" transform="matrix(1, 0, 0, 1, 2, 2)"/><path d="M 0,0 L 112.9219970703125,0 L 112.9219970703125,31.875448608398436 L 0,31.875448608398436 z" fill="none" stroke="#fdfe03" stroke-width="4" stroke-linecap="butt" stroke-linejoin="miter" stroke-miterlimit="10" transform="matrix(1, 0, 0, 1, 2, 2)"/><text x="0" y="11.906586456298829" style="font: bold 11pt Lato, Helvetica, Arial, sans-serif" text-anchor="start" fill="#F8F8F8" stroke="none" transform="matrix(1, 0, 0, 1, 10, 10)">Indosat Radio</text></g><path d="M 0,0 L 116.9219970703125,0 L 116.9219970703125,8 L 0,8 z" fill="transparent" stroke="none" transform="matrix(1, 0, 0, 1, 0, 0)"/><path d="M 0,0 L 8,0 L 8,35.875448608398436 L 0,35.875448608398436 z" fill="transparent" stroke="none" transform="matrix(1, 0, 0, 1, 0, 0)"/><path d="M 0,0 L 8,0 L 8,35.875448608398436 L 0,35.875448608398436 z" fill="transparent" stroke="none" transform="matrix(1, 0, 0, 1, 108.9219970703125, 0)"/><path d="M 0,0 L 116.9219970703125,0 L 116.9219970703125,8 L 0,8 z" fill="transparent" stroke="none" transform="matrix(1, 0, 0, 1, 0, 27.875448608398436)"/></g><g transform="matrix(1, 0, 0, 1, -125, 345)"><path d="M 0,0 L 100,0 L 100,100 L 0,100 z" fill="#787878" stroke="none" transform="matrix(1, 0, 0, 1, 0, 0)"/><image x="0" y="0" width="96" height="97" xlink:href="http://localhost/monitoring//assets/topology/router.svg" preserveAspectRatio="none" transform="matrix(1, 0, 0, 1, 15, 15) scale(0.7291666666666666, 0.7216494845360825)"/><path d="M 0,0 L 100,0 L 100,8 L 0,8 z" fill="transparent" stroke="none" transform="matrix(1, 0, 0, 1, 0, 0)"/><path d="M 0,0 L 8,0 L 8,100 L 0,100 z" fill="transparent" stroke="none" transform="matrix(1, 0, 0, 1, 0, 0)"/><path d="M 0,0 L 8,0 L 8,100 L 0,100 z" fill="transparent" stroke="none" transform="matrix(1, 0, 0, 1, 92, 0)"/><path d="M 0,0 L 100,0 L 100,8 L 0,8 z" fill="transparent" stroke="none" transform="matrix(1, 0, 0, 1, 0, 92)"/></g><g transform="matrix(1, 0, 0, 1, -321, 484)"><path d="M 0,0 L 100,0 L 100,100 L 0,100 z" fill="#787878" stroke="none" transform="matrix(1, 0, 0, 1, 0, 0)"/><image x="0" y="0" width="74" height="67" xlink:href="http://localhost/monitoring//assets/topology/logo2.svg" preserveAspectRatio="none" transform="matrix(1, 0, 0, 1, 15, 15) scale(0.9459459459459459, 1.044776119402985)"/><path d="M 0,0 L 100,0 L 100,8 L 0,8 z" fill="transparent" stroke="none" transform="matrix(1, 0, 0, 1, 0, 0)"/><path d="M 0,0 L 8,0 L 8,100 L 0,100 z" fill="transparent" stroke="none" transform="matrix(1, 0, 0, 1, 0, 0)"/><path d="M 0,0 L 8,0 L 8,100 L 0,100 z" fill="transparent" stroke="none" transform="matrix(1, 0, 0, 1, 92, 0)"/><path d="M 0,0 L 100,0 L 100,8 L 0,8 z" fill="transparent" stroke="none" transform="matrix(1, 0, 0, 1, 0, 92)"/></g><g transform="matrix(1, 0, 0, 1, -320.2784652709961, 551.0622756958007)"><g transform="matrix(1, 0, 0, 1, 0, 0)"><path d="M 0,0 L 92.55693054199219,0 L 92.55693054199219,31.875448608398436 L 0,31.875448608398436 z" fill="#282c34" stroke="none" transform="matrix(1, 0, 0, 1, 2, 2)"/><path d="M 0,0 L 92.55693054199219,0 L 92.55693054199219,31.875448608398436 L 0,31.875448608398436 z" fill="none" stroke="#fdfe03" stroke-width="4" stroke-linecap="butt" stroke-linejoin="miter" stroke-miterlimit="10" transform="matrix(1, 0, 0, 1, 2, 2)"/><text x="0" y="11.906586456298829" style="font: bold 11pt Lato, Helvetica, Arial, sans-serif" text-anchor="start" fill="#F8F8F8" stroke="none" transform="matrix(1, 0, 0, 1, 10, 10)">Indosat FO</text></g><path d="M 0,0 L 96.55693054199219,0 L 96.55693054199219,8 L 0,8 z" fill="transparent" stroke="none" transform="matrix(1, 0, 0, 1, 0, 0)"/><path d="M 0,0 L 8,0 L 8,35.875448608398436 L 0,35.875448608398436 z" fill="transparent" stroke="none" transform="matrix(1, 0, 0, 1, 0, 0)"/><path d="M 0,0 L 8,0 L 8,35.875448608398436 L 0,35.875448608398436 z" fill="transparent" stroke="none" transform="matrix(1, 0, 0, 1, 88.55693054199219, 0)"/><path d="M 0,0 L 96.55693054199219,0 L 96.55693054199219,8 L 0,8 z" fill="transparent" stroke="none" transform="matrix(1, 0, 0, 1, 0, 27.875448608398436)"/></g><g transform="matrix(1, 0, 0, 1, -123, 484)"><path d="M 0,0 L 100,0 L 100,100 L 0,100 z" fill="#787878" stroke="none" transform="matrix(1, 0, 0, 1, 0, 0)"/><image x="0" y="0" width="96" height="97" xlink:href="http://localhost/monitoring//assets/topology/router.svg" preserveAspectRatio="none" transform="matrix(1, 0, 0, 1, 15, 15) scale(0.7291666666666666, 0.7216494845360825)"/><path d="M 0,0 L 100,0 L 100,8 L 0,8 z" fill="transparent" stroke="none" transform="matrix(1, 0, 0, 1, 0, 0)"/><path d="M 0,0 L 8,0 L 8,100 L 0,100 z" fill="transparent" stroke="none" transform="matrix(1, 0, 0, 1, 0, 0)"/><path d="M 0,0 L 8,0 L 8,100 L 0,100 z" fill="transparent" stroke="none" transform="matrix(1, 0, 0, 1, 92, 0)"/><path d="M 0,0 L 100,0 L 100,8 L 0,8 z" fill="transparent" stroke="none" transform="matrix(1, 0, 0, 1, 0, 92)"/></g><g transform="matrix(1, 0, 0, 1, 72, 345)"><path d="M 0,0 L 100,0 L 100,100 L 0,100 z" fill="#787878" stroke="none" transform="matrix(1, 0, 0, 1, 0, 0)"/><image x="0" y="0" width="96" height="96" xlink:href="http://localhost/monitoring//assets/topology/coreswitch.svg" preserveAspectRatio="none" transform="matrix(1, 0, 0, 1, 15, 15) scale(0.7291666666666666, 0.7291666666666666)"/><path d="M 0,0 L 100,0 L 100,8 L 0,8 z" fill="transparent" stroke="none" transform="matrix(1, 0, 0, 1, 0, 0)"/><path d="M 0,0 L 8,0 L 8,100 L 0,100 z" fill="transparent" stroke="none" transform="matrix(1, 0, 0, 1, 0, 0)"/><path d="M 0,0 L 8,0 L 8,100 L 0,100 z" fill="transparent" stroke="none" transform="matrix(1, 0, 0, 1, 92, 0)"/><path d="M 0,0 L 100,0 L 100,8 L 0,8 z" fill="transparent" stroke="none" transform="matrix(1, 0, 0, 1, 0, 92)"/></g><g transform="matrix(1, 0, 0, 1, 72.64137268066406, 362.0622756958008)"><g transform="matrix(1, 0, 0, 1, 0, 0)"><path d="M 0,0 L 86.71725463867188,0 L 86.71725463867188,17.875448608398436 L 0,17.875448608398436 z" fill="#787878" stroke="none" transform="matrix(1, 0, 0, 1, 0, 0)"/><text x="0" y="11.906586456298829" style="font: bold 11pt Lato, Helvetica, Arial, sans-serif" text-anchor="start" fill="#F8F8F8" stroke="none" transform="matrix(1, 0, 0, 1, 1, 1)">Core Switch</text></g></g><g transform="matrix(1, 0, 0, 1, 72, 506)"><path d="M 0,0 L 100,0 L 100,100 L 0,100 z" fill="#787878" stroke="none" transform="matrix(1, 0, 0, 1, 0, 0)"/><image x="0" y="0" width="96" height="97" xlink:href="http://localhost/monitoring//assets/topology/router.svg" preserveAspectRatio="none" transform="matrix(1, 0, 0, 1, 15, 15) scale(0.7291666666666666, 0.7216494845360825)"/><path d="M 0,0 L 100,0 L 100,8 L 0,8 z" fill="transparent" stroke="none" transform="matrix(1, 0, 0, 1, 0, 0)"/><path d="M 0,0 L 8,0 L 8,100 L 0,100 z" fill="transparent" stroke="none" transform="matrix(1, 0, 0, 1, 0, 0)"/><path d="M 0,0 L 8,0 L 8,100 L 0,100 z" fill="transparent" stroke="none" transform="matrix(1, 0, 0, 1, 92, 0)"/><path d="M 0,0 L 100,0 L 100,8 L 0,8 z" fill="transparent" stroke="none" transform="matrix(1, 0, 0, 1, 0, 92)"/></g><g transform="matrix(1, 0, 0, 1, 37.069435119628906, 521.0622756958007)"><g transform="matrix(1, 0, 0, 1, 0, 0)"><path d="M 0,0 L 173.8611297607422,0 L 173.8611297607422,17.875448608398436 L 0,17.875448608398436 z" fill="#787878" stroke="none" transform="matrix(1, 0, 0, 1, 0, 0)"/><text x="0" y="11.906586456298829" style="font: bold 11pt Lato, Helvetica, Arial, sans-serif" text-anchor="start" fill="#F8F8F8" stroke="none" transform="matrix(1, 0, 0, 1, 1, 1)">XIDTIVPLCTRP-ACSW01</text></g></g><g transform="matrix(1, 0, 0, 1, 36.069435119628906, 413.0622756958008)"><g transform="matrix(1, 0, 0, 1, 0, 0)"><path d="M 0,0 L 173.8611297607422,0 L 173.8611297607422,17.875448608398436 L 0,17.875448608398436 z" fill="#787878" stroke="none" transform="matrix(1, 0, 0, 1, 0, 0)"/><text x="0" y="11.906586456298829" style="font: bold 11pt Lato, Helvetica, Arial, sans-serif" text-anchor="start" fill="#F8F8F8" stroke="none" transform="matrix(1, 0, 0, 1, 1, 1)">XIDTIVPLCTRP-ACSW01</text></g></g><g transform="matrix(1, 0, 0, 1, 100, 601)"><path d="M 0,0 L 100,0 L 100,100 L 0,100 z" fill="#787878" stroke="none" transform="matrix(1, 0, 0, 1, 0, 0)"/><image x="0" y="0" width="96" height="97" xlink:href="http://localhost/monitoring//assets/topology/router.svg" preserveAspectRatio="none" transform="matrix(1, 0, 0, 1, 15, 15) scale(0.7291666666666666, 0.7216494845360825)"/><path d="M 0,0 L 100,0 L 100,8 L 0,8 z" fill="transparent" stroke="none" transform="matrix(1, 0, 0, 1, 0, 0)"/><path d="M 0,0 L 8,0 L 8,100 L 0,100 z" fill="transparent" stroke="none" transform="matrix(1, 0, 0, 1, 0, 0)"/><path d="M 0,0 L 8,0 L 8,100 L 0,100 z" fill="transparent" stroke="none" transform="matrix(1, 0, 0, 1, 92, 0)"/><path d="M 0,0 L 100,0 L 100,8 L 0,8 z" fill="transparent" stroke="none" transform="matrix(1, 0, 0, 1, 0, 92)"/></g><g transform="matrix(1, 0, 0, 1, 98, 688)"><path d="M 0,0 L 100,0 L 100,100 L 0,100 z" fill="#787878" stroke="none" transform="matrix(1, 0, 0, 1, 0, 0)"/><image x="0" y="0" width="96" height="97" xlink:href="http://localhost/monitoring//assets/topology/router.svg" preserveAspectRatio="none" transform="matrix(1, 0, 0, 1, 15, 15) scale(0.7291666666666666, 0.7216494845360825)"/><path d="M 0,0 L 100,0 L 100,8 L 0,8 z" fill="transparent" stroke="none" transform="matrix(1, 0, 0, 1, 0, 0)"/><path d="M 0,0 L 8,0 L 8,100 L 0,100 z" fill="transparent" stroke="none" transform="matrix(1, 0, 0, 1, 0, 0)"/><path d="M 0,0 L 8,0 L 8,100 L 0,100 z" fill="transparent" stroke="none" transform="matrix(1, 0, 0, 1, 92, 0)"/><path d="M 0,0 L 100,0 L 100,8 L 0,8 z" fill="transparent" stroke="none" transform="matrix(1, 0, 0, 1, 0, 92)"/></g><g transform="matrix(1, 0, 0, 1, 103, 785)"><path d="M 0,0 L 100,0 L 100,100 L 0,100 z" fill="#787878" stroke="none" transform="matrix(1, 0, 0, 1, 0, 0)"/><image x="0" y="0" width="96" height="97" xlink:href="http://localhost/monitoring//assets/topology/router.svg" preserveAspectRatio="none" transform="matrix(1, 0, 0, 1, 15, 15) scale(0.7291666666666666, 0.7216494845360825)"/><path d="M 0,0 L 100,0 L 100,8 L 0,8 z" fill="transparent" stroke="none" transform="matrix(1, 0, 0, 1, 0, 0)"/><path d="M 0,0 L 8,0 L 8,100 L 0,100 z" fill="transparent" stroke="none" transform="matrix(1, 0, 0, 1, 0, 0)"/><path d="M 0,0 L 8,0 L 8,100 L 0,100 z" fill="transparent" stroke="none" transform="matrix(1, 0, 0, 1, 92, 0)"/><path d="M 0,0 L 100,0 L 100,8 L 0,8 z" fill="transparent" stroke="none" transform="matrix(1, 0, 0, 1, 0, 92)"/></g><g transform="matrix(1, 0, 0, 1, 293, 506)"><path d="M 0,0 L 100,0 L 100,100 L 0,100 z" fill="#787878" stroke="none" transform="matrix(1, 0, 0, 1, 0, 0)"/><image x="0" y="0" width="40" height="40" xlink:href="http://localhost/monitoring//assets/topology/ap.svg" preserveAspectRatio="none" transform="matrix(1, 0, 0, 1, 25, 25) scale(1.25, 1.25)"/><path d="M 0,0 L 100,0 L 100,8 L 0,8 z" fill="transparent" stroke="none" transform="matrix(1, 0, 0, 1, 0, 0)"/><path d="M 0,0 L 8,0 L 8,100 L 0,100 z" fill="transparent" stroke="none" transform="matrix(1, 0, 0, 1, 0, 0)"/><path d="M 0,0 L 8,0 L 8,100 L 0,100 z" fill="transparent" stroke="none" transform="matrix(1, 0, 0, 1, 92, 0)"/><path d="M 0,0 L 100,0 L 100,8 L 0,8 z" fill="transparent" stroke="none" transform="matrix(1, 0, 0, 1, 0, 92)"/></g><g transform="matrix(1, 0, 0, 1, 297, 601)"><path d="M 0,0 L 100,0 L 100,100 L 0,100 z" fill="#787878" stroke="none" transform="matrix(1, 0, 0, 1, 0, 0)"/><image x="0" y="0" width="40" height="40" xlink:href="http://localhost/monitoring//assets/topology/ap.svg" preserveAspectRatio="none" transform="matrix(1, 0, 0, 1, 25, 25) scale(1.25, 1.25)"/><path d="M 0,0 L 100,0 L 100,8 L 0,8 z" fill="transparent" stroke="none" transform="matrix(1, 0, 0, 1, 0, 0)"/><path d="M 0,0 L 8,0 L 8,100 L 0,100 z" fill="transparent" stroke="none" transform="matrix(1, 0, 0, 1, 0, 0)"/><path d="M 0,0 L 8,0 L 8,100 L 0,100 z" fill="transparent" stroke="none" transform="matrix(1, 0, 0, 1, 92, 0)"/><path d="M 0,0 L 100,0 L 100,8 L 0,8 z" fill="transparent" stroke="none" transform="matrix(1, 0, 0, 1, 0, 92)"/></g><g transform="matrix(1, 0, 0, 1, 298, 699)"><path d="M 0,0 L 100,0 L 100,100 L 0,100 z" fill="#787878" stroke="none" transform="matrix(1, 0, 0, 1, 0, 0)"/><image x="0" y="0" width="40" height="40" xlink:href="http://localhost/monitoring//assets/topology/ap.svg" preserveAspectRatio="none" transform="matrix(1, 0, 0, 1, 25, 25) scale(1.25, 1.25)"/><path d="M 0,0 L 100,0 L 100,8 L 0,8 z" fill="transparent" stroke="none" transform="matrix(1, 0, 0, 1, 0, 0)"/><path d="M 0,0 L 8,0 L 8,100 L 0,100 z" fill="transparent" stroke="none" transform="matrix(1, 0, 0, 1, 0, 0)"/><path d="M 0,0 L 8,0 L 8,100 L 0,100 z" fill="transparent" stroke="none" transform="matrix(1, 0, 0, 1, 92, 0)"/><path d="M 0,0 L 100,0 L 100,8 L 0,8 z" fill="transparent" stroke="none" transform="matrix(1, 0, 0, 1, 0, 92)"/></g><g transform="matrix(1, 0, 0, 1, 297, 785)"><path d="M 0,0 L 100,0 L 100,100 L 0,100 z" fill="#787878" stroke="none" transform="matrix(1, 0, 0, 1, 0, 0)"/><image x="0" y="0" width="40" height="40" xlink:href="http://localhost/monitoring//assets/topology/ap.svg" preserveAspectRatio="none" transform="matrix(1, 0, 0, 1, 25, 25) scale(1.25, 1.25)"/><path d="M 0,0 L 100,0 L 100,8 L 0,8 z" fill="transparent" stroke="none" transform="matrix(1, 0, 0, 1, 0, 0)"/><path d="M 0,0 L 8,0 L 8,100 L 0,100 z" fill="transparent" stroke="none" transform="matrix(1, 0, 0, 1, 0, 0)"/><path d="M 0,0 L 8,0 L 8,100 L 0,100 z" fill="transparent" stroke="none" transform="matrix(1, 0, 0, 1, 92, 0)"/><path d="M 0,0 L 100,0 L 100,8 L 0,8 z" fill="transparent" stroke="none" transform="matrix(1, 0, 0, 1, 0, 92)"/></g><g transform="matrix(1, 0, 0, 1, 292, 417)"><path d="M 0,0 L 100,0 L 100,100 L 0,100 z" fill="#787878" stroke="none" transform="matrix(1, 0, 0, 1, 0, 0)"/><image x="0" y="0" width="40" height="40" xlink:href="http://localhost/monitoring//assets/topology/ap.svg" preserveAspectRatio="none" transform="matrix(1, 0, 0, 1, 25, 25) scale(1.25, 1.25)"/><path d="M 0,0 L 100,0 L 100,8 L 0,8 z" fill="transparent" stroke="none" transform="matrix(1, 0, 0, 1, 0, 0)"/><path d="M 0,0 L 8,0 L 8,100 L 0,100 z" fill="transparent" stroke="none" transform="matrix(1, 0, 0, 1, 0, 0)"/><path d="M 0,0 L 8,0 L 8,100 L 0,100 z" fill="transparent" stroke="none" transform="matrix(1, 0, 0, 1, 92, 0)"/><path d="M 0,0 L 100,0 L 100,8 L 0,8 z" fill="transparent" stroke="none" transform="matrix(1, 0, 0, 1, 0, 92)"/></g><g transform="matrix(1, 0, 0, 1, 300.9763870239258, 772.0622756958007)"><g transform="matrix(1, 0, 0, 1, 0, 0)"><path d="M 0,0 L 94.04722595214844,0 L 94.04722595214844,17.875448608398436 L 0,17.875448608398436 z" fill="#787878" stroke="none" transform="matrix(1, 0, 0, 1, 0, 0)"/><text x="0" y="11.906586456298829" style="font: bold 11pt Lato, Helvetica, Arial, sans-serif" text-anchor="start" fill="#F8F8F8" stroke="none" transform="matrix(1, 0, 0, 1, 1, 1)">AP Office Lt2</text></g></g><g transform="matrix(1, 0, 0, 1, 293.60630798339844, 859.0622756958007)"><g transform="matrix(1, 0, 0, 1, 0, 0)"><path d="M 0,0 L 112.78738403320312,0 L 112.78738403320312,17.875448608398436 L 0,17.875448608398436 z" fill="#787878" stroke="none" transform="matrix(1, 0, 0, 1, 0, 0)"/><text x="0" y="11.906586456298829" style="font: bold 11pt Lato, Helvetica, Arial, sans-serif" text-anchor="start" fill="#F8F8F8" stroke="none" transform="matrix(1, 0, 0, 1, 1, 1)">AP Parkir Motor</text></g></g><g transform="matrix(1, 0, 0, 1, 287.6614227294922, 490.0622756958008)"><g transform="matrix(1, 0, 0, 1, 0, 0)"><path d="M 0,0 L 104.67715454101562,0 L 104.67715454101562,17.875448608398436 L 0,17.875448608398436 z" fill="#787878" stroke="none" transform="matrix(1, 0, 0, 1, 0, 0)"/><text x="0" y="11.906586456298829" style="font: bold 11pt Lato, Helvetica, Arial, sans-serif" text-anchor="start" fill="#F8F8F8" stroke="none" transform="matrix(1, 0, 0, 1, 1, 1)">AP Area 220ml</text></g></g><g transform="matrix(1, 0, 0, 1, 299.9763870239258, 674.0622756958007)"><g transform="matrix(1, 0, 0, 1, 0, 0)"><path d="M 0,0 L 94.04722595214844,0 L 94.04722595214844,17.875448608398436 L 0,17.875448608398436 z" fill="#787878" stroke="none" transform="matrix(1, 0, 0, 1, 0, 0)"/><text x="0" y="11.906586456298829" style="font: bold 11pt Lato, Helvetica, Arial, sans-serif" text-anchor="start" fill="#F8F8F8" stroke="none" transform="matrix(1, 0, 0, 1, 1, 1)">AP Office Lt1</text></g></g><g transform="matrix(1, 0, 0, 1, 295.9763870239258, 580.0622756958007)"><g transform="matrix(1, 0, 0, 1, 0, 0)"><path d="M 0,0 L 94.04722595214844,0 L 94.04722595214844,17.875448608398436 L 0,17.875448608398436 z" fill="#787878" stroke="none" transform="matrix(1, 0, 0, 1, 0, 0)"/><text x="0" y="11.906586456298829" style="font: bold 11pt Lato, Helvetica, Arial, sans-serif" text-anchor="start" fill="#F8F8F8" stroke="none" transform="matrix(1, 0, 0, 1, 1, 1)">AP Office Lt1</text></g></g><g transform="matrix(1, 0, 0, 1, 84.20115661621094, 575.0622756958007)"><g transform="matrix(1, 0, 0, 1, 0, 0)"><path d="M 0,0 L 87.59768676757812,0 L 87.59768676757812,17.875448608398436 L 0,17.875448608398436 z" fill="#787878" stroke="none" transform="matrix(1, 0, 0, 1, 0, 0)"/><text x="0" y="11.906586456298829" style="font: bold 11pt Lato, Helvetica, Arial, sans-serif" text-anchor="start" fill="#F8F8F8" stroke="none" transform="matrix(1, 0, 0, 1, 1, 1)">10.203.105.5</text></g></g><g transform="matrix(1, 0, 0, 1, 104.12456512451172, 667.0622756958007)"><g transform="matrix(1, 0, 0, 1, 0, 0)"><path d="M 0,0 L 95.75086975097656,0 L 95.75086975097656,17.875448608398436 L 0,17.875448608398436 z" fill="#787878" stroke="none" transform="matrix(1, 0, 0, 1, 0, 0)"/><text x="0" y="11.906586456298829" style="font: bold 11pt Lato, Helvetica, Arial, sans-serif" text-anchor="start" fill="#F8F8F8" stroke="none" transform="matrix(1, 0, 0, 1, 1, 1)">10.203.105.13</text></g></g><g transform="matrix(1, 0, 0, 1, 66.0694351196289, 705.0622756958007)"><g transform="matrix(1, 0, 0, 1, 0, 0)"><path d="M 0,0 L 173.8611297607422,0 L 173.8611297607422,17.875448608398436 L 0,17.875448608398436 z" fill="#787878" stroke="none" transform="matrix(1, 0, 0, 1, 0, 0)"/><text x="0" y="11.906586456298829" style="font: bold 11pt Lato, Helvetica, Arial, sans-serif" text-anchor="start" fill="#F8F8F8" stroke="none" transform="matrix(1, 0, 0, 1, 1, 1)">XIDTIVPLCTRP-ACSW01</text></g></g><g transform="matrix(1, 0, 0, 1, 100.12456512451172, 755.0622756958007)"><g transform="matrix(1, 0, 0, 1, 0, 0)"><path d="M 0,0 L 95.75086975097656,0 L 95.75086975097656,17.875448608398436 L 0,17.875448608398436 z" fill="#787878" stroke="none" transform="matrix(1, 0, 0, 1, 0, 0)"/><text x="0" y="11.906586456298829" style="font: bold 11pt Lato, Helvetica, Arial, sans-serif" text-anchor="start" fill="#F8F8F8" stroke="none" transform="matrix(1, 0, 0, 1, 1, 1)">10.203.105.14</text></g></g><g transform="matrix(1, 0, 0, 1, 67.0694351196289, 619.0622756958007)"><g transform="matrix(1, 0, 0, 1, 0, 0)"><path d="M 0,0 L 173.8611297607422,0 L 173.8611297607422,17.875448608398436 L 0,17.875448608398436 z" fill="#787878" stroke="none" transform="matrix(1, 0, 0, 1, 0, 0)"/><text x="0" y="11.906586456298829" style="font: bold 11pt Lato, Helvetica, Arial, sans-serif" text-anchor="start" fill="#F8F8F8" stroke="none" transform="matrix(1, 0, 0, 1, 1, 1)">XIDTIVPLCTRP-ACSW01</text></g></g><g transform="matrix(1, 0, 0, 1, 106.12456512451172, 852.0622756958007)"><g transform="matrix(1, 0, 0, 1, 0, 0)"><path d="M 0,0 L 95.75086975097656,0 L 95.75086975097656,17.875448608398436 L 0,17.875448608398436 z" fill="#787878" stroke="none" transform="matrix(1, 0, 0, 1, 0, 0)"/><text x="0" y="11.906586456298829" style="font: bold 11pt Lato, Helvetica, Arial, sans-serif" text-anchor="start" fill="#F8F8F8" stroke="none" transform="matrix(1, 0, 0, 1, 1, 1)">10.203.105.17</text></g></g><g transform="matrix(1, 0, 0, 1, 72.0694351196289, 803.0622756958007)"><g transform="matrix(1, 0, 0, 1, 0, 0)"><path d="M 0,0 L 173.8611297607422,0 L 173.8611297607422,17.875448608398436 L 0,17.875448608398436 z" fill="#787878" stroke="none" transform="matrix(1, 0, 0, 1, 0, 0)"/><text x="0" y="11.906586456298829" style="font: bold 11pt Lato, Helvetica, Arial, sans-serif" text-anchor="start" fill="#F8F8F8" stroke="none" transform="matrix(1, 0, 0, 1, 1, 1)">XIDTIVPLCTRP-ACSW01</text></g></g><g transform="matrix(1, 0, 0, 1, -98.61846923828125, 500.0622756958008)"><g transform="matrix(1, 0, 0, 1, 0, 0)"><path d="M 0,0 L 49.2369384765625,0 L 49.2369384765625,17.875448608398436 L 0,17.875448608398436 z" fill="#787878" stroke="none" transform="matrix(1, 0, 0, 1, 0, 0)"/><text x="0" y="11.906586456298829" style="font: bold 11pt Lato, Helvetica, Arial, sans-serif" text-anchor="start" fill="#F8F8F8" stroke="none" transform="matrix(1, 0, 0, 1, 1, 1)">Router</text></g></g><g transform="matrix(1, 0, 0, 1, -119.87543487548828, 551.0622756958007)"><g transform="matrix(1, 0, 0, 1, 0, 0)"><path d="M 0,0 L 95.75086975097656,0 L 95.75086975097656,17.875448608398436 L 0,17.875448608398436 z" fill="#787878" stroke="none" transform="matrix(1, 0, 0, 1, 0, 0)"/><text x="0" y="11.906586456298829" style="font: bold 11pt Lato, Helvetica, Arial, sans-serif" text-anchor="start" fill="#F8F8F8" stroke="none" transform="matrix(1, 0, 0, 1, 1, 1)">10.203.22.218</text></g></g><g transform="matrix(1, 0, 0, 1, -160.9305648803711, 363.0622756958008)"><g transform="matrix(1, 0, 0, 1, 0, 0)"><path d="M 0,0 L 173.8611297607422,0 L 173.8611297607422,17.875448608398436 L 0,17.875448608398436 z" fill="#787878" stroke="none" transform="matrix(1, 0, 0, 1, 0, 0)"/><text x="0" y="11.906586456298829" style="font: bold 11pt Lato, Helvetica, Arial, sans-serif" text-anchor="start" fill="#F8F8F8" stroke="none" transform="matrix(1, 0, 0, 1, 1, 1)">XIDTIVPLCTRP-ACSW01</text></g></g><g transform="matrix(1, 0, 0, 1, -116.79884338378906, 410.0622756958008)"><g transform="matrix(1, 0, 0, 1, 0, 0)"><path d="M 0,0 L 87.59768676757812,0 L 87.59768676757812,17.875448608398436 L 0,17.875448608398436 z" fill="#787878" stroke="none" transform="matrix(1, 0, 0, 1, 0, 0)"/><text x="0" y="11.906586456298829" style="font: bold 11pt Lato, Helvetica, Arial, sans-serif" text-anchor="start" fill="#F8F8F8" stroke="none" transform="matrix(1, 0, 0, 1, 1, 1)">10.203.105.3</text></g></g><g transform="matrix(1, 0, 0, 1, -123.35646057128906, 568.0622756958007)"><g transform="matrix(1, 0, 0, 1, 0, 0)"><path d="M 0,0 L 104.71292114257812,0 L 104.71292114257812,17.875448608398436 L 0,17.875448608398436 z" fill="#787878" stroke="none" transform="matrix(1, 0, 0, 1, 0, 0)"/><text x="0" y="11.906586456298829" style="font: bold 11pt Lato, Helvetica, Arial, sans-serif" text-anchor="start" fill="#F8F8F8" stroke="none" transform="matrix(1, 0, 0, 1, 1, 1)">28ac 9ef2 79e0</text></g></g><g transform="matrix(1, 0, 0, 1, 484, 347)"><path d="M 0,0 L 100,0 L 100,100 L 0,100 z" fill="#787878" stroke="none" transform="matrix(1, 0, 0, 1, 0, 0)"/><image x="0" y="0" width="96" height="97" xlink:href="http://localhost/monitoring//assets/topology/router.svg" preserveAspectRatio="none" transform="matrix(1, 0, 0, 1, 15, 15) scale(0.7291666666666666, 0.7216494845360825)"/><path d="M 0,0 L 100,0 L 100,8 L 0,8 z" fill="transparent" stroke="none" transform="matrix(1, 0, 0, 1, 0, 0)"/><path d="M 0,0 L 8,0 L 8,100 L 0,100 z" fill="transparent" stroke="none" transform="matrix(1, 0, 0, 1, 0, 0)"/><path d="M 0,0 L 8,0 L 8,100 L 0,100 z" fill="transparent" stroke="none" transform="matrix(1, 0, 0, 1, 92, 0)"/><path d="M 0,0 L 100,0 L 100,8 L 0,8 z" fill="transparent" stroke="none" transform="matrix(1, 0, 0, 1, 0, 92)"/></g><g transform="matrix(1, 0, 0, 1, 474, 1068)"><path d="M 0,0 L 100,0 L 100,100 L 0,100 z" fill="#787878" stroke="none" transform="matrix(1, 0, 0, 1, 0, 0)"/><image x="0" y="0" width="96" height="97" xlink:href="http://localhost/monitoring//assets/topology/router.svg" preserveAspectRatio="none" transform="matrix(1, 0, 0, 1, 15, 15) scale(0.7291666666666666, 0.7216494845360825)"/><path d="M 0,0 L 100,0 L 100,8 L 0,8 z" fill="transparent" stroke="none" transform="matrix(1, 0, 0, 1, 0, 0)"/><path d="M 0,0 L 8,0 L 8,100 L 0,100 z" fill="transparent" stroke="none" transform="matrix(1, 0, 0, 1, 0, 0)"/><path d="M 0,0 L 8,0 L 8,100 L 0,100 z" fill="transparent" stroke="none" transform="matrix(1, 0, 0, 1, 92, 0)"/><path d="M 0,0 L 100,0 L 100,8 L 0,8 z" fill="transparent" stroke="none" transform="matrix(1, 0, 0, 1, 0, 92)"/></g><g transform="matrix(1, 0, 0, 1, 473, 997)"><path d="M 0,0 L 100,0 L 100,100 L 0,100 z" fill="#787878" stroke="none" transform="matrix(1, 0, 0, 1, 0, 0)"/><image x="0" y="0" width="96" height="97" xlink:href="http://localhost/monitoring//assets/topology/router.svg" preserveAspectRatio="none" transform="matrix(1, 0, 0, 1, 15, 15) scale(0.7291666666666666, 0.7216494845360825)"/><path d="M 0,0 L 100,0 L 100,8 L 0,8 z" fill="transparent" stroke="none" transform="matrix(1, 0, 0, 1, 0, 0)"/><path d="M 0,0 L 8,0 L 8,100 L 0,100 z" fill="transparent" stroke="none" transform="matrix(1, 0, 0, 1, 0, 0)"/><path d="M 0,0 L 8,0 L 8,100 L 0,100 z" fill="transparent" stroke="none" transform="matrix(1, 0, 0, 1, 92, 0)"/><path d="M 0,0 L 100,0 L 100,8 L 0,8 z" fill="transparent" stroke="none" transform="matrix(1, 0, 0, 1, 0, 92)"/></g><g transform="matrix(1, 0, 0, 1, 473, 924)"><path d="M 0,0 L 100,0 L 100,100 L 0,100 z" fill="#787878" stroke="none" transform="matrix(1, 0, 0, 1, 0, 0)"/><image x="0" y="0" width="96" height="97" xlink:href="http://localhost/monitoring//assets/topology/router.svg" preserveAspectRatio="none" transform="matrix(1, 0, 0, 1, 15, 15) scale(0.7291666666666666, 0.7216494845360825)"/><path d="M 0,0 L 100,0 L 100,8 L 0,8 z" fill="transparent" stroke="none" transform="matrix(1, 0, 0, 1, 0, 0)"/><path d="M 0,0 L 8,0 L 8,100 L 0,100 z" fill="transparent" stroke="none" transform="matrix(1, 0, 0, 1, 0, 0)"/><path d="M 0,0 L 8,0 L 8,100 L 0,100 z" fill="transparent" stroke="none" transform="matrix(1, 0, 0, 1, 92, 0)"/><path d="M 0,0 L 100,0 L 100,8 L 0,8 z" fill="transparent" stroke="none" transform="matrix(1, 0, 0, 1, 0, 92)"/></g><g transform="matrix(1, 0, 0, 1, 484, 498)"><path d="M 0,0 L 100,0 L 100,100 L 0,100 z" fill="#787878" stroke="none" transform="matrix(1, 0, 0, 1, 0, 0)"/><image x="0" y="0" width="96" height="97" xlink:href="http://localhost/monitoring//assets/topology/router.svg" preserveAspectRatio="none" transform="matrix(1, 0, 0, 1, 15, 15) scale(0.7291666666666666, 0.7216494845360825)"/><path d="M 0,0 L 100,0 L 100,8 L 0,8 z" fill="transparent" stroke="none" transform="matrix(1, 0, 0, 1, 0, 0)"/><path d="M 0,0 L 8,0 L 8,100 L 0,100 z" fill="transparent" stroke="none" transform="matrix(1, 0, 0, 1, 0, 0)"/><path d="M 0,0 L 8,0 L 8,100 L 0,100 z" fill="transparent" stroke="none" transform="matrix(1, 0, 0, 1, 92, 0)"/><path d="M 0,0 L 100,0 L 100,8 L 0,8 z" fill="transparent" stroke="none" transform="matrix(1, 0, 0, 1, 0, 92)"/></g><g transform="matrix(1, 0, 0, 1, 484, 644)"><path d="M 0,0 L 100,0 L 100,100 L 0,100 z" fill="#787878" stroke="none" transform="matrix(1, 0, 0, 1, 0, 0)"/><image x="0" y="0" width="85" height="59" xlink:href="http://localhost/monitoring//assets/topology/unswitch.svg" preserveAspectRatio="none" transform="matrix(1, 0, 0, 1, 15, 15) scale(0.8235294117647058, 1.1864406779661016)"/><path d="M 0,0 L 100,0 L 100,8 L 0,8 z" fill="transparent" stroke="none" transform="matrix(1, 0, 0, 1, 0, 0)"/><path d="M 0,0 L 8,0 L 8,100 L 0,100 z" fill="transparent" stroke="none" transform="matrix(1, 0, 0, 1, 0, 0)"/><path d="M 0,0 L 8,0 L 8,100 L 0,100 z" fill="transparent" stroke="none" transform="matrix(1, 0, 0, 1, 92, 0)"/><path d="M 0,0 L 100,0 L 100,8 L 0,8 z" fill="transparent" stroke="none" transform="matrix(1, 0, 0, 1, 0, 92)"/></g><g transform="matrix(1, 0, 0, 1, 728, 347)"><path d="M 0,0 L 100,0 L 100,100 L 0,100 z" fill="#787878" stroke="none" transform="matrix(1, 0, 0, 1, 0, 0)"/><image x="0" y="0" width="96" height="97" xlink:href="http://localhost/monitoring//assets/topology/router.svg" preserveAspectRatio="none" transform="matrix(1, 0, 0, 1, 15, 15) scale(0.7291666666666666, 0.7216494845360825)"/><path d="M 0,0 L 100,0 L 100,8 L 0,8 z" fill="transparent" stroke="none" transform="matrix(1, 0, 0, 1, 0, 0)"/><path d="M 0,0 L 8,0 L 8,100 L 0,100 z" fill="transparent" stroke="none" transform="matrix(1, 0, 0, 1, 0, 0)"/><path d="M 0,0 L 8,0 L 8,100 L 0,100 z" fill="transparent" stroke="none" transform="matrix(1, 0, 0, 1, 92, 0)"/><path d="M 0,0 L 100,0 L 100,8 L 0,8 z" fill="transparent" stroke="none" transform="matrix(1, 0, 0, 1, 0, 92)"/></g><g transform="matrix(1, 0, 0, 1, 625, 407)"><path d="M 0,0 L 100,0 L 100,100 L 0,100 z" fill="#787878" stroke="none" transform="matrix(1, 0, 0, 1, 0, 0)"/><image x="0" y="0" width="40" height="40" xlink:href="http://localhost/monitoring//assets/topology/ap.svg" preserveAspectRatio="none" transform="matrix(1, 0, 0, 1, 25, 25) scale(1.25, 1.25)"/><path d="M 0,0 L 100,0 L 100,8 L 0,8 z" fill="transparent" stroke="none" transform="matrix(1, 0, 0, 1, 0, 0)"/><path d="M 0,0 L 8,0 L 8,100 L 0,100 z" fill="transparent" stroke="none" transform="matrix(1, 0, 0, 1, 0, 0)"/><path d="M 0,0 L 8,0 L 8,100 L 0,100 z" fill="transparent" stroke="none" transform="matrix(1, 0, 0, 1, 92, 0)"/><path d="M 0,0 L 100,0 L 100,8 L 0,8 z" fill="transparent" stroke="none" transform="matrix(1, 0, 0, 1, 0, 92)"/></g><g transform="matrix(1, 0, 0, 1, 624, 481)"><path d="M 0,0 L 100,0 L 100,100 L 0,100 z" fill="#787878" stroke="none" transform="matrix(1, 0, 0, 1, 0, 0)"/><image x="0" y="0" width="40" height="40" xlink:href="http://localhost/monitoring//assets/topology/ap.svg" preserveAspectRatio="none" transform="matrix(1, 0, 0, 1, 25, 25) scale(1.25, 1.25)"/><path d="M 0,0 L 100,0 L 100,8 L 0,8 z" fill="transparent" stroke="none" transform="matrix(1, 0, 0, 1, 0, 0)"/><path d="M 0,0 L 8,0 L 8,100 L 0,100 z" fill="transparent" stroke="none" transform="matrix(1, 0, 0, 1, 0, 0)"/><path d="M 0,0 L 8,0 L 8,100 L 0,100 z" fill="transparent" stroke="none" transform="matrix(1, 0, 0, 1, 92, 0)"/><path d="M 0,0 L 100,0 L 100,8 L 0,8 z" fill="transparent" stroke="none" transform="matrix(1, 0, 0, 1, 0, 92)"/></g><g transform="matrix(1, 0, 0, 1, 625, 553)"><path d="M 0,0 L 100,0 L 100,100 L 0,100 z" fill="#787878" stroke="none" transform="matrix(1, 0, 0, 1, 0, 0)"/><image x="0" y="0" width="40" height="40" xlink:href="http://localhost/monitoring//assets/topology/ap.svg" preserveAspectRatio="none" transform="matrix(1, 0, 0, 1, 25, 25) scale(1.25, 1.25)"/><path d="M 0,0 L 100,0 L 100,8 L 0,8 z" fill="transparent" stroke="none" transform="matrix(1, 0, 0, 1, 0, 0)"/><path d="M 0,0 L 8,0 L 8,100 L 0,100 z" fill="transparent" stroke="none" transform="matrix(1, 0, 0, 1, 0, 0)"/><path d="M 0,0 L 8,0 L 8,100 L 0,100 z" fill="transparent" stroke="none" transform="matrix(1, 0, 0, 1, 92, 0)"/><path d="M 0,0 L 100,0 L 100,8 L 0,8 z" fill="transparent" stroke="none" transform="matrix(1, 0, 0, 1, 0, 92)"/></g><g transform="matrix(1, 0, 0, 1, 624, 626)"><path d="M 0,0 L 100,0 L 100,100 L 0,100 z" fill="#787878" stroke="none" transform="matrix(1, 0, 0, 1, 0, 0)"/><image x="0" y="0" width="40" height="40" xlink:href="http://localhost/monitoring//assets/topology/ap.svg" preserveAspectRatio="none" transform="matrix(1, 0, 0, 1, 25, 25) scale(1.25, 1.25)"/><path d="M 0,0 L 100,0 L 100,8 L 0,8 z" fill="transparent" stroke="none" transform="matrix(1, 0, 0, 1, 0, 0)"/><path d="M 0,0 L 8,0 L 8,100 L 0,100 z" fill="transparent" stroke="none" transform="matrix(1, 0, 0, 1, 0, 0)"/><path d="M 0,0 L 8,0 L 8,100 L 0,100 z" fill="transparent" stroke="none" transform="matrix(1, 0, 0, 1, 92, 0)"/><path d="M 0,0 L 100,0 L 100,8 L 0,8 z" fill="transparent" stroke="none" transform="matrix(1, 0, 0, 1, 0, 92)"/></g><g transform="matrix(1, 0, 0, 1, 622, 699)"><path d="M 0,0 L 100,0 L 100,100 L 0,100 z" fill="#787878" stroke="none" transform="matrix(1, 0, 0, 1, 0, 0)"/><image x="0" y="0" width="40" height="40" xlink:href="http://localhost/monitoring//assets/topology/ap.svg" preserveAspectRatio="none" transform="matrix(1, 0, 0, 1, 25, 25) scale(1.25, 1.25)"/><path d="M 0,0 L 100,0 L 100,8 L 0,8 z" fill="transparent" stroke="none" transform="matrix(1, 0, 0, 1, 0, 0)"/><path d="M 0,0 L 8,0 L 8,100 L 0,100 z" fill="transparent" stroke="none" transform="matrix(1, 0, 0, 1, 0, 0)"/><path d="M 0,0 L 8,0 L 8,100 L 0,100 z" fill="transparent" stroke="none" transform="matrix(1, 0, 0, 1, 92, 0)"/><path d="M 0,0 L 100,0 L 100,8 L 0,8 z" fill="transparent" stroke="none" transform="matrix(1, 0, 0, 1, 0, 92)"/></g><g transform="matrix(1, 0, 0, 1, 472, 847)"><path d="M 0,0 L 100,0 L 100,100 L 0,100 z" fill="#787878" stroke="none" transform="matrix(1, 0, 0, 1, 0, 0)"/><image x="0" y="0" width="40" height="40" xlink:href="http://localhost/monitoring//assets/topology/ap.svg" preserveAspectRatio="none" transform="matrix(1, 0, 0, 1, 25, 25) scale(1.25, 1.25)"/><path d="M 0,0 L 100,0 L 100,8 L 0,8 z" fill="transparent" stroke="none" transform="matrix(1, 0, 0, 1, 0, 0)"/><path d="M 0,0 L 8,0 L 8,100 L 0,100 z" fill="transparent" stroke="none" transform="matrix(1, 0, 0, 1, 0, 0)"/><path d="M 0,0 L 8,0 L 8,100 L 0,100 z" fill="transparent" stroke="none" transform="matrix(1, 0, 0, 1, 92, 0)"/><path d="M 0,0 L 100,0 L 100,8 L 0,8 z" fill="transparent" stroke="none" transform="matrix(1, 0, 0, 1, 0, 92)"/></g><g transform="matrix(1, 0, 0, 1, 626, 928)"><path d="M 0,0 L 100,0 L 100,100 L 0,100 z" fill="#787878" stroke="none" transform="matrix(1, 0, 0, 1, 0, 0)"/><image x="0" y="0" width="40" height="40" xlink:href="http://localhost/monitoring//assets/topology/ap.svg" preserveAspectRatio="none" transform="matrix(1, 0, 0, 1, 25, 25) scale(1.25, 1.25)"/><path d="M 0,0 L 100,0 L 100,8 L 0,8 z" fill="transparent" stroke="none" transform="matrix(1, 0, 0, 1, 0, 0)"/><path d="M 0,0 L 8,0 L 8,100 L 0,100 z" fill="transparent" stroke="none" transform="matrix(1, 0, 0, 1, 0, 0)"/><path d="M 0,0 L 8,0 L 8,100 L 0,100 z" fill="transparent" stroke="none" transform="matrix(1, 0, 0, 1, 92, 0)"/><path d="M 0,0 L 100,0 L 100,8 L 0,8 z" fill="transparent" stroke="none" transform="matrix(1, 0, 0, 1, 0, 92)"/></g><g transform="matrix(1, 0, 0, 1, 765, 922)"><path d="M 0,0 L 100,0 L 100,100 L 0,100 z" fill="#787878" stroke="none" transform="matrix(1, 0, 0, 1, 0, 0)"/><image x="0" y="0" width="96" height="97" xlink:href="http://localhost/monitoring//assets/topology/router.svg" preserveAspectRatio="none" transform="matrix(1, 0, 0, 1, 15, 15) scale(0.7291666666666666, 0.7216494845360825)"/><path d="M 0,0 L 100,0 L 100,8 L 0,8 z" fill="transparent" stroke="none" transform="matrix(1, 0, 0, 1, 0, 0)"/><path d="M 0,0 L 8,0 L 8,100 L 0,100 z" fill="transparent" stroke="none" transform="matrix(1, 0, 0, 1, 0, 0)"/><path d="M 0,0 L 8,0 L 8,100 L 0,100 z" fill="transparent" stroke="none" transform="matrix(1, 0, 0, 1, 92, 0)"/><path d="M 0,0 L 100,0 L 100,8 L 0,8 z" fill="transparent" stroke="none" transform="matrix(1, 0, 0, 1, 0, 92)"/></g><g transform="matrix(1, 0, 0, 1, 765, 1068)"><path d="M 0,0 L 100,0 L 100,100 L 0,100 z" fill="#787878" stroke="none" transform="matrix(1, 0, 0, 1, 0, 0)"/><image x="0" y="0" width="85" height="59" xlink:href="http://localhost/monitoring//assets/topology/unswitch.svg" preserveAspectRatio="none" transform="matrix(1, 0, 0, 1, 15, 15) scale(0.8235294117647058, 1.1864406779661016)"/><path d="M 0,0 L 100,0 L 100,8 L 0,8 z" fill="transparent" stroke="none" transform="matrix(1, 0, 0, 1, 0, 0)"/><path d="M 0,0 L 8,0 L 8,100 L 0,100 z" fill="transparent" stroke="none" transform="matrix(1, 0, 0, 1, 0, 0)"/><path d="M 0,0 L 8,0 L 8,100 L 0,100 z" fill="transparent" stroke="none" transform="matrix(1, 0, 0, 1, 92, 0)"/><path d="M 0,0 L 100,0 L 100,8 L 0,8 z" fill="transparent" stroke="none" transform="matrix(1, 0, 0, 1, 0, 92)"/></g><g transform="matrix(1, 0, 0, 1, 1013, 923)"><path d="M 0,0 L 100,0 L 100,100 L 0,100 z" fill="#787878" stroke="none" transform="matrix(1, 0, 0, 1, 0, 0)"/><image x="0" y="0" width="96" height="97" xlink:href="http://localhost/monitoring//assets/topology/router.svg" preserveAspectRatio="none" transform="matrix(1, 0, 0, 1, 15, 15) scale(0.7291666666666666, 0.7216494845360825)"/><path d="M 0,0 L 100,0 L 100,8 L 0,8 z" fill="transparent" stroke="none" transform="matrix(1, 0, 0, 1, 0, 0)"/><path d="M 0,0 L 8,0 L 8,100 L 0,100 z" fill="transparent" stroke="none" transform="matrix(1, 0, 0, 1, 0, 0)"/><path d="M 0,0 L 8,0 L 8,100 L 0,100 z" fill="transparent" stroke="none" transform="matrix(1, 0, 0, 1, 92, 0)"/><path d="M 0,0 L 100,0 L 100,8 L 0,8 z" fill="transparent" stroke="none" transform="matrix(1, 0, 0, 1, 0, 92)"/></g><g transform="matrix(1, 0, 0, 1, 850, 966)"><path d="M 0,0 L 100,0 L 100,100 L 0,100 z" fill="#787878" stroke="none" transform="matrix(1, 0, 0, 1, 0, 0)"/><image x="0" y="0" width="40" height="40" xlink:href="http://localhost/monitoring//assets/topology/ap.svg" preserveAspectRatio="none" transform="matrix(1, 0, 0, 1, 25, 25) scale(1.25, 1.25)"/><path d="M 0,0 L 100,0 L 100,8 L 0,8 z" fill="transparent" stroke="none" transform="matrix(1, 0, 0, 1, 0, 0)"/><path d="M 0,0 L 8,0 L 8,100 L 0,100 z" fill="transparent" stroke="none" transform="matrix(1, 0, 0, 1, 0, 0)"/><path d="M 0,0 L 8,0 L 8,100 L 0,100 z" fill="transparent" stroke="none" transform="matrix(1, 0, 0, 1, 92, 0)"/><path d="M 0,0 L 100,0 L 100,8 L 0,8 z" fill="transparent" stroke="none" transform="matrix(1, 0, 0, 1, 0, 92)"/></g><g transform="matrix(1, 0, 0, 1, -226, 391)"><path d="M 0,0 L 93,0" fill="none" stroke="transparent" stroke-width="8" stroke-linecap="butt" stroke-linejoin="miter" stroke-miterlimit="10" transform="matrix(1, 0, 0, 1, 4, 4)"/><path d="M 0,0 L 93,0" fill="none" stroke="#0F52BA" stroke-width="2" stroke-linecap="butt" stroke-linejoin="miter" stroke-miterlimit="10" transform="matrix(1, 0, 0, 1, 4, 4)"/><path d="M 0,0 L 8,4 L 0,8 L 2,4 z" fill="#0F52BA" stroke="none" transform="matrix(1, 0, 0, 1, 93, 0)"/></g><g transform="matrix(1, 0, 0, 1, -225, 530)"><path d="M 0,0 L 94,0" fill="none" stroke="transparent" stroke-width="8" stroke-linecap="butt" stroke-linejoin="miter" stroke-miterlimit="10" transform="matrix(1, 0, 0, 1, 4, 4)"/><path d="M 0,0 L 94,0" fill="none" stroke="#0F52BA" stroke-width="2" stroke-linecap="butt" stroke-linejoin="miter" stroke-miterlimit="10" transform="matrix(1, 0, 0, 1, 4, 4)"/><path d="M 0,0 L 8,4 L 0,8 L 2,4 z" fill="#0F52BA" stroke="none" transform="matrix(1, 0, 0, 1, 94, 0)"/></g><g transform="matrix(1, 0, 0, 1, -27, 391)"><path d="M 0,139 L 42.5,139 Q 47.5,139 47.5,134 L 47.5,5 Q 47.5,0 52.5,0 L 91,0" fill="none" stroke="transparent" stroke-width="8" stroke-linecap="butt" stroke-linejoin="miter" stroke-miterlimit="10" transform="matrix(1, 0, 0, 1, 4, 4)"/><path d="M 0,139 L 42.5,139 Q 47.5,139 47.5,134 L 47.5,5 Q 47.5,0 52.5,0 L 91,0" fill="none" stroke="#0F52BA" stroke-width="2" stroke-linecap="butt" stroke-linejoin="miter" stroke-miterlimit="10" transform="matrix(1, 0, 0, 1, 4, 4)"/><path d="M 0,0 L 8,4 L 0,8 L 2,4 z" fill="#0F52BA" stroke="none" transform="matrix(1, 0, 0, 1, 91, 0)"/></g><g transform="matrix(1, 0, 0, 1, -29, 391)"><path d="M 0,0 L 93,0" fill="none" stroke="transparent" stroke-width="8" stroke-linecap="butt" stroke-linejoin="miter" stroke-miterlimit="10" transform="matrix(1, 0, 0, 1, 4, 4)"/><path d="M 0,0 L 93,0" fill="none" stroke="#0F52BA" stroke-width="2" stroke-linecap="butt" stroke-linejoin="miter" stroke-miterlimit="10" transform="matrix(1, 0, 0, 1, 4, 4)"/><path d="M 0,0 L 8,4 L 0,8 L 2,4 z" fill="#0F52BA" stroke="none" transform="matrix(1, 0, 0, 1, 93, 0)"/></g><g transform="matrix(1, 0, 0, 1, 118, 441)"><path d="M 0,0 L 0,57" fill="none" stroke="transparent" stroke-width="8" stroke-linecap="butt" stroke-linejoin="miter" stroke-miterlimit="10" transform="matrix(1, 0, 0, 1, 4, 4)"/><path d="M 0,0 L 0,57" fill="none" stroke="#0F52BA" stroke-width="2" stroke-linecap="butt" stroke-linejoin="miter" stroke-miterlimit="10" transform="matrix(1, 0, 0, 1, 4, 4)"/><path d="M 0,0 L 8,4 L 0,8 L 2,4 z" fill="#0F52BA" stroke="none" transform="matrix(0, 1, -1, 0, 8, 57)"/></g><g transform="matrix(1, 0, 0, 1, 58, 552)"><path d="M 10,0 L 5,0 Q 0,0 0,5 L 0,90 Q 0,95 5,95 L 34,95" fill="none" stroke="transparent" stroke-width="8" stroke-linecap="butt" stroke-linejoin="miter" stroke-miterlimit="10" transform="matrix(1, 0, 0, 1, 4, 4)"/><path d="M 10,0 L 5,0 Q 0,0 0,5 L 0,90 Q 0,95 5,95 L 34,95" fill="none" stroke="#0F52BA" stroke-width="2" stroke-linecap="butt" stroke-linejoin="miter" stroke-miterlimit="10" transform="matrix(1, 0, 0, 1, 4, 4)"/><path d="M 0,0 L 8,4 L 0,8 L 2,4 z" fill="#0F52BA" stroke="none" transform="matrix(1, 0, 0, 1, 34, 95)"/></g><g transform="matrix(1, 0, 0, 1, 58, 552)"><path d="M 10,0 L 5,0 Q 0,0 0,5 L 0,177 Q 0,182 5,182 L 32,182" fill="none" stroke="transparent" stroke-width="8" stroke-linecap="butt" stroke-linejoin="miter" stroke-miterlimit="10" transform="matrix(1, 0, 0, 1, 4, 4)"/><path d="M 10,0 L 5,0 Q 0,0 0,5 L 0,177 Q 0,182 5,182 L 32,182" fill="none" stroke="#0F52BA" stroke-width="2" stroke-linecap="butt" stroke-linejoin="miter" stroke-miterlimit="10" transform="matrix(1, 0, 0, 1, 4, 4)"/><path d="M 0,0 L 8,4 L 0,8 L 2,4 z" fill="#0F52BA" stroke="none" transform="matrix(1, 0, 0, 1, 32, 182)"/></g><g transform="matrix(1, 0, 0, 1, 58, 552)"><path d="M 10,0 L 5,0 Q 0,0 0,5 L 0,274 Q 0,279 5,279 L 37,279" fill="none" stroke="transparent" stroke-width="8" stroke-linecap="butt" stroke-linejoin="miter" stroke-miterlimit="10" transform="matrix(1, 0, 0, 1, 4, 4)"/><path d="M 10,0 L 5,0 Q 0,0 0,5 L 0,274 Q 0,279 5,279 L 37,279" fill="none" stroke="#0F52BA" stroke-width="2" stroke-linecap="butt" stroke-linejoin="miter" stroke-miterlimit="10" transform="matrix(1, 0, 0, 1, 4, 4)"/><path d="M 0,0 L 8,4 L 0,8 L 2,4 z" fill="#0F52BA" stroke="none" transform="matrix(1, 0, 0, 1, 37, 279)"/></g><g transform="matrix(1, 0, 0, 1, 168, 463)"><path d="M 0,89 L 55,89 Q 60,89 60,84 L 60,5 Q 60,0 65,0 L 116,0" fill="none" stroke="transparent" stroke-width="8" stroke-linecap="butt" stroke-linejoin="miter" stroke-miterlimit="10" transform="matrix(1, 0, 0, 1, 4, 4)"/><path d="M 0,89 L 55,89 Q 60,89 60,84 L 60,5 Q 60,0 65,0 L 116,0" fill="none" stroke="#0F52BA" stroke-width="2" stroke-linecap="butt" stroke-linejoin="miter" stroke-miterlimit="10" transform="matrix(1, 0, 0, 1, 4, 4)"/><path d="M 0,0 L 8,4 L 0,8 L 2,4 z" fill="#0F52BA" stroke="none" transform="matrix(1, 0, 0, 1, 116, 0)"/></g><g transform="matrix(1, 0, 0, 1, 168, 552)"><path d="M 0,0 L 117,0" fill="none" stroke="transparent" stroke-width="8" stroke-linecap="butt" stroke-linejoin="miter" stroke-miterlimit="10" transform="matrix(1, 0, 0, 1, 4, 4)"/><path d="M 0,0 L 117,0" fill="none" stroke="#0F52BA" stroke-width="2" stroke-linecap="butt" stroke-linejoin="miter" stroke-miterlimit="10" transform="matrix(1, 0, 0, 1, 4, 4)"/><path d="M 0,0 L 8,4 L 0,8 L 2,4 z" fill="#0F52BA" stroke="none" transform="matrix(1, 0, 0, 1, 117, 0)"/></g><g transform="matrix(1, 0, 0, 1, 196, 647)"><path d="M 0,0 L 93,0" fill="none" stroke="transparent" stroke-width="8" stroke-linecap="butt" stroke-linejoin="miter" stroke-miterlimit="10" transform="matrix(1, 0, 0, 1, 4, 4)"/><path d="M 0,0 L 93,0" fill="none" stroke="#0F52BA" stroke-width="2" stroke-linecap="butt" stroke-linejoin="miter" stroke-miterlimit="10" transform="matrix(1, 0, 0, 1, 4, 4)"/><path d="M 0,0 L 8,4 L 0,8 L 2,4 z" fill="#0F52BA" stroke="none" transform="matrix(1, 0, 0, 1, 93, 0)"/></g><g transform="matrix(1, 0, 0, 1, 199, 745)"><path d="M 0,86 L 42.5,86 Q 47.5,86 47.5,81 L 47.5,5 Q 47.5,0 52.5,0 L 91,0" fill="none" stroke="transparent" stroke-width="8" stroke-linecap="butt" stroke-linejoin="miter" stroke-miterlimit="10" transform="matrix(1, 0, 0, 1, 4, 4)"/><path d="M 0,86 L 42.5,86 Q 47.5,86 47.5,81 L 47.5,5 Q 47.5,0 52.5,0 L 91,0" fill="none" stroke="#0F52BA" stroke-width="2" stroke-linecap="butt" stroke-linejoin="miter" stroke-miterlimit="10" transform="matrix(1, 0, 0, 1, 4, 4)"/><path d="M 0,0 L 8,4 L 0,8 L 2,4 z" fill="#0F52BA" stroke="none" transform="matrix(1, 0, 0, 1, 91, 0)"/></g><g transform="matrix(1, 0, 0, 1, 199, 831)"><path d="M 0,0 L 90,0" fill="none" stroke="transparent" stroke-width="8" stroke-linecap="butt" stroke-linejoin="miter" stroke-miterlimit="10" transform="matrix(1, 0, 0, 1, 4, 4)"/><path d="M 0,0 L 90,0" fill="none" stroke="#0F52BA" stroke-width="2" stroke-linecap="butt" stroke-linejoin="miter" stroke-miterlimit="10" transform="matrix(1, 0, 0, 1, 4, 4)"/><path d="M 0,0 L 8,4 L 0,8 L 2,4 z" fill="#0F52BA" stroke="none" transform="matrix(1, 0, 0, 1, 90, 0)"/></g><g transform="matrix(1, 0, 0, 1, 168, 391)"><path d="M 0,0 L 251,0 Q 256,0 256,5 L 256,718 Q 256,723 261,723 L 298,723" fill="none" stroke="transparent" stroke-width="8" stroke-linecap="butt" stroke-linejoin="miter" stroke-miterlimit="10" transform="matrix(1, 0, 0, 1, 4, 4)"/><path d="M 0,0 L 251,0 Q 256,0 256,5 L 256,718 Q 256,723 261,723 L 298,723" fill="none" stroke="#0F52BA" stroke-width="2" stroke-linecap="butt" stroke-linejoin="miter" stroke-miterlimit="10" transform="matrix(1, 0, 0, 1, 4, 4)"/><path d="M 0,0 L 8,4 L 0,8 L 2,4 z" fill="#0F52BA" stroke="none" transform="matrix(1, 0, 0, 1, 298, 723)"/></g><g transform="matrix(1, 0, 0, 1, 433.5, 393)"><path d="M 79,771 L 79,778 Q 79,783 74,783 L 5,783 Q 0,783 0,778 L 0,726 C -10,726 -10,716 0,716 L 0,5 Q 0,0 5,0 L 35,0" fill="none" stroke="transparent" stroke-width="8" stroke-linecap="butt" stroke-linejoin="miter" stroke-miterlimit="10" transform="matrix(1, 0, 0, 1, 11.5, 4)"/><path d="M 79,771 L 79,778 Q 79,783 74,783 L 5,783 Q 0,783 0,778 L 0,726 C -10,726 -10,716 0,716 L 0,5 Q 0,0 5,0 L 35,0" fill="none" stroke="#0F52BA" stroke-width="2" stroke-linecap="butt" stroke-linejoin="miter" stroke-miterlimit="10" transform="matrix(1, 0, 0, 1, 11.5, 4)"/><path d="M 0,0 L 8,4 L 0,8 L 2,4 z" fill="#0F52BA" stroke="none" transform="matrix(1, 0, 0, 1, 42.5, 0)"/></g><g transform="matrix(1, 0, 0, 1, 530, 443)"><path d="M 0,0 L 0,47" fill="none" stroke="transparent" stroke-width="8" stroke-linecap="butt" stroke-linejoin="miter" stroke-miterlimit="10" transform="matrix(1, 0, 0, 1, 4, 4)"/><path d="M 0,0 L 0,47" fill="none" stroke="#0F52BA" stroke-width="2" stroke-linecap="butt" stroke-linejoin="miter" stroke-miterlimit="10" transform="matrix(1, 0, 0, 1, 4, 4)"/><path d="M 0,0 L 8,4 L 0,8 L 2,4 z" fill="#0F52BA" stroke="none" transform="matrix(0, 1, -1, 0, 8, 47)"/></g><g transform="matrix(1, 0, 0, 1, 530, 594)"><path d="M 0,0 L 0,42" fill="none" stroke="transparent" stroke-width="8" stroke-linecap="butt" stroke-linejoin="miter" stroke-miterlimit="10" transform="matrix(1, 0, 0, 1, 4, 4)"/><path d="M 0,0 L 0,42" fill="none" stroke="#0F52BA" stroke-width="2" stroke-linecap="butt" stroke-linejoin="miter" stroke-miterlimit="10" transform="matrix(1, 0, 0, 1, 4, 4)"/><path d="M 0,0 L 8,4 L 0,8 L 2,4 z" fill="#0F52BA" stroke="none" transform="matrix(0, 1, -1, 0, 8, 42)"/></g><g transform="matrix(1, 0, 0, 1, 580, 393)"><path d="M 0,0 L 140,0" fill="none" stroke="transparent" stroke-width="8" stroke-linecap="butt" stroke-linejoin="miter" stroke-miterlimit="10" transform="matrix(1, 0, 0, 1, 4, 4)"/><path d="M 0,0 L 140,0" fill="none" stroke="#0F52BA" stroke-width="2" stroke-linecap="butt" stroke-linejoin="miter" stroke-miterlimit="10" transform="matrix(1, 0, 0, 1, 4, 4)"/><path d="M 0,0 L 8,4 L 0,8 L 2,4 z" fill="#0F52BA" stroke="none" transform="matrix(1, 0, 0, 1, 140, 0)"/></g><g transform="matrix(1, 0, 0, 1, 580, 453)"><path d="M 0,91 L 15.5,91 Q 20.5,91 20.5,86 L 20.5,5 Q 20.5,0 25.5,0 L 37,0" fill="none" stroke="transparent" stroke-width="8" stroke-linecap="butt" stroke-linejoin="miter" stroke-miterlimit="10" transform="matrix(1, 0, 0, 1, 4, 4)"/><path d="M 0,91 L 15.5,91 Q 20.5,91 20.5,86 L 20.5,5 Q 20.5,0 25.5,0 L 37,0" fill="none" stroke="#0F52BA" stroke-width="2" stroke-linecap="butt" stroke-linejoin="miter" stroke-miterlimit="10" transform="matrix(1, 0, 0, 1, 4, 4)"/><path d="M 0,0 L 8,4 L 0,8 L 2,4 z" fill="#0F52BA" stroke="none" transform="matrix(1, 0, 0, 1, 37, 0)"/></g><g transform="matrix(1, 0, 0, 1, 580, 527)"><path d="M 0,17 L 15,17 Q 20,17 20,12 L 20,5 Q 20,0 25,0 L 36,0" fill="none" stroke="transparent" stroke-width="8" stroke-linecap="butt" stroke-linejoin="miter" stroke-miterlimit="10" transform="matrix(1, 0, 0, 1, 4, 4)"/><path d="M 0,17 L 15,17 Q 20,17 20,12 L 20,5 Q 20,0 25,0 L 36,0" fill="none" stroke="#0F52BA" stroke-width="2" stroke-linecap="butt" stroke-linejoin="miter" stroke-miterlimit="10" transform="matrix(1, 0, 0, 1, 4, 4)"/><path d="M 0,0 L 8,4 L 0,8 L 2,4 z" fill="#0F52BA" stroke="none" transform="matrix(1, 0, 0, 1, 36, 0)"/></g><g transform="matrix(1, 0, 0, 1, 580, 544)"><path d="M 0,0 L 15.5,0 Q 20.5,0 20.5,5 L 20.5,50 Q 20.5,55 25.5,55 L 37,55" fill="none" stroke="transparent" stroke-width="8" stroke-linecap="butt" stroke-linejoin="miter" stroke-miterlimit="10" transform="matrix(1, 0, 0, 1, 4, 4)"/><path d="M 0,0 L 15.5,0 Q 20.5,0 20.5,5 L 20.5,50 Q 20.5,55 25.5,55 L 37,55" fill="none" stroke="#0F52BA" stroke-width="2" stroke-linecap="butt" stroke-linejoin="miter" stroke-miterlimit="10" transform="matrix(1, 0, 0, 1, 4, 4)"/><path d="M 0,0 L 8,4 L 0,8 L 2,4 z" fill="#0F52BA" stroke="none" transform="matrix(1, 0, 0, 1, 37, 55)"/></g><g transform="matrix(1, 0, 0, 1, 580, 544)"><path d="M 0,0 L 15,0 Q 20,0 20,5 L 20,123 Q 20,128 25,128 L 36,128" fill="none" stroke="transparent" stroke-width="8" stroke-linecap="butt" stroke-linejoin="miter" stroke-miterlimit="10" transform="matrix(1, 0, 0, 1, 4, 4)"/><path d="M 0,0 L 15,0 Q 20,0 20,5 L 20,123 Q 20,128 25,128 L 36,128" fill="none" stroke="#0F52BA" stroke-width="2" stroke-linecap="butt" stroke-linejoin="miter" stroke-miterlimit="10" transform="matrix(1, 0, 0, 1, 4, 4)"/><path d="M 0,0 L 8,4 L 0,8 L 2,4 z" fill="#0F52BA" stroke="none" transform="matrix(1, 0, 0, 1, 36, 128)"/></g><g transform="matrix(1, 0, 0, 1, 580, 544)"><path d="M 0,0 L 14,0 Q 19,0 19,5 L 19,196 Q 19,201 24,201 L 34,201" fill="none" stroke="transparent" stroke-width="8" stroke-linecap="butt" stroke-linejoin="miter" stroke-miterlimit="10" transform="matrix(1, 0, 0, 1, 4, 4)"/><path d="M 0,0 L 14,0 Q 19,0 19,5 L 19,196 Q 19,201 24,201 L 34,201" fill="none" stroke="#0F52BA" stroke-width="2" stroke-linecap="butt" stroke-linejoin="miter" stroke-miterlimit="10" transform="matrix(1, 0, 0, 1, 4, 4)"/><path d="M 0,0 L 8,4 L 0,8 L 2,4 z" fill="#0F52BA" stroke="none" transform="matrix(1, 0, 0, 1, 34, 201)"/></g><g transform="matrix(1, 0, 0, 1, 569, 974)"><path d="M 0,69 L 26,69 Q 31,69 31,64 L 31,5 Q 31,0 36,0 L 49,0" fill="none" stroke="transparent" stroke-width="8" stroke-linecap="butt" stroke-linejoin="miter" stroke-miterlimit="10" transform="matrix(1, 0, 0, 1, 4, 4)"/><path d="M 0,69 L 26,69 Q 31,69 31,64 L 31,5 Q 31,0 36,0 L 49,0" fill="none" stroke="#0F52BA" stroke-width="2" stroke-linecap="butt" stroke-linejoin="miter" stroke-miterlimit="10" transform="matrix(1, 0, 0, 1, 4, 4)"/><path d="M 0,0 L 8,4 L 0,8 L 2,4 z" fill="#0F52BA" stroke="none" transform="matrix(1, 0, 0, 1, 49, 0)"/></g><g transform="matrix(1, 0, 0, 1, 811, 1018)"><path d="M 0,0 L 0,42" fill="none" stroke="transparent" stroke-width="8" stroke-linecap="butt" stroke-linejoin="miter" stroke-miterlimit="10" transform="matrix(1, 0, 0, 1, 4, 4)"/><path d="M 0,0 L 0,42" fill="none" stroke="#0F52BA" stroke-width="2" stroke-linecap="butt" stroke-linejoin="miter" stroke-miterlimit="10" transform="matrix(1, 0, 0, 1, 4, 4)"/><path d="M 0,0 L 8,4 L 0,8 L 2,4 z" fill="#0F52BA" stroke="none" transform="matrix(0, 1, -1, 0, 8, 42)"/></g><g transform="matrix(1, 0, 0, 1, 569, 968)"><path d="M 0,75 L 162,75 Q 167,75 167,70 L 167,5 Q 167,0 172,0 L 188,0" fill="none" stroke="transparent" stroke-width="8" stroke-linecap="butt" stroke-linejoin="miter" stroke-miterlimit="10" transform="matrix(1, 0, 0, 1, 4, 4)"/><path d="M 0,75 L 162,75 Q 167,75 167,70 L 167,5 Q 167,0 172,0 L 188,0" fill="none" stroke="#0F52BA" stroke-width="2" stroke-linecap="butt" stroke-linejoin="miter" stroke-miterlimit="10" transform="matrix(1, 0, 0, 1, 4, 4)"/><path d="M 0,0 L 8,4 L 0,8 L 2,4 z" fill="#0F52BA" stroke="none" transform="matrix(1, 0, 0, 1, 188, 0)"/></g><g transform="matrix(1, 0, 0, 1, 569, 969)"><path d="M 0,1 L 16,1 Q 21,1 21,6 L 21,69 C 11,69 11,79 21,79 L 21,183 Q 21,188 26,188 L 390,188 Q 395,188 395,183 L 395,5 Q 395,0 400,0 L 436,0" fill="none" stroke="transparent" stroke-width="8" stroke-linecap="butt" stroke-linejoin="miter" stroke-miterlimit="10" transform="matrix(1, 0, 0, 1, 4, 4)"/><path d="M 0,1 L 16,1 Q 21,1 21,6 L 21,69 C 11,69 11,79 21,79 L 21,183 Q 21,188 26,188 L 390,188 Q 395,188 395,183 L 395,5 Q 395,0 400,0 L 436,0" fill="none" stroke="#0F52BA" stroke-width="2" stroke-linecap="butt" stroke-linejoin="miter" stroke-miterlimit="10" transform="matrix(1, 0, 0, 1, 4, 4)"/><path d="M 0,0 L 8,4 L 0,8 L 2,4 z" fill="#0F52BA" stroke="none" transform="matrix(1, 0, 0, 1, 436, 0)"/></g></g></g><clipPath id="mainClip2120"><rect x="0" y="0" width="1444px" height="841px"/></clipPath></svg>