<svg width="755px" height="731px" viewBox="0 0 755 731" xmlns="http://www.w3.org/2000/svg" xmlns:xlink="http://www.w3.org/1999/xlink" style="width: 755px; height: 731px;"><g transform="matrix(1, 0, 0, 1, 0, 0)" clip-path="url(#mainClip1731)"><rect x="0" y="0" width="755" height="731" fill="white" stroke="none" transform="matrix(1, 0, 0, 1, 0, 0)"/><g transform="matrix(1, 0, 0, 1, 311.64691162109375, 37.75)"><g transform="matrix(1, 0, 0, 1, 302.84789276123047, -32.75029907226562)"><g transform="matrix(1, 0, 0, 1, 0, 0)"><path d="M 0,0 L 83.4781608581543,0 L 111.30421447753906,10.625149536132811 L 111.30421447753906,42.500598144531246 L 0,42.500598144531246 z" fill="#282c34" stroke="none" transform="matrix(1, 0, 0, 1, 1.5, 1.5)"/><path d="M 0,0 L 83.4781608581543,0 L 111.30421447753906,10.625149536132811 L 111.30421447753906,42.500598144531246 L 0,42.500598144531246 z" fill="none" stroke="#DEE0A3" stroke-width="3" stroke-linecap="butt" stroke-linejoin="miter" stroke-miterlimit="10" transform="matrix(1, 0, 0, 1, 1.5, 1.5)"/><path d="M 83.4781608581543,0 L 83.4781608581543,10.625149536132811 L 111.30421447753906,10.625149536132811" fill="none" stroke="#DEE0A3" stroke-width="3" stroke-linecap="butt" stroke-linejoin="miter" stroke-miterlimit="10" transform="matrix(1, 0, 0, 1, 1.5, 1.5)"/></g><text x="47.65210723876953" y="11.906586456298829" style="font: bold 11pt Lato, Helvetica, Arial, sans-serif" text-anchor="middle" fill="#F8F8F8" stroke="none" transform="matrix(1, 0, 0, 1, 9.5, 20.50014953613281)">Kookie Brittle</text></g><g transform="matrix(1, 0, 0, 1, 138.25, -36.75)"><g transform="matrix(1, 0, 0, 1, 0, 0)"><path d="M 35,0 C 54.329966244077774,0 70,15.670033755922226 70,35 C 70,54.329966244077774 54.329966244077774,70 35,70 C 15.670033755922226,70 0,54.329966244077774 0,35 C 0,15.670033755922226 15.670033755922226,0 35,0 z" fill="#282c34" stroke="none" transform="matrix(1, 0, 0, 1, 1.75, 1.75)"/><path d="M 35,0 C 54.329966244077774,0 70,15.670033755922226 70,35 C 70,54.329966244077774 54.329966244077774,70 35,70 C 15.670033755922226,70 0,54.329966244077774 0,35 C 0,15.670033755922226 15.670033755922226,0 35,0 z" fill="none" stroke="#09d3ac" stroke-width="3.5" stroke-linecap="butt" stroke-linejoin="miter" stroke-miterlimit="10" transform="matrix(1, 0, 0, 1, 1.75, 1.75)"/><text x="0" y="11.906586456298829" style="font: bold 11pt Lato, Helvetica, Arial, sans-serif" text-anchor="start" fill="#F8F8F8" stroke="none" transform="matrix(1, 0, 0, 1, 20.049942016601562, 28.812275695800782)">Start</text></g><path d="M 0,0 L 8,0 L 8,73.5 L 0,73.5 z" fill="transparent" stroke="none" transform="matrix(1, 0, 0, 1, 0, 0)"/><path d="M 0,0 L 8,0 L 8,73.5 L 0,73.5 z" fill="transparent" stroke="none" transform="matrix(1, 0, 0, 1, 65.5, 0)"/><path d="M 0,0 L 73.5,0 L 73.5,8 L 0,8 z" fill="transparent" stroke="none" transform="matrix(1, 0, 0, 1, 0, 65.5)"/></g><g transform="matrix(1, 0, 0, 1, -90.51950073242188, 57.31227569580078)"><g transform="matrix(1, 0, 0, 1, 0, 0)"><path d="M 0,0 L 167.53900146484375,0 L 167.53900146484375,31.875448608398436 L 0,31.875448608398436 z" fill="#282c34" stroke="none" transform="matrix(1, 0, 0, 1, 1.75, 1.75)"/><path d="M 0,0 L 167.53900146484375,0 L 167.53900146484375,31.875448608398436 L 0,31.875448608398436 z" fill="none" stroke="#00A9C9" stroke-width="3.5" stroke-linecap="butt" stroke-linejoin="miter" stroke-miterlimit="10" transform="matrix(1, 0, 0, 1, 1.75, 1.75)"/><text x="0" y="11.906586456298829" style="font: bold 11pt Lato, Helvetica, Arial, sans-serif" text-anchor="start" fill="#F8F8F8" stroke="none" transform="matrix(1, 0, 0, 1, 9.75, 9.75)">Preheat oven to 375 F</text></g><path d="M 0,0 L 171.03900146484375,0 L 171.03900146484375,8 L 0,8 z" fill="transparent" stroke="none" transform="matrix(1, 0, 0, 1, 0, 0)"/><path d="M 0,0 L 8,0 L 8,35.375448608398436 L 0,35.375448608398436 z" fill="transparent" stroke="none" transform="matrix(1, 0, 0, 1, 0, 0)"/><path d="M 0,0 L 8,0 L 8,35.375448608398436 L 0,35.375448608398436 z" fill="transparent" stroke="none" transform="matrix(1, 0, 0, 1, 163.03900146484375, 0)"/><path d="M 0,0 L 171.03900146484375,0 L 171.03900146484375,8 L 0,8 z" fill="transparent" stroke="none" transform="matrix(1, 0, 0, 1, 0, 27.375448608398436)"/></g><g transform="matrix(1, 0, 0, 1, 86.65298461914062, 58.49910278320313)"><g transform="matrix(1, 0, 0, 1, 0, 0)"><path d="M 0,0 L 173.19403076171875,0 L 173.19403076171875,79.50179443359374 L 0,79.50179443359374 z" fill="#282c34" stroke="none" transform="matrix(1, 0, 0, 1, 1.75, 1.75)"/><path d="M 0,0 L 173.19403076171875,0 L 173.19403076171875,79.50179443359374 L 0,79.50179443359374 z" fill="none" stroke="#00A9C9" stroke-width="3.5" stroke-linecap="butt" stroke-linejoin="miter" stroke-miterlimit="10" transform="matrix(1, 0, 0, 1, 1.75, 1.75)"/><g transform="matrix(1, 0, 0, 1, 0, 0)"><text x="0" y="11.906586456298829" style="font: bold 11pt Lato, Helvetica, Arial, sans-serif" text-anchor="start" fill="#F8F8F8" stroke="none" transform="matrix(1, 0, 0, 1, 9.75, 9.75)">In a bowl, blend: 1 cup</text><text x="0" y="27.78203506469727" style="font: bold 11pt Lato, Helvetica, Arial, sans-serif" text-anchor="start" fill="#F8F8F8" stroke="none" transform="matrix(1, 0, 0, 1, 9.75, 9.75)">margarine, 1.5</text><text x="0" y="43.657483673095705" style="font: bold 11pt Lato, Helvetica, Arial, sans-serif" text-anchor="start" fill="#F8F8F8" stroke="none" transform="matrix(1, 0, 0, 1, 9.75, 9.75)">teaspoon vanilla, 1</text><text x="0" y="59.53293228149414" style="font: bold 11pt Lato, Helvetica, Arial, sans-serif" text-anchor="start" fill="#F8F8F8" stroke="none" transform="matrix(1, 0, 0, 1, 9.75, 9.75)">teaspoon salt</text></g></g><path d="M 0,0 L 176.69403076171875,0 L 176.69403076171875,8 L 0,8 z" fill="transparent" stroke="none" transform="matrix(1, 0, 0, 1, 0, 0)"/><path d="M 0,0 L 8,0 L 8,83.00179443359374 L 0,83.00179443359374 z" fill="transparent" stroke="none" transform="matrix(1, 0, 0, 1, 0, 0)"/><path d="M 0,0 L 8,0 L 8,83.00179443359374 L 0,83.00179443359374 z" fill="transparent" stroke="none" transform="matrix(1, 0, 0, 1, 168.69403076171875, 0)"/><path d="M 0,0 L 176.69403076171875,0 L 176.69403076171875,8 L 0,8 z" fill="transparent" stroke="none" transform="matrix(1, 0, 0, 1, 0, 75.00179443359374)"/></g><g transform="matrix(1, 0, 0, 1, 89.8956527709961, 166.43682708740235)"><g transform="matrix(1, 0, 0, 1, 0, 0)"><path d="M 0,0 L 166.7086944580078,0 L 166.7086944580078,63.626345825195315 L 0,63.626345825195315 z" fill="#282c34" stroke="none" transform="matrix(1, 0, 0, 1, 1.75, 1.75)"/><path d="M 0,0 L 166.7086944580078,0 L 166.7086944580078,63.626345825195315 L 0,63.626345825195315 z" fill="none" stroke="#00A9C9" stroke-width="3.5" stroke-linecap="butt" stroke-linejoin="miter" stroke-miterlimit="10" transform="matrix(1, 0, 0, 1, 1.75, 1.75)"/><g transform="matrix(1, 0, 0, 1, 0, 0)"><text x="0" y="11.906586456298829" style="font: bold 11pt Lato, Helvetica, Arial, sans-serif" text-anchor="start" fill="#F8F8F8" stroke="none" transform="matrix(1, 0, 0, 1, 9.75, 9.75)">Gradually beat in 1</text><text x="0" y="27.78203506469727" style="font: bold 11pt Lato, Helvetica, Arial, sans-serif" text-anchor="start" fill="#F8F8F8" stroke="none" transform="matrix(1, 0, 0, 1, 9.75, 9.75)">cup sugar and 2 cups</text><text x="0" y="43.657483673095705" style="font: bold 11pt Lato, Helvetica, Arial, sans-serif" text-anchor="start" fill="#F8F8F8" stroke="none" transform="matrix(1, 0, 0, 1, 9.75, 9.75)">sifted flour</text></g></g><path d="M 0,0 L 170.2086944580078,0 L 170.2086944580078,8 L 0,8 z" fill="transparent" stroke="none" transform="matrix(1, 0, 0, 1, 0, 0)"/><path d="M 0,0 L 8,0 L 8,67.12634582519532 L 0,67.12634582519532 z" fill="transparent" stroke="none" transform="matrix(1, 0, 0, 1, 0, 0)"/><path d="M 0,0 L 8,0 L 8,67.12634582519532 L 0,67.12634582519532 z" fill="transparent" stroke="none" transform="matrix(1, 0, 0, 1, 162.2086944580078, 0)"/><path d="M 0,0 L 170.2086944580078,0 L 170.2086944580078,8 L 0,8 z" fill="transparent" stroke="none" transform="matrix(1, 0, 0, 1, 0, 59.126345825195315)"/></g><g transform="matrix(1, 0, 0, 1, 94.24787139892578, 256.4368270874023)"><g transform="matrix(1, 0, 0, 1, 0, 0)"><path d="M 0,0 L 158.00425720214844,0 L 158.00425720214844,63.626345825195315 L 0,63.626345825195315 z" fill="#282c34" stroke="none" transform="matrix(1, 0, 0, 1, 1.75, 1.75)"/><path d="M 0,0 L 158.00425720214844,0 L 158.00425720214844,63.626345825195315 L 0,63.626345825195315 z" fill="none" stroke="#00A9C9" stroke-width="3.5" stroke-linecap="butt" stroke-linejoin="miter" stroke-miterlimit="10" transform="matrix(1, 0, 0, 1, 1.75, 1.75)"/><g transform="matrix(1, 0, 0, 1, 0, 0)"><text x="0" y="11.906586456298829" style="font: bold 11pt Lato, Helvetica, Arial, sans-serif" text-anchor="start" fill="#F8F8F8" stroke="none" transform="matrix(1, 0, 0, 1, 9.75, 9.75)">Mix in 6 oz (1 cup)</text><text x="0" y="27.78203506469727" style="font: bold 11pt Lato, Helvetica, Arial, sans-serif" text-anchor="start" fill="#F8F8F8" stroke="none" transform="matrix(1, 0, 0, 1, 9.75, 9.75)">Nestle's Semi-Sweet</text><text x="0" y="43.657483673095705" style="font: bold 11pt Lato, Helvetica, Arial, sans-serif" text-anchor="start" fill="#F8F8F8" stroke="none" transform="matrix(1, 0, 0, 1, 9.75, 9.75)">Chocolate Morsels</text></g></g><path d="M 0,0 L 161.50425720214844,0 L 161.50425720214844,8 L 0,8 z" fill="transparent" stroke="none" transform="matrix(1, 0, 0, 1, 0, 0)"/><path d="M 0,0 L 8,0 L 8,67.12634582519532 L 0,67.12634582519532 z" fill="transparent" stroke="none" transform="matrix(1, 0, 0, 1, 0, 0)"/><path d="M 0,0 L 8,0 L 8,67.12634582519532 L 0,67.12634582519532 z" fill="transparent" stroke="none" transform="matrix(1, 0, 0, 1, 153.50425720214844, 0)"/><path d="M 0,0 L 161.50425720214844,0 L 161.50425720214844,8 L 0,8 z" fill="transparent" stroke="none" transform="matrix(1, 0, 0, 1, 0, 59.126345825195315)"/></g><g transform="matrix(1, 0, 0, 1, 97.60862731933594, 346.4368270874023)"><g transform="matrix(1, 0, 0, 1, 0, 0)"><path d="M 0,0 L 151.28274536132812,0 L 151.28274536132812,63.626345825195315 L 0,63.626345825195315 z" fill="#282c34" stroke="none" transform="matrix(1, 0, 0, 1, 1.75, 1.75)"/><path d="M 0,0 L 151.28274536132812,0 L 151.28274536132812,63.626345825195315 L 0,63.626345825195315 z" fill="none" stroke="#00A9C9" stroke-width="3.5" stroke-linecap="butt" stroke-linejoin="miter" stroke-miterlimit="10" transform="matrix(1, 0, 0, 1, 1.75, 1.75)"/><g transform="matrix(1, 0, 0, 1, 0, 0)"><text x="0" y="11.906586456298829" style="font: bold 11pt Lato, Helvetica, Arial, sans-serif" text-anchor="start" fill="#F8F8F8" stroke="none" transform="matrix(1, 0, 0, 1, 9.75, 9.75)">Press evenly into</text><text x="0" y="27.78203506469727" style="font: bold 11pt Lato, Helvetica, Arial, sans-serif" text-anchor="start" fill="#F8F8F8" stroke="none" transform="matrix(1, 0, 0, 1, 9.75, 9.75)">ungreased 15x10x1</text><text x="0" y="43.657483673095705" style="font: bold 11pt Lato, Helvetica, Arial, sans-serif" text-anchor="start" fill="#F8F8F8" stroke="none" transform="matrix(1, 0, 0, 1, 9.75, 9.75)">pan</text></g></g><path d="M 0,0 L 154.78274536132812,0 L 154.78274536132812,8 L 0,8 z" fill="transparent" stroke="none" transform="matrix(1, 0, 0, 1, 0, 0)"/><path d="M 0,0 L 8,0 L 8,67.12634582519532 L 0,67.12634582519532 z" fill="transparent" stroke="none" transform="matrix(1, 0, 0, 1, 0, 0)"/><path d="M 0,0 L 8,0 L 8,67.12634582519532 L 0,67.12634582519532 z" fill="transparent" stroke="none" transform="matrix(1, 0, 0, 1, 146.78274536132812, 0)"/><path d="M 0,0 L 154.78274536132812,0 L 154.78274536132812,8 L 0,8 z" fill="transparent" stroke="none" transform="matrix(1, 0, 0, 1, 0, 59.126345825195315)"/></g><g transform="matrix(1, 0, 0, 1, 268.2743225097656, 59.374551391601564)"><g transform="matrix(1, 0, 0, 1, 0, 0)"><path d="M 0,0 L 169.95135498046875,0 L 169.95135498046875,47.75089721679687 L 0,47.75089721679687 z" fill="#282c34" stroke="none" transform="matrix(1, 0, 0, 1, 1.75, 1.75)"/><path d="M 0,0 L 169.95135498046875,0 L 169.95135498046875,47.75089721679687 L 0,47.75089721679687 z" fill="none" stroke="#00A9C9" stroke-width="3.5" stroke-linecap="butt" stroke-linejoin="miter" stroke-miterlimit="10" transform="matrix(1, 0, 0, 1, 1.75, 1.75)"/><g transform="matrix(1, 0, 0, 1, 0, 0)"><text x="0" y="11.906586456298829" style="font: bold 11pt Lato, Helvetica, Arial, sans-serif" text-anchor="start" fill="#F8F8F8" stroke="none" transform="matrix(1, 0, 0, 1, 9.75, 9.75)">Finely chop 1/2 cup of</text><text x="0" y="27.78203506469727" style="font: bold 11pt Lato, Helvetica, Arial, sans-serif" text-anchor="start" fill="#F8F8F8" stroke="none" transform="matrix(1, 0, 0, 1, 9.75, 9.75)">your choice of nuts</text></g></g><path d="M 0,0 L 173.45135498046875,0 L 173.45135498046875,8 L 0,8 z" fill="transparent" stroke="none" transform="matrix(1, 0, 0, 1, 0, 0)"/><path d="M 0,0 L 8,0 L 8,51.25089721679687 L 0,51.25089721679687 z" fill="transparent" stroke="none" transform="matrix(1, 0, 0, 1, 0, 0)"/><path d="M 0,0 L 8,0 L 8,51.25089721679687 L 0,51.25089721679687 z" fill="transparent" stroke="none" transform="matrix(1, 0, 0, 1, 165.45135498046875, 0)"/><path d="M 0,0 L 173.45135498046875,0 L 173.45135498046875,8 L 0,8 z" fill="transparent" stroke="none" transform="matrix(1, 0, 0, 1, 0, 43.25089721679687)"/></g><g transform="matrix(1, 0, 0, 1, 94.39458465576172, 432.3122756958008)"><g transform="matrix(1, 0, 0, 1, 0, 0)"><path d="M 0,0 L 157.71083068847656,0 L 157.71083068847656,31.875448608398436 L 0,31.875448608398436 z" fill="#282c34" stroke="none" transform="matrix(1, 0, 0, 1, 1.75, 1.75)"/><path d="M 0,0 L 157.71083068847656,0 L 157.71083068847656,31.875448608398436 L 0,31.875448608398436 z" fill="none" stroke="#00A9C9" stroke-width="3.5" stroke-linecap="butt" stroke-linejoin="miter" stroke-miterlimit="10" transform="matrix(1, 0, 0, 1, 1.75, 1.75)"/><text x="0" y="11.906586456298829" style="font: bold 11pt Lato, Helvetica, Arial, sans-serif" text-anchor="start" fill="#F8F8F8" stroke="none" transform="matrix(1, 0, 0, 1, 9.75, 9.75)">Sprinkle nuts on top</text></g><path d="M 0,0 L 161.21083068847656,0 L 161.21083068847656,8 L 0,8 z" fill="transparent" stroke="none" transform="matrix(1, 0, 0, 1, 0, 0)"/><path d="M 0,0 L 8,0 L 8,35.375448608398436 L 0,35.375448608398436 z" fill="transparent" stroke="none" transform="matrix(1, 0, 0, 1, 0, 0)"/><path d="M 0,0 L 8,0 L 8,35.375448608398436 L 0,35.375448608398436 z" fill="transparent" stroke="none" transform="matrix(1, 0, 0, 1, 153.21083068847656, 0)"/><path d="M 0,0 L 161.21083068847656,0 L 161.21083068847656,8 L 0,8 z" fill="transparent" stroke="none" transform="matrix(1, 0, 0, 1, 0, 27.375448608398436)"/></g><g transform="matrix(1, 0, 0, 1, 95.59001922607422, 489.3745513916016)"><g transform="matrix(1, 0, 0, 1, 0, 0)"><path d="M 0,0 L 155.31996154785156,0 L 155.31996154785156,47.75089721679687 L 0,47.75089721679687 z" fill="#282c34" stroke="none" transform="matrix(1, 0, 0, 1, 1.75, 1.75)"/><path d="M 0,0 L 155.31996154785156,0 L 155.31996154785156,47.75089721679687 L 0,47.75089721679687 z" fill="none" stroke="#00A9C9" stroke-width="3.5" stroke-linecap="butt" stroke-linejoin="miter" stroke-miterlimit="10" transform="matrix(1, 0, 0, 1, 1.75, 1.75)"/><g transform="matrix(1, 0, 0, 1, 0, 0)"><text x="0" y="11.906586456298829" style="font: bold 11pt Lato, Helvetica, Arial, sans-serif" text-anchor="start" fill="#F8F8F8" stroke="none" transform="matrix(1, 0, 0, 1, 9.75, 9.75)">Bake for 25 minutes</text><text x="0" y="27.78203506469727" style="font: bold 11pt Lato, Helvetica, Arial, sans-serif" text-anchor="start" fill="#F8F8F8" stroke="none" transform="matrix(1, 0, 0, 1, 9.75, 9.75)">and let cool</text></g></g><path d="M 0,0 L 158.81996154785156,0 L 158.81996154785156,8 L 0,8 z" fill="transparent" stroke="none" transform="matrix(1, 0, 0, 1, 0, 0)"/><path d="M 0,0 L 8,0 L 8,51.25089721679687 L 0,51.25089721679687 z" fill="transparent" stroke="none" transform="matrix(1, 0, 0, 1, 0, 0)"/><path d="M 0,0 L 8,0 L 8,51.25089721679687 L 0,51.25089721679687 z" fill="transparent" stroke="none" transform="matrix(1, 0, 0, 1, 150.81996154785156, 0)"/><path d="M 0,0 L 158.81996154785156,0 L 158.81996154785156,8 L 0,8 z" fill="transparent" stroke="none" transform="matrix(1, 0, 0, 1, 0, 43.25089721679687)"/></g><g transform="matrix(1, 0, 0, 1, 95.61148834228516, 559.3745513916016)"><g transform="matrix(1, 0, 0, 1, 0, 0)"><path d="M 0,0 L 155.2770233154297,0 L 155.2770233154297,47.75089721679687 L 0,47.75089721679687 z" fill="#282c34" stroke="none" transform="matrix(1, 0, 0, 1, 1.75, 1.75)"/><path d="M 0,0 L 155.2770233154297,0 L 155.2770233154297,47.75089721679687 L 0,47.75089721679687 z" fill="none" stroke="#00A9C9" stroke-width="3.5" stroke-linecap="butt" stroke-linejoin="miter" stroke-miterlimit="10" transform="matrix(1, 0, 0, 1, 1.75, 1.75)"/><g transform="matrix(1, 0, 0, 1, 0, 0)"><text x="0" y="11.906586456298829" style="font: bold 11pt Lato, Helvetica, Arial, sans-serif" text-anchor="start" fill="#F8F8F8" stroke="none" transform="matrix(1, 0, 0, 1, 9.75, 9.75)">Cut into rectangular</text><text x="0" y="27.78203506469727" style="font: bold 11pt Lato, Helvetica, Arial, sans-serif" text-anchor="start" fill="#F8F8F8" stroke="none" transform="matrix(1, 0, 0, 1, 9.75, 9.75)">grid</text></g></g><path d="M 0,0 L 158.7770233154297,0 L 158.7770233154297,8 L 0,8 z" fill="transparent" stroke="none" transform="matrix(1, 0, 0, 1, 0, 0)"/><path d="M 0,0 L 8,0 L 8,51.25089721679687 L 0,51.25089721679687 z" fill="transparent" stroke="none" transform="matrix(1, 0, 0, 1, 0, 0)"/><path d="M 0,0 L 8,0 L 8,51.25089721679687 L 0,51.25089721679687 z" fill="transparent" stroke="none" transform="matrix(1, 0, 0, 1, 150.7770233154297, 0)"/><path d="M 0,0 L 158.7770233154297,0 L 158.7770233154297,8 L 0,8 z" fill="transparent" stroke="none" transform="matrix(1, 0, 0, 1, 0, 43.25089721679687)"/></g><g transform="matrix(1, 0, 0, 1, 143.25, 628.25)"><g transform="matrix(1, 0, 0, 1, 0, 0)"><path d="M 30,0 C 46.568542494923804,0 60,13.431457505076192 60,30 C 60,46.568542494923804 46.568542494923804,60 30,60 C 13.431457505076192,60 0,46.568542494923804 0,30 C 0,13.431457505076192 13.431457505076192,0 30,0 z" fill="#282c34" stroke="none" transform="matrix(1, 0, 0, 1, 1.75, 1.75)"/><path d="M 30,0 C 46.568542494923804,0 60,13.431457505076192 60,30 C 60,46.568542494923804 46.568542494923804,60 30,60 C 13.431457505076192,60 0,46.568542494923804 0,30 C 0,13.431457505076192 13.431457505076192,0 30,0 z" fill="none" stroke="#DC3C00" stroke-width="3.5" stroke-linecap="butt" stroke-linejoin="miter" stroke-miterlimit="10" transform="matrix(1, 0, 0, 1, 1.75, 1.75)"/><text x="0" y="11.906586456298829" style="font: bold 11pt Lato, Helvetica, Arial, sans-serif" text-anchor="start" fill="#F8F8F8" stroke="none" transform="matrix(1, 0, 0, 1, 9.352005004882812, 23.812275695800782)">Enjoy!</text></g><path d="M 0,0 L 63.5,0 L 63.5,8 L 0,8 z" fill="transparent" stroke="none" transform="matrix(1, 0, 0, 1, 0, 0)"/><path d="M 0,0 L 8,0 L 8,63.5 L 0,63.5 z" fill="transparent" stroke="none" transform="matrix(1, 0, 0, 1, 0, 0)"/><path d="M 0,0 L 8,0 L 8,63.5 L 0,63.5 z" fill="transparent" stroke="none" transform="matrix(1, 0, 0, 1, 55.5, 0)"/></g><g transform="matrix(1, 0, 0, 1, 161.36565907555305, 137.5008972167969)"><path d="M 0,0 L 0,20.935929870605463" fill="none" stroke="transparent" stroke-width="8" stroke-linecap="butt" stroke-linejoin="miter" stroke-miterlimit="10" transform="matrix(1, 0, 0, 1, 13.634340924446937, 4)"/><path d="M 0,0 L 0,20.935929870605463" fill="none" stroke="gray" stroke-width="2" stroke-linecap="butt" stroke-linejoin="miter" stroke-miterlimit="10" transform="matrix(1, 0, 0, 1, 13.634340924446937, 4)"/><path d="M 0,0 L 8,4 L 0,8 L 2,4 z" fill="gray" stroke="none" transform="matrix(0, 1, -1, 0, 17.63434092444694, 20.935929870605463)"/></g><g transform="matrix(1, 0, 0, 1, 161.36565907555305, 229.56317291259768)"><path d="M 0,0 L 0,18.873654174804642" fill="none" stroke="transparent" stroke-width="8" stroke-linecap="butt" stroke-linejoin="miter" stroke-miterlimit="10" transform="matrix(1, 0, 0, 1, 13.634340924446937, 4)"/><path d="M 0,0 L 0,18.873654174804642" fill="none" stroke="gray" stroke-width="2" stroke-linecap="butt" stroke-linejoin="miter" stroke-miterlimit="10" transform="matrix(1, 0, 0, 1, 13.634340924446937, 4)"/><path d="M 0,0 L 8,4 L 0,8 L 2,4 z" fill="gray" stroke="none" transform="matrix(0, 1, -1, 0, 17.63434092444694, 18.873654174804642)"/></g><g transform="matrix(1, 0, 0, 1, 161.36565907555305, 319.5631729125976)"><path d="M 0,0 L 0,18.8736541748047" fill="none" stroke="transparent" stroke-width="8" stroke-linecap="butt" stroke-linejoin="miter" stroke-miterlimit="10" transform="matrix(1, 0, 0, 1, 13.634340924446937, 4)"/><path d="M 0,0 L 0,18.8736541748047" fill="none" stroke="gray" stroke-width="2" stroke-linecap="butt" stroke-linejoin="miter" stroke-miterlimit="10" transform="matrix(1, 0, 0, 1, 13.634340924446937, 4)"/><path d="M 0,0 L 8,4 L 0,8 L 2,4 z" fill="gray" stroke="none" transform="matrix(0, 1, -1, 0, 17.63434092444694, 18.8736541748047)"/></g><g transform="matrix(1, 0, 0, 1, 161.36565907555305, 409.5631729125976)"><path d="M 0,0 L 0,14.74910278320317" fill="none" stroke="transparent" stroke-width="8" stroke-linecap="butt" stroke-linejoin="miter" stroke-miterlimit="10" transform="matrix(1, 0, 0, 1, 13.634340924446937, 4)"/><path d="M 0,0 L 0,14.74910278320317" fill="none" stroke="gray" stroke-width="2" stroke-linecap="butt" stroke-linejoin="miter" stroke-miterlimit="10" transform="matrix(1, 0, 0, 1, 13.634340924446937, 4)"/><path d="M 0,0 L 8,4 L 0,8 L 2,4 z" fill="gray" stroke="none" transform="matrix(0, 1, -1, 0, 17.63434092444694, 14.74910278320317)"/></g><g transform="matrix(1, 0, 0, 1, 161.36565907555305, 463.6877243041992)"><path d="M 0,0 L 0,17.686827087402378" fill="none" stroke="transparent" stroke-width="8" stroke-linecap="butt" stroke-linejoin="miter" stroke-miterlimit="10" transform="matrix(1, 0, 0, 1, 13.634340924446937, 4)"/><path d="M 0,0 L 0,17.686827087402378" fill="none" stroke="gray" stroke-width="2" stroke-linecap="butt" stroke-linejoin="miter" stroke-miterlimit="10" transform="matrix(1, 0, 0, 1, 13.634340924446937, 4)"/><path d="M 0,0 L 8,4 L 0,8 L 2,4 z" fill="gray" stroke="none" transform="matrix(0, 1, -1, 0, 17.63434092444694, 17.686827087402378)"/></g><g transform="matrix(1, 0, 0, 1, 161.36565907555305, 536.6254486083984)"><path d="M 0,0 L 0,14.74910278320317" fill="none" stroke="transparent" stroke-width="8" stroke-linecap="butt" stroke-linejoin="miter" stroke-miterlimit="10" transform="matrix(1, 0, 0, 1, 13.634340924446937, 4)"/><path d="M 0,0 L 0,14.74910278320317" fill="none" stroke="gray" stroke-width="2" stroke-linecap="butt" stroke-linejoin="miter" stroke-miterlimit="10" transform="matrix(1, 0, 0, 1, 13.634340924446937, 4)"/><path d="M 0,0 L 8,4 L 0,8 L 2,4 z" fill="gray" stroke="none" transform="matrix(0, 1, -1, 0, 17.63434092444694, 14.74910278320317)"/></g><g transform="matrix(1, 0, 0, 1, 161.36565907555305, 606.6254486083984)"><path d="M 0,0 L 0,13.624551391601585" fill="none" stroke="transparent" stroke-width="8" stroke-linecap="butt" stroke-linejoin="miter" stroke-miterlimit="10" transform="matrix(1, 0, 0, 1, 13.634340924446937, 4)"/><path d="M 0,0 L 0,13.624551391601585" fill="none" stroke="gray" stroke-width="2" stroke-linecap="butt" stroke-linejoin="miter" stroke-miterlimit="10" transform="matrix(1, 0, 0, 1, 13.634340924446937, 4)"/><path d="M 0,0 L 8,4 L 0,8 L 2,4 z" fill="gray" stroke="none" transform="matrix(0, 1, -1, 0, 17.63434092444694, 13.624551391601585)"/></g><g transform="matrix(1, 0, 0, 1, -9, 32.75)"><path d="M 180,0 L 180,5.281137847900389 Q 180,10.28113784790039 175,10.28113784790039 L 5,10.28113784790039 Q 0,10.28113784790039 0,15.28113784790039 L 0,16.56227569580078" fill="none" stroke="transparent" stroke-width="8" stroke-linecap="butt" stroke-linejoin="miter" stroke-miterlimit="10" transform="matrix(1, 0, 0, 1, 4, 4)"/><path d="M 180,0 L 180,5.281137847900389 Q 180,10.28113784790039 175,10.28113784790039 L 5,10.28113784790039 Q 0,10.28113784790039 0,15.28113784790039 L 0,16.56227569580078" fill="none" stroke="gray" stroke-width="2" stroke-linecap="butt" stroke-linejoin="miter" stroke-miterlimit="10" transform="matrix(1, 0, 0, 1, 4, 4)"/><path d="M 0,0 L 8,4 L 0,8 L 2,4 z" fill="gray" stroke="none" transform="matrix(0, 1, -1, 0, 8, 16.56227569580078)"/></g><g transform="matrix(1, 0, 0, 1, 161.36565907555305, 32.75)"><path d="M 0,0 L 0,17.749102783203128" fill="none" stroke="transparent" stroke-width="8" stroke-linecap="butt" stroke-linejoin="miter" stroke-miterlimit="10" transform="matrix(1, 0, 0, 1, 13.634340924446937, 4)"/><path d="M 0,0 L 0,17.749102783203128" fill="none" stroke="gray" stroke-width="2" stroke-linecap="butt" stroke-linejoin="miter" stroke-miterlimit="10" transform="matrix(1, 0, 0, 1, 13.634340924446937, 4)"/><path d="M 0,0 L 8,4 L 0,8 L 2,4 z" fill="gray" stroke="none" transform="matrix(0, 1, -1, 0, 17.63434092444694, 17.749102783203128)"/></g><g transform="matrix(1, 0, 0, 1, 171, 32.75)"><path d="M 0,0 L 0,6.312275695800778 Q 0,11.312275695800778 5,11.312275695800778 L 175,11.312275695800778 Q 180,11.312275695800778 180,16.31227569580078 L 180,18.624551391601564" fill="none" stroke="transparent" stroke-width="8" stroke-linecap="butt" stroke-linejoin="miter" stroke-miterlimit="10" transform="matrix(1, 0, 0, 1, 4, 4)"/><path d="M 0,0 L 0,6.312275695800778 Q 0,11.312275695800778 5,11.312275695800778 L 175,11.312275695800778 Q 180,11.312275695800778 180,16.31227569580078 L 180,18.624551391601564" fill="none" stroke="gray" stroke-width="2" stroke-linecap="butt" stroke-linejoin="miter" stroke-miterlimit="10" transform="matrix(1, 0, 0, 1, 4, 4)"/><path d="M 0,0 L 8,4 L 0,8 L 2,4 z" fill="gray" stroke="none" transform="matrix(0, 1, -1, 0, 188, 18.624551391601564)"/></g><g transform="matrix(1, 0, 0, 1, 209.69568634033203, 106.62544860839844)"><path d="M 141.30431365966797,0 L 141.30431365966797,216.37455139160156 Q 141.30431365966797,221.37455139160156 136.30431365966797,221.37455139160156 L 5,221.37455139160156 Q 0,221.37455139160156 0,226.37455139160156 L 0,231.81137847900388" fill="none" stroke="transparent" stroke-width="8" stroke-linecap="butt" stroke-linejoin="miter" stroke-miterlimit="10" transform="matrix(1, 0, 0, 1, 4, 4)"/><path d="M 141.30431365966797,0 L 141.30431365966797,216.37455139160156 Q 141.30431365966797,221.37455139160156 136.30431365966797,221.37455139160156 L 5,221.37455139160156 Q 0,221.37455139160156 0,226.37455139160156 L 0,231.81137847900388" fill="none" stroke="gray" stroke-width="2" stroke-linecap="butt" stroke-linejoin="miter" stroke-miterlimit="10" transform="matrix(1, 0, 0, 1, 4, 4)"/><path d="M 0,0 L 8,4 L 0,8 L 2,4 z" fill="gray" stroke="none" transform="matrix(0, 1, -1, 0, 8, 231.81137847900388)"/></g><g transform="matrix(1, 0, 0, 1, -18.63434092444694, 88.68772430419921)"><path d="M 0,0 L 0,234.3122756958008 Q 0,239.3122756958008 5,239.3122756958008 L 136.30431365966797,239.3122756958008 Q 141.30431365966797,239.3122756958008 141.30431365966797,244.3122756958008 L 141.30431365966797,249.7491027832031" fill="none" stroke="transparent" stroke-width="8" stroke-linecap="butt" stroke-linejoin="miter" stroke-miterlimit="10" transform="matrix(1, 0, 0, 1, 13.634340924446937, 4)"/><path d="M 0,0 L 0,234.3122756958008 Q 0,239.3122756958008 5,239.3122756958008 L 136.30431365966797,239.3122756958008 Q 141.30431365966797,239.3122756958008 141.30431365966797,244.3122756958008 L 141.30431365966797,249.7491027832031" fill="none" stroke="gray" stroke-width="2" stroke-linecap="butt" stroke-linejoin="miter" stroke-miterlimit="10" transform="matrix(1, 0, 0, 1, 13.634340924446937, 4)"/><path d="M 0,0 L 8,4 L 0,8 L 2,4 z" fill="gray" stroke="none" transform="matrix(0, 1, -1, 0, 158.93865458411491, 249.7491027832031)"/></g><g transform="matrix(1, 0, 0, 1, -310.64691162109375, 177.75)"><g transform="matrix(1, 0, 0, 1, 0, 0)"><path d="M 120,0 L 0,120 L 120,240 L 240,120 z" fill="#282c34" stroke="none" transform="matrix(1, 0, 0, 1, 1.75, 1.75)"/><path d="M 120,0 L 0,120 L 120,240 L 240,120 z" fill="none" stroke="#00A9C9" stroke-width="3.5" stroke-linecap="butt" stroke-linejoin="miter" stroke-miterlimit="10" transform="matrix(1, 0, 0, 1, 1.75, 1.75)"/><text x="0" y="11.906586456298829" style="font: bold 11pt Lato, Helvetica, Arial, sans-serif" text-anchor="start" fill="#F8F8F8" stroke="none" transform="matrix(1, 0, 0, 1, 112.50321960449219, 113.81227569580078)">???</text><image x="0" y="0" width="41" height="48" xlink:href="topology/logo1.svg" preserveAspectRatio="none" transform="matrix(1, 0, 0, 1, 91.75, 91.75) scale(1.4634146341463414, 1.25)"/></g><path d="M 0,0 L 243.5,0 L 243.5,8 L 0,8 z" fill="transparent" stroke="none" transform="matrix(1, 0, 0, 1, 0, 0)"/><path d="M 0,0 L 8,0 L 8,243.5 L 0,243.5 z" fill="transparent" stroke="none" transform="matrix(1, 0, 0, 1, 0, 0)"/><path d="M 0,0 L 8,0 L 8,243.5 L 0,243.5 z" fill="transparent" stroke="none" transform="matrix(1, 0, 0, 1, 235.5, 0)"/><path d="M 0,0 L 243.5,0 L 243.5,8 L 0,8 z" fill="transparent" stroke="none" transform="matrix(1, 0, 0, 1, 0, 235.5)"/></g></g></g><clipPath id="mainClip1731"><rect x="0" y="0" width="755px" height="731px"/></clipPath></svg>