<svg width="103px" height="103px" viewBox="0 0 103 103" xmlns="http://www.w3.org/2000/svg" xmlns:xlink="http://www.w3.org/1999/xlink" style="width: 103px; height: 103px;"><g transform="matrix(1, 0, 0, 1, 0, 0)" clip-path="url(#mainClip1090)"><rect x="0" y="0" width="103" height="103" fill="white" stroke="none" transform="matrix(1, 0, 0, 1, 0, 0)"/><g transform="matrix(1, 0, 0, 1, 133.5, 173.5)"><g transform="matrix(1, 0, 0, 1, -132.5, -172.5)"><path d="M 0,0 L 100,0 L 100,100 L 0,100 z" fill="#787878" stroke="none" transform="matrix(1, 0, 0, 1, 0.5, 0.5)"/><path d="M 0,0 L 100,0 L 100,100 L 0,100 z" fill="none" stroke="black" stroke-width="1" stroke-linecap="butt" stroke-linejoin="miter" stroke-miterlimit="10" transform="matrix(1, 0, 0, 1, 0.5, 0.5)"/><text x="0" y="11.906586456298829" style="font: bold 11pt Lato, Helvetica, Arial, sans-serif" text-anchor="start" fill="#F8F8F8" stroke="none" transform="matrix(1, 0, 0, 1, 10.874053955078125, 8)">Core Switch</text><path d="M 0,0 L 100,0 L 100,8 L 0,8 z" fill="transparent" stroke="none" transform="matrix(1, 0, 0, 1, 0.5, 0)"/><path d="M 0,0 L 8,0 L 8,100 L 0,100 z" fill="transparent" stroke="none" transform="matrix(1, 0, 0, 1, 0, 0.5)"/><path d="M 0,0 L 8,0 L 8,100 L 0,100 z" fill="transparent" stroke="none" transform="matrix(1, 0, 0, 1, 93, 0.5)"/><path d="M 0,0 L 100,0 L 100,8 L 0,8 z" fill="transparent" stroke="none" transform="matrix(1, 0, 0, 1, 0.5, 93)"/><image x="0" y="0" width="96" height="96" xlink:href="topology/coreswitch.svg" preserveAspectRatio="none" transform="matrix(1, 0, 0, 1, 18, 18) scale(0.6770833333333334, 0.6770833333333334)"/></g></g></g><clipPath id="mainClip1090"><rect x="0" y="0" width="103px" height="103px"/></clipPath></svg>