<svg width="40" height="40" xmlns="http://www.w3.org/2000/svg" xmlns:xlink="http://www.w3.org/1999/xlink" xml:space="preserve" overflow="hidden"><defs><clipPath id="clip0"><rect x="522" y="350" width="40" height="40"/></clipPath></defs><g clip-path="url(#clip0)" transform="translate(-522 -350)"><path d="M538.458 367.667 539.625 366.5C539.042 365.875 538.667 365.042 538.667 364.125 538.667 363.208 539.042 362.375 539.625 361.75L538.458 360.583C537.542 361.5 537 362.75 537 364.125 537 365.5 537.542 366.75 538.458 367.667Z"/><path d="M536.125 370 537.292 368.833C536.083 367.625 535.333 365.958 535.333 364.125 535.333 362.292 536.083 360.625 537.292 359.417L536.125 358.25C534.583 359.75 533.667 361.833 533.667 364.125 533.667 366.417 534.583 368.5 536.125 370Z"/><path d="M534.917 371.208C533.125 369.417 532 366.917 532 364.125 532 361.333 533.125 358.875 534.917 357.042L533.75 355.875C531.625 358 530.333 360.917 530.333 364.125 530.333 367.333 531.625 370.25 533.75 372.375L534.917 371.208Z"/><path d="M545.542 367.667C546.458 366.75 547 365.5 547 364.125 547 362.75 546.458 361.5 545.542 360.583L544.375 361.75C544.958 362.333 545.333 363.167 545.333 364.125 545.333 365.083 544.958 365.875 544.375 366.5L545.542 367.667Z"/><path d="M546.708 368.833 547.875 370C549.417 368.5 550.333 366.417 550.333 364.125 550.333 361.833 549.417 359.75 547.875 358.25L546.708 359.417C547.917 360.625 548.667 362.292 548.667 364.125 548.667 365.958 547.917 367.625 546.708 368.833Z"/><path d="M549.083 371.208 550.25 372.375C552.375 370.25 553.667 367.333 553.667 364.125 553.667 360.917 552.375 358 550.25 355.875L549.083 357.042C550.875 358.833 552 361.333 552 364.125 552 366.917 550.875 369.375 549.083 371.208Z"/><path d="M552.833 380.792C552.375 380.792 552 380.417 552 379.958 552 379.5 552.375 379.125 552.833 379.125 553.292 379.125 553.667 379.5 553.667 379.958 553.667 380.417 553.292 380.792 552.833 380.792ZM548.667 380.792C548.208 380.792 547.833 380.417 547.833 379.958 547.833 379.5 548.208 379.125 548.667 379.125 549.125 379.125 549.5 379.5 549.5 379.958 549.5 380.417 549.125 380.792 548.667 380.792ZM544.5 380.792C544.042 380.792 543.667 380.417 543.667 379.958 543.667 379.5 544.042 379.125 544.5 379.125 544.958 379.125 545.333 379.5 545.333 379.958 545.333 380.417 544.958 380.792 544.5 380.792ZM540.333 380.792C539.875 380.792 539.5 380.417 539.5 379.958 539.5 379.5 539.875 379.125 540.333 379.125 540.792 379.125 541.167 379.5 541.167 379.958 541.167 380.417 540.792 380.792 540.333 380.792ZM532 381.625C531.083 381.625 530.333 380.875 530.333 379.958 530.333 379.042 531.083 378.292 532 378.292 532.917 378.292 533.667 379.042 533.667 379.958 533.667 380.875 532.917 381.625 532 381.625ZM554.5 375.792 542.833 375.792 542.833 365.542C543.333 365.25 543.667 364.708 543.667 364.125 543.667 363.208 542.917 362.458 542 362.458 541.083 362.458 540.333 363.208 540.333 364.125 540.333 364.75 540.667 365.292 541.167 365.542L541.167 375.792 529.5 375.792C528.583 375.792 527.833 376.542 527.833 377.458L527.833 382.458C527.833 383.375 528.583 384.125 529.5 384.125L554.5 384.125C555.417 384.125 556.167 383.375 556.167 382.458L556.167 377.458C556.167 376.542 555.417 375.792 554.5 375.792Z"/></g></svg>