<svg width="96" height="96" xmlns="http://www.w3.org/2000/svg" xmlns:xlink="http://www.w3.org/1999/xlink" xml:space="preserve" overflow="hidden"><defs><clipPath id="clip0"><rect x="324" y="63" width="96" height="96"/></clipPath></defs><g clip-path="url(#clip0)" transform="translate(-324 -63)"><path d="M411 97 333 97C330.24 97.0033 328.003 99.2399 328 102L328 116C328.003 118.76 330.24 120.997 333 121L335 121 335 122C335 124.209 336.791 126 339 126L345 126C347.209 126 349 124.209 349 122L349 121 394 121 394 122C394 124.209 395.791 126 398 126L404 126C406.209 126 408 124.209 408 122L408 121 411 121C413.76 120.997 415.997 118.76 416 116L416 102C415.997 99.2399 413.76 97.0033 411 97ZM347 122C347 123.105 346.105 124 345 124L339 124C337.895 124 337 123.105 337 122L337 121 347 121ZM406 122C406 123.105 405.105 124 404 124L398 124C396.895 124 396 123.105 396 122L396 121 406 121ZM414 116C414 117.657 412.657 119 411 119L333 119C331.343 119 330 117.657 330 116L330 102C330 100.343 331.343 99 333 99L411 99C412.657 99 414 100.343 414 102Z"/><path d="M407.5 109C407.5 110.381 406.381 111.5 405 111.5 403.619 111.5 402.5 110.381 402.5 109 402.5 107.619 403.619 106.5 405 106.5 406.381 106.5 407.5 107.619 407.5 109Z"/><path d="M373 108 337 108C336.448 108 336 108.448 336 109 336 109.552 336.448 110 337 110L373 110C373.552 110 374 109.552 374 109 374 108.448 373.552 108 373 108Z"/><path d="M385 108 379 108C378.448 108 378 108.448 378 109 378 109.552 378.448 110 379 110L385 110C385.552 110 386 109.552 386 109 386 108.448 385.552 108 385 108Z"/></g></svg>