<svg width="41" height="48" xmlns="http://www.w3.org/2000/svg" xmlns:xlink="http://www.w3.org/1999/xlink" xml:space="preserve" overflow="hidden"><defs><clipPath id="clip0"><rect x="61" y="43" width="41" height="48"/></clipPath></defs><g clip-path="url(#clip0)" transform="translate(-61 -43)"><path d="M17.0833 14.9479 18.2792 13.7521C16.9688 12.3937 16.9688 10.2417 18.2792 8.88333L17.0833 7.6875C15.09 9.69718 15.09 12.9382 17.0833 14.9479Z" transform="matrix(1 0 0 1.17073 61 43)"/><path d="M14.6917 17.3396 15.8875 16.1437C13.2222 13.4953 13.2084 9.18763 15.8569 6.52229 15.867 6.51204 15.8772 6.50183 15.8875 6.49167L14.6917 5.29583C11.3659 8.57464 11.3278 13.9287 14.6065 17.2545 14.6347 17.283 14.6631 17.3114 14.6917 17.3396Z" transform="matrix(1 0 0 1.17073 61 43)"/><path d="M13.4531 18.5781C9.46634 14.5588 9.46634 8.07662 13.4531 4.05729L12.2573 2.86146C7.58705 7.53123 7.58667 15.1028 12.2564 19.7731 12.2567 19.7734 12.257 19.7737 12.2573 19.774Z" transform="matrix(1 0 0 1.17073 61 43)"/><path d="M24.3438 14.9479C26.3371 12.9382 26.3371 9.69718 24.3438 7.6875L23.1479 8.88333C23.7864 9.5316 24.14 10.4078 24.1302 11.3177 24.1317 12.226 23.7794 13.0992 23.1479 13.7521Z" transform="matrix(1 0 0 1.17073 61 43)"/><path d="M25.5396 16.1437 26.7354 17.3396C30.0612 14.0608 30.0993 8.70673 26.8205 5.38095 26.7923 5.35238 26.764 5.32402 26.7354 5.29583L25.5396 6.49167C28.2049 9.1401 28.2186 13.4478 25.5702 16.1131 25.56 16.1234 25.5498 16.1336 25.5396 16.1437Z" transform="matrix(1 0 0 1.17073 61 43)"/><path d="M27.974 18.5781 29.1698 19.774C33.84 15.1042 33.8404 7.5326 29.1706 2.86232 29.1704 2.86204 29.1701 2.86174 29.1698 2.86146L27.974 4.05729C31.9607 8.07662 31.9607 14.5588 27.974 18.5781Z" transform="matrix(1 0 0 1.17073 61 43)"/><path d="M33.7396 37.0324 33.7396 37.0324C33.7264 36.9565 33.702 36.8831 33.667 36.8146 33.667 36.8146 33.667 36.8146 33.667 36.789L21.4951 13.0858C21.458 13.0163 21.4105 12.953 21.3542 12.8979 22.2288 12.5441 22.651 11.5482 22.2972 10.6736 21.9434 9.799 20.9475 9.37679 20.0729 9.73058 19.1983 10.0844 18.7761 11.0803 19.1299 11.9549 19.3035 12.384 19.6438 12.7243 20.0729 12.8979 20.0273 12.9481 19.9885 13.0041 19.9576 13.0645L7.78573 36.7676C7.78573 36.7676 7.78573 36.7676 7.78573 36.7932 7.75075 36.8618 7.72628 36.9352 7.71312 37.011L7.71312 37.011C7.70249 37.0818 7.70249 37.1538 7.71312 37.2246 7.71312 37.2246 7.71312 37.2588 7.71312 37.2758 7.72474 37.3449 7.74481 37.4124 7.77292 37.4766 7.77292 37.4766 7.77292 37.4766 7.77292 37.4766 7.77292 37.4766 7.81562 37.5364 7.83271 37.5705 7.85872 37.6134 7.88725 37.6548 7.91813 37.6944L7.91813 37.6944C7.93986 37.7128 7.96267 37.7299 7.98646 37.7456 8.02336 37.7806 8.06338 37.812 8.10604 37.8396 8.1394 37.857 8.17361 37.8727 8.20854 37.8866L8.33667 37.9335 8.44771 37.9335 8.54167 38.0104 8.60146 38.0104 8.65698 38.0104C8.73522 38.0031 8.81171 37.9829 8.88333 37.9506L20.7221 32.7445 32.5438 37.9378C32.651 37.9867 32.7676 38.0114 32.8854 38.0104L32.8854 38.0104C32.9561 38.0091 33.0264 37.9991 33.0947 37.9805L33.1545 37.9805C33.2087 37.9599 33.2616 37.9357 33.3125 37.9079L33.3509 37.8823C33.4068 37.8471 33.4584 37.8055 33.5047 37.7584L33.5047 37.7584C33.538 37.7167 33.568 37.6724 33.5944 37.626 33.613 37.5985 33.6301 37.57 33.6456 37.5406 33.6456 37.5406 33.6456 37.5406 33.6456 37.5406 33.6745 37.4752 33.6946 37.4063 33.7054 37.3356 33.7054 37.3356 33.7054 37.3057 33.7054 37.2886 33.7322 37.206 33.7438 37.1192 33.7396 37.0324ZM26.4792 26.5475 22.1656 23.6305 24.2455 22.2083ZM20.7135 15.3238 23.4597 20.6666 20.6495 22.6012 18.087 20.8929C18.0314 20.8541 17.9711 20.8226 17.9076 20.799ZM17.1346 22.2895 19.1376 23.6433 14.9479 26.5176ZM10.3995 35.4095 13.4147 29.5328 18.5952 31.8092ZM15.1785 28.4438 20.658 24.6726 26.2443 28.4523 20.7221 30.8781ZM29.6994 34.8244 22.8447 31.8134 28.0167 29.5414 31.0276 35.4052Z" transform="matrix(1 0 0 1.17073 61 43)"/></g></svg>