<svg width="74" height="67" xmlns="http://www.w3.org/2000/svg" xmlns:xlink="http://www.w3.org/1999/xlink" xml:space="preserve" overflow="hidden"><defs><clipPath id="clip0"><rect x="41" y="169" width="74" height="67"/></clipPath></defs><g clip-path="url(#clip0)" transform="translate(-41 -169)"><path d="M19.5417 30.5618C20.3126 30.5618 20.9375 31.1867 20.9375 31.9576L20.9375 36.1451C20.9375 36.916 20.3126 37.5409 19.5417 37.5409L15.3542 37.5409C14.5833 37.5409 13.9583 36.916 13.9583 36.1451L13.9583 31.9576C13.9583 31.1867 14.5833 30.5618 15.3542 30.5618Z" transform="matrix(1.10448 0 0 1 41 169)"/><path d="M33.5 28.468C34.2709 28.468 34.8958 29.093 34.8958 29.8639L34.8958 38.2389C34.8958 39.0098 34.2709 39.6347 33.5 39.6347L25.125 39.6347C24.3541 39.6347 23.7292 39.0098 23.7292 38.2389L23.7292 29.8639C23.7292 29.093 24.3541 28.468 25.125 28.468Z" transform="matrix(1.10448 0 0 1 41 169)"/><path d="M51.6458 26.3743C52.4167 26.3743 53.0417 26.9992 53.0417 27.7701L53.0417 40.3326C53.0417 41.1035 52.4167 41.7284 51.6458 41.7284L39.0833 41.7284C38.3124 41.7284 37.6875 41.1035 37.6875 40.3326L37.6875 27.7701C37.6875 26.9992 38.3124 26.3743 39.0833 26.3743Z" transform="matrix(1.10448 0 0 1 41 169)"/></g></svg>