<svg width="96" height="97" xmlns="http://www.w3.org/2000/svg" xmlns:xlink="http://www.w3.org/1999/xlink" xml:space="preserve" overflow="hidden"><defs><clipPath id="clip0"><rect x="46" y="283" width="96" height="97"/></clipPath></defs><g clip-path="url(#clip0)" transform="translate(-46 -283)"><path d="M81 49C79.3 49 78 47.7 78 46 78 44.3 79.3 43 81 43 82.7 43 84 44.3 84 46 84 47.7 82.7 49 81 49ZM58 49 52 49 52 43 58 43 58 49ZM48 49 12 49 12 43 48 43 48 49ZM88 34 8 34C5.8 34 4 35.8 4 38L4 54C4 56.2 5.8 58 8 58L12 58 12 62 24 62 24 58 72 58 72 62 84 62 84 58 88 58C90.2 58 92 56.2 92 54L92 38C92 35.8 90.2 34 88 34Z" transform="matrix(1 0 0 1.01042 46 283)"/></g></svg>