<svg width="85" height="59" xmlns="http://www.w3.org/2000/svg" xmlns:xlink="http://www.w3.org/1999/xlink" xml:space="preserve" overflow="hidden"><defs><clipPath id="clip0"><rect x="675" y="185" width="85" height="59"/></clipPath></defs><g clip-path="url(#clip0)" transform="translate(-675 -185)"><path d="M54.6979 17.2083 4.30208 17.2083C2.6058 17.2104 1.2312 18.5849 1.22917 20.2812L1.22917 38.7188C1.2312 40.4151 2.6058 41.7896 4.30208 41.7917L54.6979 41.7917C56.3942 41.7896 57.7688 40.4151 57.7708 38.7188L57.7708 20.2812C57.7688 18.5849 56.3942 17.2104 54.6979 17.2083ZM56.5417 38.7188C56.5417 39.737 55.7162 40.5625 54.6979 40.5625L4.30208 40.5625C3.28381 40.5625 2.45833 39.737 2.45833 38.7188L2.45833 20.2812C2.45833 19.2629 3.28381 18.4375 4.30208 18.4375L54.6979 18.4375C55.7162 18.4375 56.5417 19.2629 56.5417 20.2812Z" transform="matrix(1.44068 0 0 1 675 185)"/><path d="M6.76042 22.125 9.21875 22.125 9.21875 24.5833 6.76042 24.5833Z" transform="matrix(1.44068 0 0 1 675 185)"/><path d="M12.9062 22.125 15.3646 22.125 15.3646 24.5833 12.9062 24.5833Z" transform="matrix(1.44068 0 0 1 675 185)"/><path d="M19.0521 22.125 21.5104 22.125 21.5104 24.5833 19.0521 24.5833Z" transform="matrix(1.44068 0 0 1 675 185)"/><path d="M25.1979 22.125 27.6562 22.125 27.6562 24.5833 25.1979 24.5833Z" transform="matrix(1.44068 0 0 1 675 185)"/><path d="M6.76042 28.2708 9.21875 28.2708 9.21875 30.7292 6.76042 30.7292Z" transform="matrix(1.44068 0 0 1 675 185)"/><path d="M12.9062 28.2708 15.3646 28.2708 15.3646 30.7292 12.9062 30.7292Z" transform="matrix(1.44068 0 0 1 675 185)"/><path d="M19.0521 28.2708 21.5104 28.2708 21.5104 30.7292 19.0521 30.7292Z" transform="matrix(1.44068 0 0 1 675 185)"/><path d="M25.1979 28.2708 27.6562 28.2708 27.6562 30.7292 25.1979 30.7292Z" transform="matrix(1.44068 0 0 1 675 185)"/><path d="M6.76042 34.4167 9.21875 34.4167 9.21875 36.875 6.76042 36.875Z" transform="matrix(1.44068 0 0 1 675 185)"/><path d="M12.9062 34.4167 15.3646 34.4167 15.3646 36.875 12.9062 36.875Z" transform="matrix(1.44068 0 0 1 675 185)"/><path d="M31.3437 22.125 33.8021 22.125 33.8021 24.5833 31.3437 24.5833Z" transform="matrix(1.44068 0 0 1 675 185)"/><path d="M37.4896 22.125 39.9479 22.125 39.9479 24.5833 37.4896 24.5833Z" transform="matrix(1.44068 0 0 1 675 185)"/><path d="M43.6354 22.125 46.0938 22.125 46.0938 24.5833 43.6354 24.5833Z" transform="matrix(1.44068 0 0 1 675 185)"/><path d="M49.7812 22.125 52.2396 22.125 52.2396 24.5833 49.7812 24.5833Z" transform="matrix(1.44068 0 0 1 675 185)"/><path d="M31.3437 28.2708 33.8021 28.2708 33.8021 30.7292 31.3437 30.7292Z" transform="matrix(1.44068 0 0 1 675 185)"/><path d="M37.4896 28.2708 39.9479 28.2708 39.9479 30.7292 37.4896 30.7292Z" transform="matrix(1.44068 0 0 1 675 185)"/><path d="M43.6354 28.2708 46.0938 28.2708 46.0938 30.7292 43.6354 30.7292Z" transform="matrix(1.44068 0 0 1 675 185)"/><path d="M49.7812 28.2708 52.2396 28.2708 52.2396 30.7292 49.7812 30.7292Z" transform="matrix(1.44068 0 0 1 675 185)"/><path d="M19.0521 34.4167 39.9479 34.4167 39.9479 36.875 19.0521 36.875Z" transform="matrix(1.44068 0 0 1 675 185)"/><path d="M43.6354 34.4167 46.0938 34.4167 46.0938 36.875 43.6354 36.875Z" transform="matrix(1.44068 0 0 1 675 185)"/><path d="M49.7812 34.4167 52.2396 34.4167 52.2396 36.875 49.7812 36.875Z" transform="matrix(1.44068 0 0 1 675 185)"/></g></svg>