<?xml version="1.0" standalone="yes"?>
<svg xmlns="http://www.w3.org/2000/svg" width="532" height="151">
<path style="fill:#010101; stroke:none;" d="M0 0L0 151L532 151L532 0L0 0z"/>
<path style="fill:#ffffff; stroke:none;" d="M96 3.12192C91.6372 4.96738 88.4432 10.3923 85.6505 14C79.155 22.3909 70.7532 30.6834 65.6528 40C63.3415 44.2219 63.9674 53.3421 71 51.338C75.5615 50.0381 78.6988 44.5445 81.3742 41C88.1574 32.0135 97.3517 23.0678 102.431 13C104.711 8.47874 102.493 0.375305 96 3.12192M29.0154 14.956C21.206 16.8138 24.4219 29.4268 31.8912 27.1489C38.4298 25.1549 36.1649 13.2552 29.0154 14.956M58 14.9167C50.1841 15.5987 51.3357 28.0788 58.9846 27.338C65.9875 26.6597 65.1712 14.2908 58 14.9167M117 21.9429C109.911 24.8673 97.8967 34.7368 93.6034 41.0895C90.3107 45.9616 93.6375 53.1088 100 51.2284C107.055 49.1433 121.303 37.2723 124.82 30.8302C127.839 25.3005 122.858 19.5261 117 21.9429M11.1088 39.7616C4.26378 42.3782 7.76131 53.7746 14.9421 51.3526C21.9741 48.9809 18.4737 36.9462 11.1088 39.7616M39.2137 39.7616C32.6868 42.3939 35.7831 53.7446 42.946 51.3526C50.3322 48.8861 46.4876 36.8279 39.2137 39.7616M6.05864 63.7423C1.1529 65.795 1.952 71.6171 2.00386 76C2.14024 87.5272 6.47228 99.3863 12.6991 109C17.1094 115.809 25.0754 120.412 28.9722 127.285C32.528 133.557 29.7273 140 36.1049 145.657C44.7914 153.361 76.4845 152.834 86.9992 148.656C98.1784 144.214 94.577 135.223 99.0278 127.17C101.804 122.146 107.885 118.489 111.532 114C118.752 105.115 123.058 94.1689 125.195 83C126.136 78.0816 127.711 69.3397 123.682 65.4336C118.24 60.1573 103.065 63 96 63L33 63C25.2695 63 13.2494 60.7334 6.05864 63.7423z"/>
<path style="fill:#ffd507; stroke:none;" d="M218 71L218 111L224 111L224 71L218 71M232.746 72.0316C229.116 74.9387 234.035 79.598 237.393 76.9684C240.959 74.175 236.033 69.3993 232.746 72.0316z"/>
<path style="fill:#ffbf01; stroke:none;" d="M271 71L272 72L271 71z"/>
<path style="fill:#ffd507; stroke:none;" d="M272.477 72.0463C268.802 74.5625 273.301 79.1424 276.667 76.9537C280.507 74.4558 275.793 69.7756 272.477 72.0463z"/>
<path style="fill:#ffbf01; stroke:none;" d="M277 71L278 72L277 71z"/>
<path style="fill:#ffd507; stroke:none;" d="M148 72L148 111C156.243 111 167.562 112.982 174.985 108.721C186.833 101.921 186.833 81.0789 174.985 74.2785C167.562 70.018 156.243 72 148 72z"/>
<path style="fill:#ffd50a; stroke:none;" d="M170 72L171 73L170 72M231 72L232 73L231 72z"/>
<path style="fill:#ffffff; stroke:none;" d="M383 72L383 112L391 112L391 97L404.326 110.397L415 112L404 96C410.246 90.2771 415.922 77.9508 404.985 73.2284C398.657 70.4962 389.764 72 383 72z"/>
<path style="fill:#ffd50a; stroke:none;" d="M270 73L271 74L270 73z"/>
<path style="fill:#ffbf01; stroke:none;" d="M175 74L176 75L175 74z"/>
<path style="fill:#ffffff; stroke:none;" d="M473 83L468 83C468.3 86.8644 469.089 88.3483 473 89C473 94.4118 470.926 105.317 474.603 109.682C478.867 114.743 489.727 112.736 487 105L481 106L481 89L488 89L488 83L481 83L481 74C474.755 74.2051 473.488 77.0883 473 83z"/>
<path style="fill:#ffd50a; stroke:none;" d="M270 75L271 76L270 75z"/>
<path style="fill:#010101; stroke:none;" d="M14 76C15.5893 95.4584 27.0761 104.483 38.7215 118.09C42.9446 123.025 39.7772 130.163 43.6034 134.566C45.9087 137.219 49.8161 136.982 53 136.999C60.6975 137.04 76.0877 139.908 82.7716 135.821C88.0451 132.597 84.7708 124.705 87.7423 120.015C91.0218 114.838 97.0437 111.613 100.985 106.91C108.517 97.9221 111.811 87.2882 114 76L14 76M155 76L155 107C159.998 107 165.492 107.546 169.985 104.91C178.971 99.6387 179.442 84.6832 170.956 78.7029C166.307 75.4268 160.384 76 155 76z"/>
<path style="fill:#ffbf01; stroke:none;" d="M169 77L170 78L169 77M271 77L272 78L271 77M277 77L278 78L277 77z"/>
<path style="fill:#ffd50a; stroke:none;" d="M171 78L172 79L171 78z"/>
<path style="fill:#010101; stroke:none;" d="M391 78L391 91C404.81 90.3674 405.238 78.0409 391 78z"/>
<path style="fill:#ffbf01; stroke:none;" d="M172 79L173 80L172 79z"/>
<path style="fill:#ffd50a; stroke:none;" d="M180 79L181 80L180 79z"/>
<path style="fill:#ffbf01; stroke:none;" d="M173 80L174 81L173 80z"/>
<path style="fill:#ffd50a; stroke:none;" d="M181 81L182 82L181 81z"/>
<path style="fill:#ffbf01; stroke:none;" d="M194 83L195 84L194 83z"/>
<path style="fill:#ffd507; stroke:none;" d="M212 108C207.478 100.028 195.666 111.71 193 97L213 97C212.48 85.778 199.932 77.1342 190.533 86.5332C180.793 96.2735 189.442 111.524 202 110.959C205.686 110.793 208.703 109.539 212 108z"/>
<path style="fill:#ffd50a; stroke:none;" d="M205 83L206 84L205 83z"/>
<path style="fill:#ffd507; stroke:none;" d="M232 83L232 111L238 111L238 83L232 83z"/>
<path style="fill:#ffd50a; stroke:none;" d="M251 83L252 84L251 83z"/>
<path style="fill:#ffd507; stroke:none;" d="M267 108L266 104C262.904 104.588 259.168 106.964 256.015 106.125C249.159 104.3 248.194 93.676 253.228 89.5285C257.818 85.7477 263.361 90.9867 267 86C264.069 84.3583 261.415 83.196 258 83.0471C238.255 82.1858 239.029 112.807 259 110.895C262.02 110.606 264.396 109.458 267 108z"/>
<path style="fill:#ffd50a; stroke:none;" d="M262 83L263 84L262 83z"/>
<path style="fill:#ffd507; stroke:none;" d="M271 83L271 111L278 111L278 83L271 83M291.039 83.6528C274.596 89.0558 284.226 115.949 301.999 110.347C319.721 104.761 309.081 77.7243 291.039 83.6528M314 83C314 90.3713 311.343 105.458 319.109 109.821C324.091 112.62 333.339 110.703 339 111L339 83L333 83C333 87.9411 335.618 109.726 325.059 105.758C318.352 103.238 321 88.6023 321 83L314 83z"/>
<path style="fill:#ffd50a; stroke:none;" d="M349 83L350 84L349 83z"/>
<path style="fill:#ffd507; stroke:none;" d="M345 104C344.137 114.057 361.38 112.986 364.063 104.985C367.519 94.6807 350.438 96.6022 351.631 90.1242C352.482 85.5008 360.318 88.5477 363 89C362.631 80.8122 348.935 81.2002 345.319 87.2137C339.754 96.4679 353.133 96.4676 356.248 101.39C359.034 105.789 352.627 106.253 350.025 105.441C348.308 104.905 346.763 104.376 345 104z"/>
<path style="fill:#ffffff; stroke:none;" d="M424 98L443 98C442.859 81.1911 418.641 76.2364 416.189 94C414.843 103.752 419.665 111.905 430 111.995C432.794 112.02 443.431 111.584 441.503 106.275C440.017 102.185 433.77 105.787 431.005 105.473C427.013 105.019 425.292 101.281 424 98M444 109C450.756 112.784 471.863 113.829 466.254 100.105C464.126 94.8977 456.493 94.2997 453 90C458.418 88.8218 463.697 91.3804 467 86C460.633 82.4335 439.155 81.8735 446.183 94.8951C447.787 97.8679 458.036 100.733 457.369 103.812C456.744 106.697 446.787 104.048 444 109M498.004 83.7423C480.358 90.576 492.746 117.634 510.985 111.297C528.528 105.202 516.818 76.4563 498.004 83.7423z"/>
<path style="fill:#ffbf01; stroke:none;" d="M192 84L193 85L192 84z"/>
<path style="fill:#ffd50a; stroke:none;" d="M207 84L208 85L207 84M249 84L250 85L249 84M264 84L265 85L264 84M304 84L305 85L304 84M347 84L348 85L347 84M191 85L192 86L191 85z"/>
<path style="fill:#ffbf01; stroke:none;" d="M363 85L364 86L363 85z"/>
<path style="fill:#ffd50a; stroke:none;" d="M183.333 86.6667L183.667 87.3333L183.333 86.6667M286 86L287 87L286 86M345 86L346 87L345 86M189 87L190 88L189 87z"/>
<path style="fill:#ffbf01; stroke:none;" d="M198 87L199 88L198 87z"/>
<path style="fill:#010101; stroke:none;" d="M193 94L207 94C204.092 85.6542 196.171 86.1593 193 94z"/>
<path style="fill:#ffd50a; stroke:none;" d="M202 87L203 88L202 87M210 87L211 88L210 87M266 87L267 88L266 87z"/>
<path style="fill:#ffbf01; stroke:none;" d="M285 87L286 88L285 87z"/>
<path style="fill:#ffd50a; stroke:none;" d="M294 87L295 88L294 87z"/>
<path style="fill:#010101; stroke:none;" d="M295.019 87.7863C285.737 90.8857 288.846 109.661 298.956 106.214C307.437 103.322 304.97 84.4637 295.019 87.7863z"/>
<path style="fill:#ffd50a; stroke:none;" d="M299 87L300 88L299 87M357 87L358 88L357 87M363 87L364 88L363 87M204 88L205 89L204 88M245 88L246 89L245 88M292 88L293 89L292 88M359 88L360 89L359 88M205 89L206 90L205 89M291 89L292 90L291 89z"/>
<path style="fill:#ffbf01; stroke:none;" d="M350 89L351 90L350 89z"/>
<path style="fill:#010101; stroke:none;" d="M424 94L435 94C432.971 87.3152 426.944 88.7531 424 94M502.143 90.0432C494.991 93.9815 499.517 109.873 507.606 104.816C513.889 100.889 510.317 85.5428 502.143 90.0432z"/>
<path style="fill:#ffd50a; stroke:none;" d="M244 90L245 91L244 90z"/>
<path style="fill:#ffbf01; stroke:none;" d="M251 90L252 91L251 90z"/>
<path style="fill:#ffd50a; stroke:none;" d="M290 90L291 91L290 90z"/>
<path style="fill:#ffbf01; stroke:none;" d="M283 91L284 92L283 91z"/>
<path style="fill:#ffd50a; stroke:none;" d="M303 91L304 92L303 91z"/>
<path style="fill:#ffbf01; stroke:none;" d="M193 92L194 93L193 92M250 92L251 93L250 92z"/>
<path style="fill:#ffd50a; stroke:none;" d="M283 92L284 93L283 92z"/>
<path style="fill:#ffbf01; stroke:none;" d="M289 94L290 95L289 94z"/>
<path style="fill:#ffd50a; stroke:none;" d="M355 94L356 95L355 94M183.333 95.6667L183.667 96.3333L183.333 95.6667M358 95L359 96L358 95M352 98L353 99L352 98z"/>
<path style="fill:#ffbf01; stroke:none;" d="M363 98L364 99L363 98M289 99L290 100L289 99z"/>
<path style="fill:#ffd50a; stroke:none;" d="M181 101L182 102L181 101z"/>
<path style="fill:#ffbf01; stroke:none;" d="M250 101L251 102L250 101M173 102L174 103L173 102z"/>
<path style="fill:#ffd50a; stroke:none;" d="M303 102L304 103L303 102z"/>
<path style="fill:#ffbf01; stroke:none;" d="M172 103L173 104L172 103z"/>
<path style="fill:#ffd50a; stroke:none;" d="M180 103L181 104L180 103M244 103L245 104L244 103z"/>
<path style="fill:#ffbf01; stroke:none;" d="M251 103L252 104L251 103z"/>
<path style="fill:#ffd50a; stroke:none;" d="M332 103L333 104L332 103M171 104L172 105L171 104M195 104L196 105L195 104M210 104L211 105L210 104M331 104L332 105L331 104z"/>
<path style="fill:#ffffff; stroke:none;" d="M523.604 105.029C519.288 108.434 525.413 114.114 529.396 110.971C533.712 107.566 527.587 101.886 523.604 105.029z"/>
<path style="fill:#ffbf01; stroke:none;" d="M169 105L170 106L169 105z"/>
<path style="fill:#ffd50a; stroke:none;" d="M196 105L197 106L196 105z"/>
<path style="fill:#ffbf01; stroke:none;" d="M211 105L212 106L211 105z"/>
<path style="fill:#ffd50a; stroke:none;" d="M245 105L246 106L245 105M266 105L267 106L266 105M292 105L293 106L292 105M344 105L345 106L344 105z"/>
<path style="fill:#ffbf01; stroke:none;" d="M189 106L190 107L189 106z"/>
<path style="fill:#ffd50a; stroke:none;" d="M203 106L204 107L203 106z"/>
<path style="fill:#ffbf01; stroke:none;" d="M255 106L256 107L255 106z"/>
<path style="fill:#ffd50a; stroke:none;" d="M259 106L260 107L259 106z"/>
<path style="fill:#ffbf01; stroke:none;" d="M285 106L286 107L285 106z"/>
<path style="fill:#ffd50a; stroke:none;" d="M294 106L295 107L294 106M299 106L300 107L299 106z"/>
<path style="fill:#ffbf01; stroke:none;" d="M315 106L316 107L315 106M327 106L328 107L327 106z"/>
<path style="fill:#ffd50a; stroke:none;" d="M355 106L356 107L355 106M190 107L191 108L190 107M286 107L287 108L286 107M343 107L344 108L343 107z"/>
<path style="fill:#ffbf01; stroke:none;" d="M175 108L176 109L175 108z"/>
<path style="fill:#ffd50a; stroke:none;" d="M210 108L211 109L210 108M344 108L345 109L344 108z"/>
<path style="fill:#ffbf01; stroke:none;" d="M264 109L265 110L264 109z"/>
<path style="fill:#ffd50a; stroke:none;" d="M304 109L305 110L304 109z"/>
<path style="fill:#ffbf01; stroke:none;" d="M331 109L332 110L331 109z"/>
<path style="fill:#ffd50a; stroke:none;" d="M170 110L171 111L170 110M206 110L207 111L206 110M302 110L303 111L302 110z"/>
<path style="fill:#ffbf01; stroke:none;" d="M319 110L320 111L319 110M333 110L334 111L333 110z"/>
</svg>
